SplineFontDB: 1.0
FontName: FreeSansBold
FullName: Free Sans Bold
FamilyName: FreeSans
Weight: Bold
Copyright: Copyleft 2002, 2003 Free Software Foundation.
Version: $Revision: 1.17 $
ItalicAngle: 0
UnderlinePosition: -155
UnderlineWidth: 69
Ascent: 800
Descent: 200
NeedsXUIDChange: 1
FSType: 0
PfmFamily: 33
TTFWeight: 700
TTFWidth: 5
LineGap: 90
VLineGap: 0
Panose: 2 11 7 4 2 2 2 2 2 4
OS2TypoAscent: 0
OS2TypoAOffset: 1
OS2TypoDescent: 0
OS2TypoDOffset: 1
OS2TypoLinegap: 0
OS2WinAscent: 0
OS2WinAOffset: 1
OS2WinDescent: 0
OS2WinDOffset: 1
HheadAscent: 0
HheadAOffset: 1
HheadDescent: 0
HheadDOffset: 1
OS2Vendor: 'PfEd'
ScriptLang: 4
 1 latn 1 dflt 
 1 hebr 1 dflt 
 1 DFLT 1 dflt 
 1 grek 1 dflt 
ChainSub: class 0 0 'ccmp' 3 0 3 1
  Class: 3 i j
  Class: 109 gravecomb acutecomb uni0302 tildecomb uni0304 uni0306 uni0307 uni0308 uni030A uni030B uni030C uni030F uni0311
  FClass: 3 i j
  FClass: 109 gravecomb acutecomb uni0302 tildecomb uni0304 uni0306 uni0307 uni0308 uni030A uni030B uni030C uni030F uni0311
 1 0 1
  ClsList: 1
  BClsList:
  FClsList: 2
 1
  SeqLookup: 0 's001'
EndFPST
GenTags: 1 sb's001'
TtfTable: cvt  4
!$MDh
EndTtf
LangName: 1033 "" "" "" "" "" "" "" "" "" "" "" "" "" "The use of this font is granted subject to GNU General Public License." "http://www.gnu.org/copyleft/gpl.html" "" "" "" "" "The quick brown fox jumps over the lazy dog." 
LangName: 1060 "" "" "polkrepko" "" "" "" "" "" "" "" "" "" "" "Dovoljena je uporaba v skladu z licenco GNU General Public License." "http://www.gnu.org/copyleft/gpl.html" "" "" "" "" "+AWAA-erif bo za vajo spet kuhal doma+AQ0A-e +AX4A-gance." 
Encoding: UnicodeBmp
UnicodeInterp: none
DisplaySize: -36
AntiAlias: 1
FitToEm: 1
WinInfo: 704 16 11
BeginPrivate: 8
UniqueID 7 5020904
BlueValues 31 [-23 0 540 560 729 749 701 724]
BlueScale 8 0.039625
StdHW 5 [118]
StdVW 5 [141]
StemSnapH 200 [106 114 118 127] 
systemdict /internaldict known
{1183615869 systemdict /internaldict get exec

StartChar: exclam
Encoding: 33 33 1
Width: 333
Flags: MW
HStem: 0 146<112 262>
VStem: 112 150<0 146 516 726>
Fore
262 726 m 1
 262 516 l 1
 220 207 l 1
 153 207 l 1
 112 516 l 1
 112 726 l 1
 262 726 l 1
262 146 m 1
 262 0 l 1
 112 0 l 1
 112 146 l 1
 262 146 l 1
EndSplineSet
EndChar
StartChar: quotedbl
Encoding: 34 34 2
Width: 474
Flags: MW
HStem: 470 259<90 146 90 90 326 326 326 382>
VStem: 50 138<599 729> 286 138<599 729>
Fore
188 729 m 1
 188 599 l 1
 146 470 l 1
 90 470 l 1
 50 599 l 1
 50 729 l 1
 188 729 l 1
424 729 m 1
 424 599 l 1
 382 470 l 1
 326 470 l 1
 286 599 l 1
 286 729 l 1
 424 729 l 1
EndSplineSet
EndChar
StartChar: numbersign
Encoding: 35 35 3
Width: 556
Flags: MW
HStem: 172 99<3 80 205 289 413 513> 424 99<31 130 255 338 463 553>
Fore
146 -32 m 1
 40 -32 l 1
 80 172 l 1
 3 172 l 1
 3 271 l 1
 100 271 l 1
 130 424 l 1
 31 424 l 1
 31 523 l 1
 150 523 l 1
 184 697 l 1
 289 697 l 1
 255 523 l 1
 358 523 l 1
 392 697 l 1
 497 697 l 1
 463 523 l 1
 553 523 l 1
 553 424 l 1
 444 424 l 1
 413 271 l 1
 513 271 l 1
 513 172 l 1
 394 172 l 1
 354 -32 l 1
 249 -32 l 1
 289 172 l 1
 186 172 l 1
 146 -32 l 1
205 271 m 1
 308 271 l 1
 338 424 l 1
 235 424 l 1
 205 271 l 1
EndSplineSet
EndChar
StartChar: dollar
Encoding: 36 36 4
Width: 556
Flags: MW
VStem: 39 123<494 541.5> 243 68<-126 -21 86 282 427 608 709 763> 395 132<158 207>
Fore
517 498 m 1
 389 498 l 1
 391 559 362 601 311 608 c 1
 311 407 l 1
 466 364 527 305 527 195 c 0
 527 120 495 55 441 20 c 0
 408 -1 366 -15 311 -21 c 1
 311 -126 l 1
 243 -126 l 1
 243 -21 l 1
 183 -15 146 -2 108 25 c 0
 52 65 22 125 22 198 c 2
 22 207 l 1
 153 207 l 1
 156 137 187 96 243 86 c 1
 243 299 l 1
 108 330 39 401 39 512 c 0
 39 624 114 697 243 709 c 1
 243 763 l 1
 311 763 l 1
 311 709 l 1
 437 702 515 623 517 498 c 1
243 427 m 1
 243 608 l 1
 188 597 162 567 162 516 c 0
 162 472 187 445 243 427 c 1
311 282 m 1
 311 86 l 1
 367 100 395 133 395 183 c 0
 395 231 367 265 311 282 c 1
EndSplineSet
EndChar
StartChar: percent
Encoding: 37 37 5
Width: 889
Flags: W
HStem: -20 20 -13 98<655.5 702> 253 99<655.5 702.5> 337 98<182.5 229> 602 99<182.5 229.5>
VStem: 22 99<496 541.5> 291 99<495.5 541.5> 495 99<146 192> 764 99<145.5 191.5>
Fore
206 701 m 0
 309 701 390 620 390 517 c 0
 390 419 306 337 206 337 c 0
 105 337 22 419 22 519 c 128
 22 619 105 701 206 701 c 0
206 602 m 0
 159 602 121 564 121 519 c 0
 121 473 159 435 206 435 c 0
 252 435 291 473 291 518 c 0
 291 565 253 602 206 602 c 0
606 709 m 1
 682 709 l 1
 287 -20 l 1
 210 -20 l 1
 606 709 l 1
679 352 m 0
 782 352 863 271 863 167 c 0
 863 69 779 -13 679 -13 c 0
 578 -13 495 69 495 170 c 0
 495 270 578 352 679 352 c 0
679 253 m 0
 632 253 594 215 594 169 c 128
 594 123 632 85 679 85 c 0
 725 85 764 123 764 168 c 0
 764 215 726 253 679 253 c 0
EndSplineSet
EndChar
StartChar: ampersand
Encoding: 38 38 6
Width: 722
Flags: W
HStem: -23 116<267 309.5> 614 109<303 338>
VStem: 55 133<180 226.5> 130 132<553.5 580> 377 120<538.5 574.5>
Fore
526 373 m 1
 639 373 l 1
 639 362 l 1
 639 357 l 1
 637 281 611 200 571 154 c 1
 694 0 l 1
 533 0 l 1
 487 56 l 1
 406 -5 360 -23 292 -23 c 0
 150 -23 55 63 55 193 c 0
 55 287 95 340 212 401 c 1
 206 409 202 414 200 416 c 2
 172 450 l 2
 144 483 130 519 130 556 c 0
 130 650 212 723 319 723 c 128
 426 723 497 661 497 568 c 0
 497 496 469 453 380 392 c 1
 496 248 l 1
 518 290 526 320 526 363 c 2
 526 373 l 1
278 319 m 1
 231 290 l 2
 204 272 188 243 188 210 c 0
 188 150 240 93 294 93 c 0
 325 93 367 112 414 148 c 1
 278 319 l 1
317 470 m 1
 357 492 377 521 377 556 c 0
 377 593 356 614 320 614 c 0
 286 614 262 594 262 566 c 0
 262 541 267 533 317 470 c 1
EndSplineSet
EndChar
StartChar: quotesingle
Encoding: 39 39 7
Width: 238
Flags: MW
HStem: 470 259<90 146 90 90>
VStem: 50 138<599 729>
Fore
188 729 m 1
 188 599 l 1
 146 470 l 1
 90 470 l 1
 50 599 l 1
 50 729 l 1
 188 729 l 1
EndSplineSet
EndChar
StartChar: parenleft
Encoding: 40 40 8
Width: 333
Flags: MW
HStem: 709 20<203 303 303 303>
VStem: 40 123<191.5 338>
Fore
203 729 m 1
 303 729 l 1
 197 525 163 411 163 265 c 0
 163 118 197 6 303 -200 c 1
 203 -200 l 1
 88 -27 40 111 40 265 c 0
 40 418 88 556 203 729 c 1
EndSplineSet
EndChar
StartChar: parenright
Encoding: 41 41 9
Width: 333
Flags: MW
HStem: 709 20<22 122 122 122>
VStem: 162 123<191 337.5>
Fore
122 -200 m 1
 22 -200 l 1
 128 4 162 118 162 264 c 0
 162 411 128 523 22 729 c 1
 122 729 l 1
 237 556 285 418 285 264 c 0
 285 111 237 -27 122 -200 c 1
EndSplineSet
EndChar
StartChar: asterisk
Encoding: 42 42 10
Width: 389
Flags: MW
HStem: 709 20<154 226 226 226>
VStem: 154 72<613 729>
Fore
132 544 m 1
 23 580 l 1
 45 649 l 1
 154 613 l 1
 154 729 l 1
 226 729 l 1
 226 613 l 1
 335 649 l 1
 357 579 l 1
 248 544 l 1
 315 450 l 1
 257 407 l 1
 190 501 l 1
 123 407 l 1
 65 450 l 1
 132 544 l 1
EndSplineSet
EndChar
StartChar: plus
Encoding: 43 43 11
Width: 584
Flags: MW
HStem: -10 20 172 119<50 232 351 533>
VStem: 232 119<-10 172 291 473>
Fore
533 291 m 1
 533 172 l 1
 351 172 l 1
 351 -10 l 1
 232 -10 l 1
 232 172 l 1
 50 172 l 1
 50 291 l 1
 232 291 l 1
 232 473 l 1
 351 473 l 1
 351 291 l 1
 533 291 l 1
EndSplineSet
EndChar
StartChar: comma
Encoding: 44 44 12
Width: 278
Flags: MW
HStem: 0 146<64 150>
VStem: 64 150<0 9 9 146>
Fore
64 146 m 1
 214 146 l 1
 214 9 l 2
 214 -69 200 -106 160 -137 c 0
 133 -158 105 -169 64 -174 c 1
 64 -118 l 1
 123 -106 150 -71 150 -3 c 2
 150 0 l 1
 64 0 l 1
 64 146 l 1
EndSplineSet
KernsSLIFO: 991 -30 2 0 994 -33 2 0 1032 -73 2 0
EndChar
StartChar: hyphen
Encoding: 45 45 13
Width: 333
Flags: MW
HStem: 207 135<26 298>
Fore
298 342 m 5
 298 207 l 5
 26 207 l 5
 26 342 l 5
 298 342 l 5
EndSplineSet
KernsSLIFO: 33 -1 2 0 52 -57 2 0 54 -27 2 0 55 -9 2 0 57 -64 2 0 126 -1 2 0 129 -1 2 0 130 -1 2 0 131 10 2 0
EndChar
StartChar: period
Encoding: 46 46 14
Width: 278
Flags: MW
HStem: 0 146<64 214>
VStem: 64 150<0 146>
Fore
214 146 m 1
 214 0 l 1
 64 0 l 1
 64 146 l 1
 214 146 l 1
EndSplineSet
KernsSLIFO: 991 -29 2 0 994 -32 2 0 1032 -73 2 0
EndChar
StartChar: slash
Encoding: 47 47 15
Width: 278
Flags: MW
HStem: -14 20
Fore
208 714 m 1
 275 714 l 1
 69 -14 l 1
 2 -14 l 1
 208 714 l 1
EndSplineSet
EndChar
StartChar: zero
Encoding: 48 48 16
Width: 556
Flags: HMW
HStem: -23 120<254.5 293> 611 113<253 291>
VStem: 29 140<304 392.5> 377 140<309.5 397.5>
Fore
273 724 m 0
 356 724 425 687 467 619 c 0
 501 564 517 476 517 346 c 0
 517 214 497 122 457 68 c 0
 413 8 350 -23 273 -23 c 0
 190 -23 121 15 79 82 c 0
 46 136 29 225 29 350 c 0
 29 487 48 578 89 633 c 0
 132 692 197 724 273 724 c 0
273 611 m 0
 233 611 203 587 187 544 c 0
 177 515 169 434 169 351 c 0
 169 257 177 182 191 152 c 0
 208 116 236 97 273 97 c 0
 313 97 343 120 359 162 c 0
 369 190 377 270 377 349 c 0
 377 446 369 524 355 554 c 0
 338 591 309 611 273 611 c 0
EndSplineSet
EndChar
StartChar: one
Encoding: 49 49 17
Width: 556
Flags: HMW
HStem: 0 20
VStem: 238 140<0 489 489 489>
Fore
238 489 m 1
 68 489 l 1
 68 582 l 1
 190 582 263 625 285 709 c 1
 378 709 l 1
 378 0 l 1
 238 0 l 1
 238 489 l 1
EndSplineSet
EndChar
StartChar: two
Encoding: 50 50 18
Width: 556
Flags: HMW
HStem: 0 125<212 512> 610 114<243 306>
VStem: 39 135<484 485> 375 140<457 531.5>
Fore
512 125 m 1
 512 0 l 1
 30 0 l 1
 37 131 74 194 194 276 c 1
 350 387 375 418 375 496 c 0
 375 567 337 610 275 610 c 0
 211 610 174 564 174 485 c 2
 174 462 l 1
 40 462 l 1
 39 473 39 481 39 487 c 0
 39 637 125 724 272 724 c 0
 421 724 515 636 515 499 c 0
 515 403 479 349 356 259 c 0
 252 183 230 163 212 125 c 1
 512 125 l 1
EndSplineSet
EndChar
StartChar: three
Encoding: 51 51 19
Width: 556
Flags: HW
HStem: -23 120<238 301.5> 611 113<244.5 293>
VStem: 353 140<498.5 547.5> 376 140<173 230>
Fore
217 317 m 5
 217 411 l 5
 229 411 l 6
 312 411 353 447 353 518 c 4
 353 577 321 611 265 611 c 4
 224 611 192 592 179 561 c 4
 172 543 169 524 168 486 c 5
 38 486 l 5
 38 498 l 6
 38 561 51 609 79 644 c 4
 119 696 187 724 268 724 c 4
 405 724 493 649 493 531 c 4
 493 466 466 421 400 380 c 5
 480 341 516 287 516 204 c 4
 516 66 419 -23 268 -23 c 4
 123 -23 30 66 29 208 c 5
 165 208 l 5
 169 135 205 97 271 97 c 4
 332 97 376 142 376 204 c 4
 376 256 346 297 299 310 c 4
 275 316 266 317 217 317 c 5
EndSplineSet
EndChar
StartChar: four
Encoding: 52 52 20
Width: 556
Flags: HMW
HStem: 0 20 157 116<123 308 448 522>
VStem: 308 140<0 157 273 576 576 576>
Fore
522 273 m 1
 522 157 l 1
 448 157 l 1
 448 0 l 1
 308 0 l 1
 308 157 l 1
 24 157 l 1
 24 275 l 1
 283 709 l 1
 448 709 l 1
 448 273 l 1
 522 273 l 1
308 273 m 1
 308 576 l 1
 123 273 l 1
 308 273 l 1
EndSplineSet
EndChar
StartChar: five
Encoding: 53 53 21
Width: 556
Flags: HMW
HStem: -23 120<232.5 298> 368 111<272.5 298.5> 584 125<196 489 196 196>
VStem: 377 140<189.5 274>
Fore
489 709 m 1
 489 584 l 1
 196 584 l 1
 173 436 l 1
 214 467 249 479 296 479 c 0
 427 479 517 379 517 234 c 0
 517 81 413 -23 261 -23 c 0
 123 -23 29 61 27 185 c 1
 165 185 l 1
 168 128 202 97 263 97 c 0
 333 97 377 148 377 231 c 0
 377 317 334 368 263 368 c 0
 220 368 188 349 173 314 c 1
 47 314 l 1
 110 709 l 1
 489 709 l 1
EndSplineSet
EndChar
StartChar: six
Encoding: 54 54 22
Width: 556
Flags: HMW
HStem: -23 120<246 309> 357 110<284 311.5> 611 113<262 312.5>
VStem: 32 138 386 133<190 267>
Fore
507 548 m 1
 377 548 l 1
 359 593 335 611 290 611 c 0
 234 611 194 573 181 509 c 0
 175 479 175 479 172 404 c 1
 216 450 255 467 313 467 c 0
 435 467 519 373 519 237 c 0
 519 83 423 -23 282 -23 c 0
 198 -23 124 16 83 82 c 0
 47 139 32 215 32 337 c 0
 32 466 49 545 91 614 c 0
 134 685 206 724 294 724 c 0
 371 724 436 694 473 643 c 0
 491 617 500 594 507 548 c 1
279 357 m 0
 214 357 170 303 170 225 c 0
 170 150 214 97 278 97 c 0
 340 97 386 152 386 228 c 0
 386 306 344 357 279 357 c 0
EndSplineSet
EndChar
StartChar: seven
Encoding: 55 55 23
Width: 556
Flags: HMW
HStem: 0 20 584 125<29 382>
Fore
528 709 m 1
 528 599 l 1
 360 396 287 224 274 0 c 1
 133 0 l 1
 152 151 177 244 226 347 c 0
 254 409 339 538 382 584 c 1
 29 584 l 1
 29 709 l 1
 528 709 l 1
EndSplineSet
EndChar
StartChar: eight
Encoding: 56 56 24
Width: 556
Flags: HW
HStem: -23 120<239 307> 330 95<244 305.5> 611 113<243.5 306>
VStem: 22 140<177 246> 46 123<497 546> 380 121<509 545.5> 385 140<176 246>
Fore
409 386 m 1
 491 342 525 288 525 204 c 0
 525 70 422 -23 274 -23 c 0
 125 -23 22 70 22 204 c 0
 22 288 56 342 138 386 c 1
 74 420 46 463 46 531 c 0
 46 643 142 724 274 724 c 0
 405 724 501 643 501 532 c 0
 501 486 484 443 455 416 c 0
 444 406 433 399 409 386 c 1
275 611 m 0
 212 611 169 573 169 519 c 0
 169 464 213 425 275 425 c 0
 336 425 380 464 380 518 c 0
 380 573 337 611 275 611 c 0
273 330 m 0
 206 330 162 284 162 212 c 0
 162 142 205 97 273 97 c 128
 341 97 385 142 385 210 c 0
 385 284 342 330 273 330 c 0
EndSplineSet
EndChar
StartChar: nine
Encoding: 57 57 25
Width: 556
Flags: HMW
HStem: -24 120<234.5 298.5> 228 116<233 258> 610 114<232 297>
VStem: 28 133<435.5 517>
Fore
38 165 m 1
 173 165 l 1
 176 123 210 96 259 96 c 0
 338 96 376 163 376 298 c 1
 353 272 345 263 332 254 c 0
 310 238 276 228 240 228 c 0
 114 228 28 328 28 474 c 0
 28 622 125 724 267 724 c 0
 352 724 422 684 467 608 c 0
 499 555 516 473 516 370 c 0
 516 256 494 149 457 86 c 0
 415 14 346 -24 255 -24 c 0
 133 -24 41 56 38 165 c 1
263 610 m 0
 201 610 161 558 161 476 c 0
 161 395 201 344 265 344 c 128
 329 344 373 396 373 474 c 0
 373 557 331 610 263 610 c 0
EndSplineSet
EndChar
StartChar: colon
Encoding: 58 58 26
Width: 333
Flags: MW
HStem: 0 146<113 263> 374 146<113 263>
VStem: 113 150<0 146 374 520>
Fore
263 146 m 1
 263 0 l 1
 113 0 l 1
 113 146 l 1
 263 146 l 1
263 520 m 1
 263 374 l 1
 113 374 l 1
 113 520 l 1
 263 520 l 1
EndSplineSet
EndChar
StartChar: semicolon
Encoding: 59 59 27
Width: 333
Flags: MW
HStem: 0 146<113 199> 374 146<113 263>
VStem: 113 150<0 9 9 146 374 520>
Fore
113 146 m 1
 263 146 l 1
 263 9 l 2
 263 -69 249 -106 209 -137 c 0
 182 -158 154 -169 113 -174 c 1
 113 -118 l 1
 172 -106 199 -71 199 -3 c 2
 199 0 l 1
 113 0 l 1
 113 146 l 1
263 520 m 1
 263 374 l 1
 113 374 l 1
 113 520 l 1
 263 520 l 1
EndSplineSet
EndChar
StartChar: less
Encoding: 60 60 28
Width: 584
Flags: MW
HStem: -10 20
Fore
529 474 m 1
 529 365 l 1
 147 232 l 1
 529 101 l 1
 529 -10 l 1
 40 172 l 1
 40 293 l 1
 529 474 l 1
EndSplineSet
EndChar
StartChar: equal
Encoding: 61 61 29
Width: 584
Flags: MW
HStem: 52 119<50 534> 292 119<50 534>
Fore
534 411 m 1
 534 292 l 1
 50 292 l 1
 50 411 l 1
 534 411 l 1
534 171 m 1
 534 52 l 1
 50 52 l 1
 50 171 l 1
 534 171 l 1
EndSplineSet
EndChar
StartChar: greater
Encoding: 62 62 30
Width: 584
Flags: MW
HStem: -10 20
Fore
40 -10 m 1
 40 99 l 1
 422 232 l 1
 40 363 l 1
 40 474 l 1
 529 292 l 1
 529 171 l 1
 40 -10 l 1
EndSplineSet
EndChar
StartChar: question
Encoding: 63 63 31
Width: 611
Flags: MW
HStem: 0 146<235 385> 626 118<277 340>
VStem: 235 150<0 146> 415 141<488.5 543.5>
Fore
369 201 m 1
 245 201 l 1
 242 286 265 331 344 399 c 1
 403 447 415 466 415 511 c 0
 415 576 370 626 310 626 c 0
 244 626 196 564 200 483 c 1
 200 481 l 1
 64 481 l 1
 65 563 78 611 111 655 c 0
 154 714 221 744 307 744 c 0
 454 744 556 650 556 514 c 0
 556 430 529 386 436 320 c 0
 376 278 369 267 369 201 c 1
385 146 m 1
 385 0 l 1
 235 0 l 1
 235 146 l 1
 385 146 l 1
EndSplineSet
EndChar
StartChar: at
Encoding: 64 64 32
Width: 975
Flags: MW
HStem: -138 78<440.5 522> -19 20 56 81<419 449.5 682 714.5> 447 71<480 537> 668 77<453 560>
VStem: 27 97<216 316> 258 97<214 260.5> 858 89<341 408.5>
Fore
644 508 m 1
 734 508 l 1
 656 228 l 1
 648 198 648 198 648 186 c 0
 648 156 667 137 697 137 c 0
 732 137 774 165 807 209 c 0
 840 255 858 312 858 370 c 0
 858 449 826 517 760 576 c 0
 690 638 609 668 511 668 c 0
 395 668 299 625 227 542 c 0
 162 467 124 366 124 266 c 128
 124 166 164 82 242 21 c 0
 309 -31 395 -60 486 -60 c 0
 558 -60 635 -45 693 -19 c 1
 721 -92 l 1
 651 -124 578 -138 484 -138 c 0
 357 -138 261 -108 178 -43 c 0
 82 32 27 145 27 264 c 0
 27 380 82 510 170 601 c 0
 262 696 380 745 516 745 c 0
 642 745 751 702 836 620 c 0
 912 546 947 462 947 355 c 0
 947 272 920 203 865 140 c 0
 817 86 757 56 697 56 c 0
 664 56 633 65 608 82 c 0
 588 96 580 106 572 131 c 1
 533 84 477 56 422 56 c 0
 331 56 258 132 258 227 c 0
 258 294 286 370 332 427 c 0
 377 483 446 518 514 518 c 0
 570 518 604 496 628 446 c 1
 644 508 l 1
511 447 m 0
 433 447 355 346 355 244 c 0
 355 184 394 137 444 137 c 0
 473 137 508 156 532 184 c 0
 569 227 595 294 595 345 c 0
 595 408 563 447 511 447 c 0
EndSplineSet
EndChar
StartChar: A
Encoding: 65 65 33
Width: 722
Flags: MW
HStem: 0 20 147 125<270 460> 537 20<365 365> 709 20<285 451 451 451>
Fore
501 147 m 1
 228 147 l 1
 179 0 l 1
 26 0 l 1
 285 729 l 1
 451 729 l 1
 703 0 l 1
 549 0 l 1
 501 147 l 1
460 272 m 1
 365 557 l 1
 270 272 l 1
 460 272 l 1
EndSplineSet
KernsSLIFO: 12 19 0 0 13 7 0 0 14 19 0 0 34 56 0 0 35 -33 0 0 36 57 0 0 37 56 0 0 38 60 0 0 39 -35 0 0 40 66 0 0 41 71 0 0 43 60 0 0 44 56 0 0 45 68 0 0 46 66 0 0 47 -34 0 0 48 58 0 0 49 -35 0 0 50 56 0 0 51 42 0 0 52 -81 0 0 53 -32 0 0 54 -66 0 0 55 -51 0 0 56 56 0 0 57 -90 0 0 58 56 0 0 65 -1 0 0 66 -1 0 0 67 -14 0 0 68 -13 0 0 69 -9 0 0 70 49 0 0 71 -14 0 0 72 67 0 0 73 67 0 0 74 64 0 0 75 75 0 0 76 67 0 0 77 74 0 0 78 71 0 0 79 -16 0 0 80 76 0 0 81 -12 0 0 82 71 0 0 84 -18 0 0 85 -12 0 0 86 -37 0 0 87 -23 0 0 88 134 0 0 89 -35 0 0 90 105 0 0 105 -43 0 0 132 -33 0 0 147 -34 0 0 150 -32 0 0 151 -32 0 0 152 -32 0 0 153 -32 0 0 164 -14 0 0 991 -61 0 0 994 -65 0 0 1001 -40 0 0 1023 95 0 0 1024 43 0 0 1026 48 0 0 1029 47 0 0 1032 -89 0 0
EndChar
StartChar: B
Encoding: 66 66 34
Width: 722
Flags: W
HStem: 0 125<232 410> 314 125<232 395 395 411> 604 125<232 232 232 395>
VStem: 82 150<125 314 439 604> 501 144<506 548> 522 144<188.5 246>
Fore
82 0 m 5
 82 729 l 5
 407 729 l 6
 485 729 536 713 579 676 c 4
 620 640 645 587 645 537 c 4
 645 475 617 433 545 387 c 5
 627 339 666 282 666 210 c 4
 666 152 638 90 594 53 c 132
 550 16 494 0 410 0 c 6
 82 0 l 5
232 604 m 5
 232 439 l 5
 395 439 l 6
 464 439 501 468 501 521 c 4
 501 575 464 604 395 604 c 6
 232 604 l 5
232 314 m 5
 232 125 l 5
 411 125 l 6
 484 125 522 158 522 219 c 4
 522 281 484 314 411 314 c 6
 232 314 l 5
EndSplineSet
KernsSLIFO: 33 -32 0 0 34 56 0 0 36 56 0 0 37 56 0 0 38 56 0 0 40 56 0 0 41 56 0 0 43 56 0 0 44 56 0 0 45 56 0 0 46 56 0 0 47 -11 0 0 48 56 0 0 50 56 0 0 54 -39 0 0 55 -27 0 0 57 -51 0 0 58 46 0 0 65 50 0 0 66 56 0 0 72 56 0 0 73 56 0 0 75 56 0 0 76 56 0 0 77 56 0 0 78 56 0 0 80 56 0 0 82 56 0 0 85 56 0 0 88 56 0 0 90 50 0 0 126 -32 0 0 127 -32 0 0 128 -32 0 0 129 -32 0 0 130 -32 0 0 131 -20 0 0 143 -11 0 0 144 -11 0 0 145 -11 0 0 147 -11 0 0 149 -5 0 0 271 -2 0 0 1023 45 0 0
EndChar
StartChar: C
Encoding: 67 67 35
Width: 722
Flags: MW
HStem: -23 126<320 424.5> 613 128<324 409>
VStem: 44 150<276.5 436.5>
Fore
682 482 m 1
 539 482 l 1
 530 521 522 540 506 560 c 0
 478 595 435 613 383 613 c 0
 265 613 194 517 194 356 c 0
 194 197 262 103 378 103 c 0
 471 103 530 156 539 249 c 1
 685 249 l 1
 676 82 555 -23 374 -23 c 0
 171 -23 44 124 44 358 c 0
 44 594 172 741 378 741 c 0
 487 741 577 700 633 626 c 0
 664 585 677 545 682 482 c 1
EndSplineSet
KernsSLIFO: 33 -29 0 0 34 56 0 0 36 56 0 0 37 56 0 0 38 56 0 0 40 5 0 0 41 67 0 0 42 56 0 0 43 2 0 0 44 56 0 0 45 64 0 0 46 62 0 0 47 -6 0 0 48 56 0 0 50 56 0 0 51 53 0 0 53 56 0 0 57 -55 0 0 58 51 0 0 65 73 0 0 66 71 0 0 67 56 0 0 68 56 0 0 69 56 0 0 70 86 0 0 71 56 0 0 72 63 0 0 73 63 0 0 74 60 0 0 75 71 0 0 76 63 0 0 77 70 0 0 78 67 0 0 79 56 0 0 80 72 0 0 81 56 0 0 82 67 0 0 83 52 0 0 84 53 0 0 85 72 0 0 87 45 0 0 88 81 0 0 90 81 0 0 126 -29 0 0 129 -29 0 0 130 -29 0 0 131 -17 0 0 144 -6 0 0 147 -6 0 0 1022 52 0 0 1023 80 0 0 1024 52 0 0 1026 47 0 0 1027 53 0 0 1028 50 0 0 1029 53 0 0 1030 53 0 0
EndChar
StartChar: D
Encoding: 68 68 36
Width: 722
Flags: MW
HStem: 0 125<227 362> 604 125<227 362 227 227>
VStem: 77 150<125 604> 531 150<308.5 421>
Fore
77 0 m 1
 77 729 l 1
 362 729 l 2
 474 729 543 704 592 645 c 0
 650 576 681 477 681 365 c 0
 681 252 650 153 592 85 c 0
 543 26 473 0 362 0 c 2
 77 0 l 1
227 125 m 1
 362 125 l 2
 475 125 531 204 531 364 c 0
 531 525 475 604 362 604 c 2
 227 604 l 1
 227 125 l 1
EndSplineSet
KernsSLIFO: 33 -37 0 0 34 56 0 0 36 56 0 0 37 56 0 0 38 56 0 0 40 56 0 0 41 56 0 0 42 2 0 0 43 56 0 0 44 56 0 0 45 56 0 0 46 56 0 0 48 56 0 0 50 56 0 0 52 -17 0 0 54 -35 0 0 55 -20 0 0 56 -35 0 0 57 -56 0 0 66 56 0 0 72 56 0 0 73 56 0 0 75 56 0 0 76 56 0 0 77 56 0 0 78 56 0 0 80 56 0 0 82 56 0 0 125 -37 0 0 126 -37 0 0 127 -37 0 0 128 -37 0 0 129 -37 0 0 130 -37 0 0
EndChar
StartChar: E
Encoding: 69 69 37
Width: 667
Flags: MW
HStem: 0 125<229 624> 314 125<229 578> 604 125<229 606 229 229>
VStem: 79 150<125 314 439 604>
Fore
229 314 m 5
 229 125 l 1
 624 125 l 1
 624 0 l 1
 79 0 l 1
 79 729 l 1
 606 729 l 1
 606 604 l 1
 229 604 l 1
 229 439 l 5
 578 439 l 5
 578 314 l 5
 229 314 l 5
EndSplineSet
KernsSLIFO: 33 72 0 0 34 56 0 0 36 56 0 0 37 56 0 0 38 56 0 0 40 56 0 0 41 61 0 0 43 56 0 0 44 56 0 0 45 58 0 0 46 56 0 0 48 56 0 0 50 56 0 0 52 49 0 0 54 45 0 0 55 62 0 0 56 83 0 0 57 51 0 0 58 78 0 0 66 65 0 0 70 57 0 0 72 57 0 0 73 57 0 0 74 54 0 0 75 65 0 0 76 57 0 0 84 59 0 0 1022 62 0 0 1026 74 0 0 1027 58 0 0 1028 47 0 0 1029 75 0 0 1030 73 0 0 1032 -88 0 0
EndChar
StartChar: F
Encoding: 70 70 38
Width: 611
Flags: MW
HStem: 0 20 314 125<224 543> 604 125<224 586 224 224>
VStem: 74 150<0 314 439 604>
Fore
224 314 m 1
 224 0 l 5
 74 0 l 1
 74 729 l 1
 586 729 l 1
 586 604 l 1
 224 604 l 1
 224 439 l 1
 543 439 l 1
 543 314 l 1
 224 314 l 1
EndSplineSet
KernsSLIFO: 12 -76 0 0 13 11 0 0 14 -75 0 0 33 -63 0 0 42 -25 0 0 47 -16 0 0 65 -15 0 0 69 -7 0 0 73 -7 0 0 74 -9 0 0 79 -14 0 0 82 -27 0 0 85 -24 0 0 125 -63 0 0 126 -63 0 0 127 -63 0 0 128 -63 0 0 129 -63 0 0 130 -63 0 0 147 -16 0 0 158 -15 0 0 161 -15 0 0 162 -15 0 0 163 -17 0 0 166 -7 0 0 176 -14 0 0 179 -14 0 0 181 -15 0 0 272 -8 0 0 1032 -70 0 0
EndChar
StartChar: G
Encoding: 71 71 39
Width: 778
Flags: MW
HStem: -23 128<339.5 429> 267 125<419 585> 613 128<332.5 422>
VStem: 42 150<286 439.5>
Fore
711 392 m 1
 711 -2 l 1
 621 -2 l 1
 603 94 l 1
 547 12 481 -23 383 -23 c 0
 186 -23 42 138 42 359 c 0
 42 586 185 741 395 741 c 0
 571 741 693 646 711 496 c 1
 570 496 l 1
 557 534 546 551 525 569 c 0
 492 598 448 613 396 613 c 0
 269 613 192 518 192 361 c 0
 192 211 279 105 400 105 c 0
 458 105 513 131 549 175 c 0
 571 201 581 226 585 267 c 1
 419 267 l 1
 419 392 l 1
 711 392 l 1
EndSplineSet
KernsSLIFO: 33 -8 0 0 34 56 0 0 35 56 0 0 36 56 0 0 37 56 0 0 38 56 0 0 39 56 0 0 40 56 0 0 41 56 0 0 42 56 0 0 43 56 0 0 44 56 0 0 45 56 0 0 46 56 0 0 47 56 0 0 48 56 0 0 49 56 0 0 50 56 0 0 51 66 0 0 52 -17 0 0 53 56 0 0 54 -36 0 0 55 -20 0 0 56 67 0 0 57 -56 0 0 58 65 0 0 65 66 0 0 66 56 0 0 67 56 0 0 68 60 0 0 69 67 0 0 71 56 0 0 72 56 0 0 73 56 0 0 75 56 0 0 76 56 0 0 77 56 0 0 78 56 0 0 79 56 0 0 80 56 0 0 81 61 0 0 82 56 0 0 83 61 0 0 85 56 0 0 86 65 0 0 87 77 0 0 88 84 0 0 89 70 0 0 90 74 0 0 125 -8 0 0 126 -8 0 0 127 -8 0 0 128 -8 0 0 129 -8 0 0 130 -8 0 0 131 4 0 0 1022 70 0 0 1023 56 0 0 1024 61 0 0 1025 56 0 0 1026 67 0 0 1027 66 0 0 1029 75 0 0 1030 63 0 0 1032 48 0 0
EndChar
StartChar: H
Encoding: 72 72 40
Width: 722
Flags: W
HStem: 0 20 331 125<218 506> 709 20<68 218 218 218 506 657 657 657>
VStem: 68 150<0 331 456 729> 506 151<456 729> 507 150<0 331 331 331>
Fore
507 331 m 1
 218 331 l 1
 218 0 l 1
 68 0 l 1
 68 729 l 1
 218 729 l 1
 218 456 l 1
 506 456 l 1
 506 729 l 1
 657 729 l 1
 657 0 l 1
 507 0 l 1
 507 331 l 1
EndSplineSet
KernsSLIFO: 33 62 0 0 34 56 0 0 35 56 0 0 36 56 0 0 37 56 0 0 38 56 0 0 39 56 0 0 40 56 0 0 41 56 0 0 42 56 0 0 43 56 0 0 44 56 0 0 45 56 0 0 46 56 0 0 47 58 0 0 48 56 0 0 49 56 0 0 50 56 0 0 51 69 0 0 52 90 0 0 53 56 0 0 54 56 0 0 55 65 0 0 56 72 0 0 57 56 0 0 58 70 0 0 65 68 0 0 66 56 0 0 67 57 0 0 68 62 0 0 69 69 0 0 70 90 0 0 71 58 0 0 72 56 0 0 73 56 0 0 75 56 0 0 76 56 0 0 77 56 0 0 78 56 0 0 79 56 0 0 80 56 0 0 81 63 0 0 82 56 0 0 83 63 0 0 84 73 0 0 85 56 0 0 86 74 0 0 87 86 0 0 88 87 0 0 89 79 0 0 90 80 0 0 1022 72 0 0 1023 72 0 0 1024 73 0 0 1025 56 0 0 1026 70 0 0 1027 69 0 0 1028 56 0 0 1029 78 0 0 1030 73 0 0 1032 56 0 0
EndChar
StartChar: I
Encoding: 73 73 41
Width: 278
Flags: MW
HStem: 0 20 709 20<63 213 213 213>
VStem: 63 150<0 729>
Fore
213 729 m 1
 213 0 l 1
 63 0 l 1
 63 729 l 1
 213 729 l 1
EndSplineSet
KernsSLIFO: 33 62 0 0 34 56 0 0 35 56 0 0 36 56 0 0 37 56 0 0 38 56 0 0 39 56 0 0 40 56 0 0 41 56 0 0 42 56 0 0 43 56 0 0 44 56 0 0 45 56 0 0 46 56 0 0 47 58 0 0 48 56 0 0 49 56 0 0 50 56 0 0 51 69 0 0 52 90 0 0 53 56 0 0 54 56 0 0 55 65 0 0 56 72 0 0 57 56 0 0 58 70 0 0 65 68 0 0 66 56 0 0 67 57 0 0 68 62 0 0 69 69 0 0 70 90 0 0 71 58 0 0 72 56 0 0 73 56 0 0 75 56 0 0 76 56 0 0 77 56 0 0 78 56 0 0 79 56 0 0 80 56 0 0 81 63 0 0 82 56 0 0 83 63 0 0 84 73 0 0 85 56 0 0 86 74 0 0 87 86 0 0 88 87 0 0 89 79 0 0 90 80 0 0 1022 72 0 0 1023 72 0 0 1024 73 0 0 1025 56 0 0 1026 70 0 0 1027 69 0 0 1028 56 0 0 1029 78 0 0 1030 73 0 0 1032 56 0 0
EndChar
StartChar: J
Encoding: 74 74 42
Width: 556
Flags: MW
HStem: -23 128<226.5 281> 709 20<336 486 486 486>
VStem: 24 150<198 200 200 270> 336 150<190 729>
Fore
336 729 m 5
 486 729 l 5
 486 190 l 6
 486 54 401 -23 252 -23 c 4
 183 -23 127 -3 85 35 c 4
 42 75 24 122 24 198 c 6
 24 270 l 5
 174 270 l 5
 174 200 l 6
 174 133 198 105 255 105 c 4
 307 105 336 135 336 190 c 6
 336 729 l 5
EndSplineSet
KernsSLIFO: 33 -32 0 0 34 56 0 0 35 56 0 0 36 56 0 0 37 56 0 0 38 56 0 0 39 56 0 0 40 56 0 0 41 56 0 0 42 56 0 0 43 56 0 0 44 56 0 0 45 56 0 0 46 56 0 0 47 56 0 0 48 56 0 0 49 56 0 0 50 56 0 0 51 64 0 0 52 56 0 0 53 56 0 0 55 56 0 0 56 48 0 0 58 56 0 0 65 54 0 0 66 56 0 0 67 56 0 0 68 56 0 0 69 61 0 0 70 66 0 0 71 56 0 0 72 56 0 0 73 56 0 0 75 56 0 0 76 56 0 0 77 56 0 0 78 56 0 0 79 56 0 0 80 56 0 0 81 56 0 0 82 56 0 0 83 55 0 0 84 68 0 0 85 56 0 0 86 56 0 0 87 75 0 0 88 79 0 0 89 56 0 0 90 53 0 0 129 -32 0 0 130 -32 0 0 131 -20 0 0 1022 67 0 0 1023 52 0 0 1024 68 0 0 1026 65 0 0 1027 64 0 0 1028 56 0 0 1029 73 0 0 1030 68 0 0 1032 56 0 0
EndChar
StartChar: K
Encoding: 75 75 43
Width: 722
Flags: MW
HStem: 0 20 709 20<74 224 224 224 509 686 686 686>
VStem: 74 150<0 244 409 729>
Fore
224 244 m 1
 224 0 l 1
 74 0 l 1
 74 729 l 1
 224 729 l 1
 224 409 l 1
 509 729 l 1
 686 729 l 1
 395 415 l 1
 717 0 l 1
 538 0 l 1
 299 322 l 1
 224 244 l 1
EndSplineSet
KernsSLIFO: 13 -44 0 0 34 68 0 0 35 -53 0 0 36 73 0 0 37 71 0 0 38 76 0 0 39 -55 0 0 40 82 0 0 41 87 0 0 43 76 0 0 44 70 0 0 45 84 0 0 46 82 0 0 47 -54 0 0 48 74 0 0 49 -60 0 0 50 70 0 0 51 -30 0 0 52 13 0 0 55 43 0 0 56 56 0 0 65 -3 0 0 66 91 0 0 67 -47 0 0 69 -25 0 0 70 49 0 0 72 83 0 0 73 83 0 0 74 66 0 0 75 91 0 0 76 83 0 0 77 88 0 0 78 85 0 0 79 -33 0 0 80 90 0 0 82 85 0 0 85 -23 0 0 86 -42 0 0 88 79 0 0 89 -65 0 0 90 114 0 0 144 -54 0 0 147 -54 0 0 161 -3 0 0 162 -3 0 0 176 -33 0 0 179 -33 0 0 185 -23 0 0 271 -44 0 0 1023 112 0 0 1032 -75 0 0
EndChar
StartChar: L
Encoding: 76 76 44
Width: 611
Flags: MW
HStem: 0 125<230 579> 709 20<80 230 230 230>
VStem: 80 150<125 729>
Fore
230 729 m 1
 230 125 l 1
 579 125 l 1
 579 0 l 1
 80 0 l 1
 80 729 l 1
 230 729 l 1
EndSplineSet
KernsSLIFO: 13 -12 0 0 33 9 0 0 35 -26 0 0 39 -30 0 0 47 -29 0 0 51 -2 0 0 52 -95 0 0 53 -24 0 0 54 -90 0 0 55 -68 0 0 57 -112 0 0 85 -7 0 0 86 -74 0 0 87 -60 0 0 89 -55 0 0 126 9 0 0 129 9 0 0 130 9 0 0 131 21 0 0 132 -26 0 0 143 -29 0 0 144 -29 0 0 145 -29 0 0 146 -29 0 0 147 -29 0 0 153 -24 0 0 185 -7 0 0 991 -138 0 0 994 -141 0 0 1025 -186 0 0 1028 -48 0 0 1032 -114 0 0
EndChar
StartChar: M
Encoding: 77 77 45
Width: 833
Flags: MW
HStem: 0 20 709 20<66 290 290 290 550 776 776 776>
VStem: 66 150<0 568> 626 150<0 568 568 568>
Fore
216 568 m 1
 216 0 l 1
 66 0 l 1
 66 729 l 1
 290 729 l 1
 422 149 l 1
 550 729 l 1
 776 729 l 1
 776 0 l 1
 626 0 l 1
 626 568 l 1
 497 0 l 1
 347 0 l 1
 216 568 l 1
EndSplineSet
KernsSLIFO: 33 70 0 0 34 56 0 0 35 63 0 0 36 56 0 0 37 56 0 0 38 56 0 0 39 64 0 0 40 56 0 0 41 56 0 0 42 56 0 0 43 56 0 0 44 56 0 0 45 56 0 0 46 56 0 0 47 66 0 0 48 56 0 0 49 63 0 0 50 56 0 0 51 77 0 0 52 98 0 0 53 56 0 0 54 57 0 0 55 73 0 0 56 80 0 0 57 56 0 0 58 78 0 0 65 76 0 0 66 56 0 0 67 65 0 0 68 70 0 0 69 77 0 0 70 98 0 0 71 66 0 0 72 56 0 0 73 56 0 0 74 42 0 0 75 56 0 0 76 56 0 0 77 56 0 0 78 56 0 0 79 63 0 0 80 56 0 0 81 71 0 0 82 56 0 0 83 71 0 0 84 81 0 0 85 56 0 0 86 82 0 0 87 94 0 0 88 95 0 0 89 87 0 0 90 88 0 0 1022 80 0 0 1023 80 0 0 1024 81 0 0 1025 56 0 0 1026 78 0 0 1027 77 0 0 1028 56 0 0 1029 86 0 0 1030 81 0 0 1032 56 0 0
EndChar
StartChar: N
Encoding: 78 78 46
Width: 722
Flags: MW
HStem: 0 20 709 20<68 222 222 222 511 661 661 661>
VStem: 68 150<0 504> 511 150<233 729>
Fore
511 0 m 1
 218 504 l 1
 218 0 l 1
 68 0 l 1
 68 729 l 1
 222 729 l 1
 511 233 l 1
 511 729 l 1
 661 729 l 1
 661 0 l 1
 511 0 l 1
EndSplineSet
KernsSLIFO: 12 15 0 0 14 16 0 0 33 -5 0 0 34 56 0 0 35 9 0 0 36 56 0 0 37 56 0 0 38 56 0 0 39 8 0 0 40 56 0 0 41 56 0 0 42 56 0 0 43 56 0 0 44 56 0 0 45 56 0 0 46 56 0 0 47 8 0 0 48 56 0 0 49 59 0 0 50 56 0 0 51 73 0 0 52 94 0 0 53 56 0 0 54 56 0 0 55 69 0 0 56 76 0 0 57 56 0 0 58 74 0 0 65 13 0 0 66 56 0 0 67 61 0 0 68 66 0 0 69 18 0 0 70 94 0 0 71 62 0 0 72 56 0 0 73 56 0 0 75 56 0 0 76 56 0 0 77 56 0 0 78 56 0 0 79 11 0 0 80 56 0 0 81 67 0 0 82 56 0 0 83 67 0 0 84 77 0 0 85 12 0 0 86 78 0 0 87 90 0 0 88 91 0 0 89 83 0 0 90 84 0 0 126 -5 0 0 129 -5 0 0 130 -5 0 0 131 7 0 0 132 9 0 0 144 8 0 0 147 8 0 0 158 13 0 0 161 13 0 0 162 13 0 0 163 13 0 0 166 18 0 0 176 11 0 0 179 11 0 0 181 11 0 0 185 12 0 0 1022 76 0 0 1023 76 0 0 1024 77 0 0 1025 56 0 0 1026 74 0 0 1027 73 0 0 1028 56 0 0 1029 82 0 0 1030 77 0 0 1032 56 0 0
EndChar
StartChar: O
Encoding: 79 79 47
Width: 778
Flags: MW
HStem: -23 128<339 443> 613 128<339 442.5>
VStem: 40 150<304.5 413.5> 592 150<302.5 411>
Fore
390 741 m 4
 495 741 576 709 640 640 c 4
 705 570 742 468 742 354 c 4
 742 251 703 145 640 78 c 4
 577 10 495 -23 391 -23 c 132
 287 -23 205 10 142 78 c 4
 77 147 40 250 40 359 c 132
 40 468 77 570 142 640 c 4
 204 707 288 741 390 741 c 4
391 613 m 4
 270 613 190 512 190 359 c 132
 190 206 270 105 391 105 c 4
 511 105 592 206 592 355 c 4
 592 513 514 613 391 613 c 4
EndSplineSet
KernsSLIFO: 33 -37 0 0 34 56 0 0 36 56 0 0 37 56 0 0 38 56 0 0 40 59 0 0 41 64 0 0 43 56 0 0 44 56 0 0 45 61 0 0 46 59 0 0 48 56 0 0 50 56 0 0 52 -20 0 0 54 -36 0 0 55 -21 0 0 56 -36 0 0 57 -59 0 0 65 47 0 0 66 68 0 0 70 50 0 0 72 60 0 0 73 60 0 0 74 56 0 0 75 68 0 0 76 60 0 0 77 67 0 0 78 64 0 0 80 69 0 0 82 64 0 0 84 50 0 0 85 56 0 0 88 59 0 0 90 74 0 0 126 -37 0 0 129 -37 0 0 130 -37 0 0 131 -26 0 0 1023 63 0 0 1030 42 0 0
EndChar
StartChar: P
Encoding: 80 80 48
Width: 667
Flags: MW
HStem: 0 20 260 125<226 366 366 406> 604 125<226 366 226 226>
VStem: 76 150<0 260 385 604> 483 150<457 531.5>
Fore
226 260 m 1
 226 0 l 1
 76 0 l 1
 76 729 l 1
 398 729 l 2
 550 729 633 649 633 503 c 0
 633 355 547 260 413 260 c 2
 226 260 l 1
226 385 m 1
 366 385 l 2
 446 385 483 420 483 494 c 0
 483 569 446 604 366 604 c 2
 226 604 l 1
 226 385 l 1
EndSplineSet
KernsSLIFO: 12 -94 0 0 14 -94 0 0 33 -65 0 0 42 -44 0 0 56 -69 0 0 57 -45 0 0 65 -7 0 0 69 -8 0 0 79 -14 0 0 126 -65 0 0 129 -65 0 0 130 -65 0 0 131 -54 0 0 158 -7 0 0 161 -7 0 0 162 -7 0 0 163 -8 0 0 166 -8 0 0 176 -14 0 0 179 -14 0 0 181 -17 0 0 272 -8 0 0
EndChar
StartChar: Q
Encoding: 81 81 49
Width: 778
Flags: MW
HStem: -23 128<342.5 409> 613 128<342 446>
VStem: 43 150<304.5 413.5> 595 150<328 414.5>
Fore
665 103 m 1
 745 27 l 1
 669 -54 l 1
 583 27 l 1
 525 -8 469 -23 394 -23 c 0
 291 -23 208 10 145 78 c 0
 81 147 43 250 43 359 c 128
 43 468 81 571 145 640 c 0
 208 708 290 741 394 741 c 128
 498 741 580 708 643 640 c 0
 707 571 745 468 745 361 c 0
 745 263 714 163 665 103 c 1
480 278 m 1
 562 200 l 1
 584 244 595 298 595 358 c 0
 595 513 516 613 394 613 c 0
 273 613 193 512 193 359 c 128
 193 206 273 105 393 105 c 0
 425 105 458 112 481 124 c 1
 404 197 l 1
 480 278 l 1
EndSplineSet
KernsSLIFO: 33 82 0 0 34 56 0 0 35 81 0 0 36 57 0 0 37 56 0 0 38 60 0 0 39 82 0 0 40 66 0 0 41 71 0 0 43 60 0 0 44 56 0 0 45 68 0 0 46 66 0 0 47 84 0 0 48 58 0 0 49 81 0 0 50 56 0 0 51 77 0 0 53 56 0 0 56 82 0 0 57 -41 0 0 58 91 0 0 65 84 0 0 66 75 0 0 67 76 0 0 68 81 0 0 69 87 0 0 70 96 0 0 71 76 0 0 72 67 0 0 73 67 0 0 74 64 0 0 75 75 0 0 76 67 0 0 77 74 0 0 78 71 0 0 79 75 0 0 80 76 0 0 81 83 0 0 82 71 0 0 83 76 0 0 84 95 0 0 85 71 0 0 86 72 0 0 87 84 0 0 88 98 0 0 89 77 0 0 90 106 0 0 1022 98 0 0 1023 96 0 0 1024 79 0 0 1025 49 0 0 1026 75 0 0 1027 95 0 0 1029 81 0 0 1030 88 0 0
EndChar
StartChar: R
Encoding: 82 82 50
Width: 722
Flags: MW
HStem: 0 20 289 125<230 402> 604 125<230 411 230 230>
VStem: 80 150<0 289 414 604> 517 150<493.5 528>
Fore
230 289 m 1
 230 0 l 1
 80 0 l 1
 80 729 l 1
 471 729 l 2
 533 729 579 713 612 679 c 0
 647 643 667 590 667 532 c 0
 667 443 626 384 544 352 c 1
 637 312 641 302 645 87 c 0
 645 55 654 40 677 27 c 1
 677 0 l 1
 516 0 l 1
 497 35 493 57 493 125 c 0
 493 136 493 154 494 173 c 0
 495 186 495 196 495 202 c 0
 495 263 467 289 402 289 c 2
 230 289 l 1
230 414 m 1
 411 414 l 2
 454 414 474 419 490 433 c 0
 507 448 517 476 517 511 c 0
 517 545 508 570 490 585 c 128
 472 600 454 604 411 604 c 2
 230 604 l 1
 230 414 l 1
EndSplineSet
KernsSLIFO: 13 15 0 0 33 87 0 0 34 56 0 0 35 -5 0 0 36 56 0 0 37 56 0 0 38 56 0 0 39 -6 0 0 40 56 0 0 41 59 0 0 43 56 0 0 44 56 0 0 45 56 0 0 46 56 0 0 47 -6 0 0 48 56 0 0 50 56 0 0 51 66 0 0 53 -4 0 0 54 -26 0 0 55 -17 0 0 56 80 0 0 57 -37 0 0 58 56 0 0 65 52 0 0 66 63 0 0 69 2 0 0 70 67 0 0 72 56 0 0 73 56 0 0 74 52 0 0 75 63 0 0 76 56 0 0 77 62 0 0 78 59 0 0 79 -4 0 0 80 64 0 0 82 59 0 0 83 40 0 0 84 64 0 0 85 52 0 0 86 75 0 0 87 88 0 0 88 106 0 0 89 5 0 0 90 98 0 0 132 -5 0 0 144 -6 0 0 147 -6 0 0 153 -4 0 0 166 2 0 0 176 -4 0 0 179 -4 0 0 271 3 0 0 272 1 0 0 1022 64 0 0 1023 90 0 0 1024 72 0 0 1025 44 0 0 1026 57 0 0 1027 57 0 0 1028 41 0 0 1029 68 0 0 1030 70 0 0 1032 46 0 0
EndChar
StartChar: S
Encoding: 83 83 51
Width: 667
Flags: MW
HStem: -23 120<291 387.5> 621 120<275.5 361.5>
VStem: 45 143<504.5 558.5> 489 144<164.5 224.5>
Fore
607 507 m 1
 467 507 l 1
 462 581 409 621 314 621 c 0
 237 621 188 586 188 531 c 0
 188 478 219 457 326 436 c 2
 440 414 l 2
 575 388 633 328 633 213 c 0
 633 65 522 -23 334 -23 c 0
 148 -23 41 62 32 218 c 1
 178 218 l 1
 183 140 240 97 342 97 c 0
 433 97 489 134 489 195 c 0
 489 254 452 282 352 301 c 2
 250 321 l 2
 102 349 45 404 45 517 c 0
 45 659 146 741 321 741 c 0
 426 741 507 712 556 658 c 0
 592 618 607 574 607 507 c 1
EndSplineSet
KernsSLIFO: 33 -20 0 0 34 56 0 0 36 56 0 0 37 56 0 0 38 56 0 0 40 62 0 0 41 67 0 0 43 56 0 0 44 56 0 0 45 64 0 0 46 62 0 0 48 56 0 0 50 56 0 0 51 56 0 0 52 -5 0 0 53 56 0 0 54 -31 0 0 55 -17 0 0 57 -43 0 0 58 53 0 0 65 81 0 0 66 71 0 0 67 54 0 0 68 54 0 0 69 54 0 0 70 80 0 0 71 62 0 0 72 63 0 0 73 63 0 0 74 60 0 0 75 71 0 0 76 63 0 0 77 70 0 0 78 67 0 0 79 53 0 0 80 72 0 0 81 57 0 0 82 67 0 0 83 72 0 0 84 1 0 0 85 72 0 0 88 73 0 0 90 67 0 0 126 -20 0 0 129 -20 0 0 130 -20 0 0 131 -8 0 0 1022 48 0 0 1023 65 0 0 1024 63 0 0 1026 67 0 0 1027 49 0 0 1028 48 0 0 1029 56 0 0 1030 68 0 0
EndChar
StartChar: T
Encoding: 84 84 52
Width: 611
Flags: MW
HStem: 0 20 604 125<14 235 385 598 385 385>
VStem: 235 150<0 604>
Fore
385 604 m 5
 385 0 l 5
 235 0 l 5
 235 604 l 5
 14 604 l 5
 14 729 l 5
 598 729 l 5
 598 604 l 5
 385 604 l 5
EndSplineSet
KernsSLIFO: 12 -67 0 0 13 -48 0 0 14 -67 0 0 26 -97 0 0 27 -98 0 0 33 -87 0 0 34 74 0 0 35 -20 0 0 36 79 0 0 37 77 0 0 38 82 0 0 39 -22 0 0 40 88 0 0 41 93 0 0 42 -87 0 0 43 82 0 0 44 76 0 0 45 90 0 0 46 88 0 0 47 -22 0 0 48 80 0 0 50 76 0 0 51 3 0 0 54 18 0 0 55 24 0 0 56 48 0 0 57 16 0 0 65 -73 0 0 66 97 0 0 67 -74 0 0 68 -99 0 0 69 -69 0 0 70 43 0 0 71 -75 0 0 72 89 0 0 73 -1 0 0 74 -3 0 0 75 97 0 0 76 89 0 0 77 -117 0 0 78 -120 0 0 79 -76 0 0 80 -115 0 0 81 -98 0 0 82 -71 0 0 83 -74 0 0 85 -72 0 0 86 -82 0 0 87 -77 0 0 88 -74 0 0 89 -80 0 0 90 -81 0 0 105 -101 0 0 125 -87 0 0 126 -87 0 0 127 -87 0 0 128 -87 0 0 129 -87 0 0 130 -87 0 0 131 -75 0 0 143 -22 0 0 144 -22 0 0 145 -22 0 0 146 -22 0 0 147 -22 0 0 149 -23 0 0 163 -73 0 0 181 -73 0 0 271 -11 0 0 1001 -98 0 0 1023 48 0 0 1025 -140 0 0 1032 -53 0 0
EndChar
StartChar: U
Encoding: 85 85 53
Width: 722
Flags: MW
HStem: -23 128<321 409> 709 20<76 226 226 226 504 654 654 654>
VStem: 76 150<235 729> 504 150<235 729>
Fore
504 729 m 1
 654 729 l 1
 654 235 l 2
 654 153 632 95 583 51 c 0
 530 3 453 -23 365 -23 c 128
 277 -23 200 3 147 51 c 0
 98 95 76 153 76 235 c 2
 76 729 l 1
 226 729 l 1
 226 235 l 2
 226 147 271 105 365 105 c 128
 459 105 504 147 504 235 c 2
 504 729 l 1
EndSplineSet
KernsSLIFO: 12 -7 0 0 14 -4 0 0 33 -34 0 0 34 56 0 0 36 56 0 0 37 56 0 0 38 56 0 0 40 56 0 0 41 56 0 0 42 56 0 0 43 56 0 0 44 56 0 0 45 56 0 0 46 56 0 0 48 56 0 0 50 56 0 0 51 56 0 0 53 56 0 0 56 48 0 0 58 56 0 0 65 53 0 0 66 56 0 0 67 56 0 0 68 56 0 0 69 56 0 0 70 68 0 0 71 56 0 0 72 56 0 0 73 56 0 0 75 56 0 0 76 56 0 0 77 6 0 0 78 5 0 0 79 56 0 0 80 7 0 0 81 56 0 0 82 5 0 0 83 49 0 0 84 68 0 0 85 56 0 0 87 56 0 0 88 61 0 0 90 55 0 0 126 -34 0 0 127 -34 0 0 128 -34 0 0 129 -34 0 0 130 -34 0 0 131 -22 0 0 1022 56 0 0 1023 53 0 0 1024 58 0 0 1026 63 0 0 1027 56 0 0 1028 56 0 0 1029 55 0 0 1030 63 0 0 1032 56 0 0
EndChar
StartChar: V
Encoding: 86 86 54
Width: 667
Flags: MW
HStem: 0 20 709 20<24 175 175 175 496 647 647 647>
Fore
397 0 m 1
 270 0 l 1
 24 729 l 1
 175 729 l 1
 337 180 l 1
 496 729 l 1
 647 729 l 1
 397 0 l 1
EndSplineSet
KernsSLIFO: 12 -69 0 0 13 -21 0 0 14 -69 0 0 26 -65 0 0 27 -67 0 0 33 -71 0 0 34 56 0 0 35 -36 0 0 36 56 0 0 37 56 0 0 38 56 0 0 39 -38 0 0 40 56 0 0 41 56 0 0 42 -84 0 0 43 56 0 0 44 56 0 0 45 56 0 0 46 56 0 0 47 -37 0 0 48 56 0 0 49 -46 0 0 50 56 0 0 51 -21 0 0 52 21 0 0 56 48 0 0 58 56 0 0 65 -47 0 0 66 58 0 0 67 -49 0 0 68 -45 0 0 69 -43 0 0 71 -49 0 0 72 56 0 0 73 -5 0 0 75 58 0 0 76 56 0 0 79 -50 0 0 81 -42 0 0 82 -34 0 0 85 -34 0 0 88 64 0 0 89 -10 0 0 90 45 0 0 105 -74 0 0 125 -71 0 0 126 -71 0 0 127 -71 0 0 128 -71 0 0 129 -71 0 0 130 -71 0 0 131 -59 0 0 143 -37 0 0 144 -37 0 0 145 -37 0 0 146 -37 0 0 147 -37 0 0 149 -31 0 0 163 -48 0 0 181 -48 0 0 1001 -72 0 0 1023 41 0 0 1025 -99 0 0
EndChar
StartChar: W
Encoding: 87 87 55
Width: 944
Flags: MW
HStem: 0 20 709 20<13 172 172 172 398 546 546 546 773 932 932 932>
Fore
730 0 m 1
 595 0 l 1
 473 569 l 1
 354 0 l 1
 219 0 l 1
 13 729 l 1
 172 729 l 1
 285 183 l 1
 398 729 l 1
 546 729 l 1
 664 182 l 1
 773 729 l 1
 932 729 l 1
 730 0 l 1
EndSplineSet
KernsSLIFO: 12 -45 0 0 13 -3 0 0 14 -45 0 0 26 -53 0 0 27 -54 0 0 33 -54 0 0 34 56 0 0 35 -20 0 0 36 56 0 0 37 56 0 0 38 57 0 0 39 -22 0 0 40 63 0 0 41 68 0 0 42 -42 0 0 43 57 0 0 44 56 0 0 45 65 0 0 46 63 0 0 47 -21 0 0 48 56 0 0 50 56 0 0 51 -12 0 0 52 25 0 0 56 73 0 0 58 56 0 0 65 -29 0 0 66 72 0 0 69 -24 0 0 71 -30 0 0 72 64 0 0 73 -1 0 0 74 61 0 0 75 72 0 0 76 64 0 0 79 -31 0 0 82 -24 0 0 85 -23 0 0 88 60 0 0 90 66 0 0 105 -55 0 0 125 -54 0 0 126 -54 0 0 127 -54 0 0 128 -54 0 0 129 -54 0 0 130 -54 0 0 131 -43 0 0 143 -21 0 0 144 -21 0 0 145 -21 0 0 146 -21 0 0 147 -21 0 0 149 -15 0 0 163 -29 0 0 181 -29 0 0 1001 -53 0 0 1023 62 0 0 1025 -69 0 0
EndChar
StartChar: X
Encoding: 88 88 56
Width: 667
Flags: MW
HStem: 0 20 709 20<30 208 208 208 470 644 644 644>
Fore
419 372 m 1
 653 0 l 1
 475 0 l 1
 335 253 l 1
 196 0 l 1
 22 0 l 1
 252 367 l 1
 30 729 l 1
 208 729 l 1
 336 489 l 1
 470 729 l 1
 644 729 l 1
 419 372 l 1
EndSplineSet
KernsSLIFO: 13 -27 0 0 33 56 0 0 34 63 0 0 35 -34 0 0 36 68 0 0 37 66 0 0 38 71 0 0 40 77 0 0 41 82 0 0 42 -57 0 0 43 71 0 0 44 65 0 0 45 79 0 0 46 77 0 0 47 -35 0 0 48 69 0 0 49 -37 0 0 50 65 0 0 53 47 0 0 54 47 0 0 55 70 0 0 56 86 0 0 65 -5 0 0 66 86 0 0 69 -25 0 0 70 55 0 0 72 78 0 0 73 78 0 0 74 75 0 0 75 86 0 0 76 78 0 0 77 82 0 0 78 79 0 0 79 -32 0 0 80 84 0 0 82 79 0 0 85 -25 0 0 88 106 0 0 89 -40 0 0 90 110 0 0 147 -35 0 0 1023 101 0 0
EndChar
StartChar: Y
Encoding: 89 89 57
Width: 667
Flags: MW
HStem: 0 20 709 20<27 194 194 194 482 650 650 650>
VStem: 269 150<0 270>
Fore
419 270 m 1
 419 0 l 1
 269 0 l 1
 269 270 l 1
 27 729 l 1
 194 729 l 1
 343 407 l 1
 482 729 l 1
 650 729 l 1
 419 270 l 1
EndSplineSet
KernsSLIFO: 12 -78 0 0 13 -50 0 0 14 -78 0 0 26 -81 0 0 27 -83 0 0 33 -86 0 0 34 56 0 0 35 -52 0 0 36 56 0 0 37 56 0 0 38 56 0 0 39 -54 0 0 40 56 0 0 41 58 0 0 42 -119 0 0 43 56 0 0 44 56 0 0 45 56 0 0 46 56 0 0 47 -54 0 0 48 56 0 0 49 -76 0 0 50 56 0 0 51 -29 0 0 52 22 0 0 65 -66 0 0 66 62 0 0 67 -89 0 0 68 -84 0 0 69 -63 0 0 71 -68 0 0 72 56 0 0 73 -3 0 0 74 41 0 0 75 62 0 0 76 56 0 0 79 -70 0 0 80 -45 0 0 81 -83 0 0 83 -85 0 0 85 -48 0 0 86 -27 0 0 105 -98 0 0 125 -86 0 0 126 -86 0 0 127 -86 0 0 128 -86 0 0 129 -86 0 0 130 -86 0 0 131 -74 0 0 143 -54 0 0 144 -54 0 0 145 -54 0 0 146 -54 0 0 147 -54 0 0 149 -47 0 0 163 -67 0 0 181 -67 0 0 1001 -96 0 0 1025 -172 0 0
EndChar
StartChar: Z
Encoding: 90 90 58
Width: 611
Flags: MW
HStem: 0 125<206 578> 604 125<30 403>
Fore
578 729 m 5
 578 604 l 5
 206 125 l 5
 578 125 l 5
 578 0 l 5
 30 0 l 5
 30 125 l 5
 403 604 l 5
 30 604 l 5
 30 729 l 5
 578 729 l 5
EndSplineSet
KernsSLIFO: 33 56 0 0 34 56 0 0 36 56 0 0 37 56 0 0 38 58 0 0 40 64 0 0 41 69 0 0 43 58 0 0 44 56 0 0 45 66 0 0 46 64 0 0 48 56 0 0 50 56 0 0 51 51 0 0 53 56 0 0 54 56 0 0 55 56 0 0 65 56 0 0 66 73 0 0 67 40 0 0 68 43 0 0 69 52 0 0 70 42 0 0 71 42 0 0 72 65 0 0 73 65 0 0 74 62 0 0 75 73 0 0 76 65 0 0 77 68 0 0 78 65 0 0 80 70 0 0 81 45 0 0 82 65 0 0 83 86 0 0 84 45 0 0 85 61 0 0 86 -11 0 0 87 67 0 0 88 56 0 0 89 -9 0 0 1022 64 0 0 1024 44 0 0 1025 -90 0 0 1026 78 0 0 1027 59 0 0 1029 74 0 0 1030 79 0 0
EndChar
StartChar: bracketleft
Encoding: 91 91 59
Width: 333
Flags: MW
HStem: -200 102<196 308> 627 102<196 308 196 196>
VStem: 66 130<-98 627>
Fore
308 729 m 1
 308 627 l 1
 196 627 l 1
 196 -98 l 1
 308 -98 l 1
 308 -200 l 1
 66 -200 l 1
 66 729 l 1
 308 729 l 1
EndSplineSet
EndChar
StartChar: backslash
Encoding: 92 92 60
Width: 278
Flags: MW
HStem: -14 20
Fore
55 714 m 1
 289 -14 l 1
 222 -14 l 1
 -12 714 l 1
 55 714 l 1
EndSplineSet
EndChar
StartChar: bracketright
Encoding: 93 93 61
Width: 333
Flags: MW
HStem: -200 102<18 130> 627 102<18 130>
VStem: 130 130<-98 627 627 627>
Fore
18 -200 m 1
 18 -98 l 1
 130 -98 l 1
 130 627 l 1
 18 627 l 1
 18 729 l 1
 260 729 l 1
 260 -200 l 1
 18 -200 l 1
EndSplineSet
EndChar
StartChar: asciicircum
Encoding: 94 94 62
Width: 584
Flags: W
Fore
522 270 m 1
 409 270 l 1
 288 570 l 1
 173 270 l 1
 61 270 l 1
 226 695 l 1
 351 695 l 1
 522 270 l 1
EndSplineSet
EndChar
StartChar: underscore
Encoding: 95 95 63
Width: 556
Flags: MW
HStem: -189 69<-22 578>
Fore
578 -120 m 1
 578 -189 l 1
 -22 -189 l 1
 -22 -120 l 1
 578 -120 l 1
EndSplineSet
EndChar
StartChar: grave
Encoding: 96 96 64
Width: 333
Flags: W
Fore
17 757 m 1
 143 757 l 1
 213 607 l 1
 143 607 l 1
 17 757 l 1
EndSplineSet
EndChar
StartChar: a
Encoding: 97 97 65
Width: 556
Flags: MW
HStem: -23 113<220.5 222> 436 113<239.5 301>
VStem: 28 140<135 176> 355 137<217 255 255 255 373 383>
Fore
524 17 m 5
 524 0 l 5
 372 0 l 5
 359 16 356 26 356 54 c 5
 307 3 252 -23 192 -23 c 4
 144 -23 97 -4 66 28 c 4
 41 55 28 93 28 139 c 4
 28 236 80 291 187 309 c 6
 243 319 l 6
 312 330 312 330 331 340 c 4
 346 348 355 364 355 382 c 4
 355 418 328 436 274 436 c 4
 205 436 182 418 175 362 c 5
 40 362 l 5
 49 487 125 549 271 549 c 132
 417 549 492 493 492 383 c 6
 492 83 l 6
 492 55 499 40 524 17 c 5
355 217 m 6
 355 255 l 5
 339 247 333 245 296 238 c 6
 248 229 l 6
 190 217 168 197 168 155 c 4
 168 115 197 90 244 90 c 4
 315 90 355 136 355 217 c 6
EndSplineSet
KernsSLIFO: 34 56 0 0 35 58 0 0 36 56 0 0 37 56 0 0 38 58 0 0 39 46 0 0 40 64 0 0 41 69 0 0 43 58 0 0 44 56 0 0 45 66 0 0 46 64 0 0 47 48 0 0 48 56 0 0 49 45 0 0 50 56 0 0 51 57 0 0 52 -103 0 0 54 -49 0 0 56 56 0 0 57 -110 0 0 66 73 0 0 70 72 0 0 72 65 0 0 73 65 0 0 74 -1 0 0 75 73 0 0 76 65 0 0 77 72 0 0 78 69 0 0 80 74 0 0 82 69 0 0 84 67 0 0 85 43 0 0 86 -19 0 0 87 -5 0 0 88 97 0 0 89 -17 0 0 90 104 0 0 991 -11 0 0 1022 66 0 0 1023 93 0 0 1024 65 0 0 1026 68 0 0 1027 63 0 0 1028 -48 0 0 1029 65 0 0 1030 60 0 0
EndChar
StartChar: b
Encoding: 98 98 66
Width: 611
Flags: MW
HStem: -23 117<314 351.5> 432 117<314.5 351.5> 709 20<59 199 199 199>
VStem: 59 140<0 55 213.5 314 470 729> 435 140<213 299.5>
Fore
59 729 m 1
 199 729 l 1
 199 470 l 1
 233 524 281 549 348 549 c 0
 414 549 480 515 517 462 c 0
 553 410 575 336 575 263 c 0
 575 100 477 -23 348 -23 c 0
 280 -23 233 2 199 55 c 1
 199 0 l 1
 59 0 l 1
 59 729 l 1
317 432 m 0
 247 432 199 363 199 265 c 0
 199 162 246 94 317 94 c 0
 386 94 435 164 435 262 c 0
 435 362 386 432 317 432 c 0
EndSplineSet
KernsSLIFO: 34 56 0 0 35 49 0 0 36 56 0 0 37 56 0 0 38 56 0 0 40 56 0 0 41 57 0 0 43 56 0 0 44 56 0 0 45 56 0 0 46 56 0 0 48 56 0 0 50 56 0 0 51 54 0 0 52 -115 0 0 53 56 0 0 54 -43 0 0 57 -110 0 0 65 44 0 0 66 61 0 0 68 56 0 0 70 56 0 0 71 56 0 0 72 56 0 0 73 56 0 0 74 50 0 0 75 61 0 0 76 56 0 0 77 60 0 0 78 57 0 0 80 62 0 0 81 56 0 0 82 57 0 0 83 41 0 0 84 55 0 0 85 59 0 0 86 -20 0 0 87 -7 0 0 89 -20 0 0 90 48 0 0 1022 63 0 0 1024 78 0 0 1026 77 0 0 1027 59 0 0 1028 -55 0 0 1029 70 0 0 1030 68 0 0
EndChar
StartChar: c
Encoding: 99 99 67
Width: 556
Flags: MW
HStem: -23 113<252.5 315> 436 113<268 316.5>
VStem: 34 140<206.5 284.5>
Fore
522 338 m 1
 388 338 l 1
 372 409 345 436 288 436 c 0
 248 436 217 420 201 390 c 0
 184 358 174 310 174 259 c 0
 174 154 217 90 288 90 c 0
 342 90 370 117 388 187 c 1
 522 187 l 1
 509 58 418 -23 287 -23 c 0
 127 -23 34 81 34 259 c 0
 34 443 128 549 289 549 c 0
 424 549 512 470 522 338 c 1
EndSplineSet
KernsSLIFO: 34 56 0 0 35 56 0 0 36 56 0 0 37 56 0 0 38 56 0 0 40 56 0 0 41 61 0 0 43 56 0 0 44 56 0 0 45 58 0 0 46 56 0 0 48 56 0 0 50 56 0 0 51 58 0 0 52 -111 0 0 53 56 0 0 57 -98 0 0 65 52 0 0 66 65 0 0 68 49 0 0 69 49 0 0 70 72 0 0 71 49 0 0 72 57 0 0 73 57 0 0 74 54 0 0 75 3 0 0 76 57 0 0 77 64 0 0 78 61 0 0 80 66 0 0 81 49 0 0 82 61 0 0 83 52 0 0 84 71 0 0 85 63 0 0 87 62 0 0 90 64 0 0 1022 73 0 0 1023 42 0 0 1024 69 0 0 1026 87 0 0 1027 70 0 0 1028 -81 0 0 1029 80 0 0 1030 80 0 0
EndChar
StartChar: d
Encoding: 100 100 68
Width: 611
Flags: MW
HStem: -23 117<252 289.5> 432 117<252 289.5> 709 20<405 545 545 545>
VStem: 29 140<225.5 312> 405 140<0 55 55 55 211 311.5 470 729>
Fore
405 0 m 1
 405 55 l 1
 370 2 323 -23 256 -23 c 0
 190 -23 124 11 87 63 c 0
 51 115 29 189 29 262 c 0
 29 425 127 549 256 549 c 0
 323 549 370 524 405 470 c 1
 405 729 l 1
 545 729 l 1
 545 0 l 1
 405 0 l 1
287 432 m 0
 217 432 169 362 169 262 c 0
 169 163 217 94 287 94 c 128
 357 94 405 162 405 260 c 0
 405 363 358 432 287 432 c 0
EndSplineSet
KernsSLIFO: 33 61 0 0 34 56 0 0 35 56 0 0 36 56 0 0 37 56 0 0 38 56 0 0 39 56 0 0 40 56 0 0 41 56 0 0 42 56 0 0 43 56 0 0 44 56 0 0 45 56 0 0 46 56 0 0 47 57 0 0 48 56 0 0 49 56 0 0 50 56 0 0 51 68 0 0 52 89 0 0 53 56 0 0 54 56 0 0 55 64 0 0 56 71 0 0 57 56 0 0 58 69 0 0 65 67 0 0 66 56 0 0 67 56 0 0 68 61 0 0 69 68 0 0 70 89 0 0 71 57 0 0 72 56 0 0 73 56 0 0 75 56 0 0 76 56 0 0 77 56 0 0 78 56 0 0 79 56 0 0 80 56 0 0 81 62 0 0 82 56 0 0 83 62 0 0 84 72 0 0 85 56 0 0 86 73 0 0 87 85 0 0 88 86 0 0 89 78 0 0 90 79 0 0 1022 71 0 0 1023 71 0 0 1024 72 0 0 1025 56 0 0 1026 69 0 0 1027 68 0 0 1028 56 0 0 1029 77 0 0 1030 72 0 0 1032 56 0 0
EndChar
StartChar: e
Encoding: 101 101 69
Width: 556
Flags: HMW
HStem: -23 107<254 299.5> 226 93<164 379> 442 107<239 287.5>
Fore
524 226 m 1
 162 226 l 1
 164 175 169 151 182 131 c 0
 202 101 234 84 274 84 c 0
 325 84 364 109 381 152 c 1
 519 152 l 1
 488 46 390 -23 269 -23 c 0
 116 -23 22 83 22 256 c 0
 22 437 117 549 272 549 c 0
 381 549 468 490 504 392 c 0
 517 354 525 304 525 250 c 0
 525 243 525 238 524 226 c 1
164 319 m 1
 379 319 l 1
 376 356 370 377 357 397 c 0
 337 425 305 442 270 442 c 0
 208 442 173 401 164 319 c 1
EndSplineSet
KernsSLIFO: 34 56 0 0 36 56 0 0 37 56 0 0 38 56 0 0 40 57 0 0 41 62 0 0 43 56 0 0 44 56 0 0 45 59 0 0 46 57 0 0 48 56 0 0 50 56 0 0 52 -110 0 0 53 56 0 0 54 -50 0 0 57 -105 0 0 66 66 0 0 70 61 0 0 72 58 0 0 73 58 0 0 74 55 0 0 75 66 0 0 76 58 0 0 77 65 0 0 78 62 0 0 80 67 0 0 82 62 0 0 84 -4 0 0 85 63 0 0 86 -19 0 0 87 -6 0 0 88 -21 0 0 89 -17 0 0 90 62 0 0 991 -12 0 0 1022 56 0 0 1023 45 0 0 1027 53 0 0 1028 -79 0 0 1029 63 0 0 1030 76 0 0
EndChar
StartChar: f
Encoding: 102 102 70
Width: 333
Flags: MW
HStem: 0 20 436 93<14 90 230 313> 624 105
VStem: 90 140<0 436 529 582>
Fore
313 529 m 1
 313 436 l 1
 230 436 l 1
 230 0 l 1
 90 0 l 1
 90 436 l 1
 14 436 l 1
 14 529 l 1
 90 529 l 1
 90 594 l 2
 90 685 135 729 228 729 c 0
 247 729 282 728 308 726 c 1
 308 621 l 1
 296 623 280 624 268 624 c 0
 242 624 230 610 230 582 c 2
 230 529 l 1
 313 529 l 1
EndSplineSet
KernsSLIFO: 34 66 0 0 35 53 0 0 36 71 0 0 37 69 0 0 38 74 0 0 39 51 0 0 40 80 0 0 41 85 0 0 43 74 0 0 44 68 0 0 45 82 0 0 46 80 0 0 47 50 0 0 48 72 0 0 49 50 0 0 50 68 0 0 51 85 0 0 52 51 0 0 53 58 0 0 54 50 0 0 55 50 0 0 56 97 0 0 57 50 0 0 58 91 0 0 65 1 0 0 66 89 0 0 67 52 0 0 68 54 0 0 69 -3 0 0 70 21 0 0 71 50 0 0 72 81 0 0 73 -3 0 0 74 -6 0 0 75 89 0 0 76 -3 0 0 77 89 0 0 78 86 0 0 79 -9 0 0 80 91 0 0 81 56 0 0 82 86 0 0 83 -1 0 0 84 21 0 0 85 70 0 0 86 66 0 0 87 89 0 0 88 58 0 0 89 62 0 0 90 92 0 0 158 1 0 0 161 1 0 0 162 1 0 0 166 -3 0 0 176 -9 0 0 179 -9 0 0 181 -9 0 0 272 -3 0 0 991 10 0 0 1022 94 0 0 1023 90 0 0 1024 91 0 0 1026 67 0 0 1027 90 0 0 1029 64 0 0 1030 97 0 0 1032 67 0 0
EndChar
StartChar: g
Encoding: 103 103 71
Width: 611
Flags: MW
HStem: -218 90<262.5 324> -23 117<253 286.5> 432 117<254 289>
VStem: 34 140<210 310> 408 133<-18 55 55 55 457 540>
Fore
408 540 m 5
 541 540 l 5
 541 -18 l 6
 541 -145 447 -218 284 -218 c 4
 201 -218 141 -201 98 -166 c 4
 62 -136 46 -107 45 -65 c 5
 190 -65 l 5
 201 -106 236 -128 289 -128 c 4
 359 -128 408 -83 408 -18 c 6
 408 55 l 5
 356 -4 318 -23 255 -23 c 4
 122 -23 34 89 34 257 c 4
 34 424 130 549 258 549 c 4
 320 549 366 521 408 457 c 5
 408 540 l 5
288 432 m 4
 220 432 174 361 174 259 c 4
 174 161 220 94 286 94 c 4
 359 94 410 161 410 259 c 4
 410 359 358 432 288 432 c 4
EndSplineSet
KernsSLIFO: 33 57 0 0 34 56 0 0 35 56 0 0 36 56 0 0 37 56 0 0 38 56 0 0 39 56 0 0 40 56 0 0 41 56 0 0 42 56 0 0 43 56 0 0 44 56 0 0 45 56 0 0 46 56 0 0 47 56 0 0 48 56 0 0 49 56 0 0 50 56 0 0 51 64 0 0 52 -136 0 0 53 56 0 0 56 64 0 0 58 56 0 0 65 3 0 0 66 56 0 0 67 56 0 0 68 57 0 0 69 8 0 0 70 85 0 0 71 62 0 0 72 56 0 0 73 56 0 0 75 56 0 0 76 56 0 0 77 56 0 0 78 56 0 0 79 56 0 0 80 56 0 0 81 58 0 0 82 1 0 0 83 58 0 0 84 68 0 0 85 56 0 0 86 69 0 0 87 81 0 0 88 82 0 0 89 74 0 0 90 75 0 0 161 3 0 0 162 3 0 0 163 3 0 0 166 8 0 0 176 1 0 0 179 1 0 0 1022 67 0 0 1023 67 0 0 1024 68 0 0 1025 56 0 0 1026 65 0 0 1027 64 0 0 1028 -45 0 0 1029 73 0 0 1030 68 0 0 1032 56 0 0
EndChar
StartChar: h
Encoding: 104 104 72
Width: 611
Flags: MW
HStem: 0 20 430 119 709 20<67 207 207 207>
VStem: 67 140<0 324 462 729> 401 140<0 330 330 347.5>
Fore
67 729 m 5
 207 729 l 5
 207 462 l 5
 246 521 296 549 365 549 c 4
 410 549 455 534 486 508 c 4
 523 477 541 429 541 362 c 6
 541 0 l 5
 401 0 l 5
 401 330 l 6
 401 365 397 379 385 397 c 4
 369 419 345 430 315 430 c 4
 252 430 207 386 207 324 c 6
 207 0 l 5
 67 0 l 5
 67 729 l 5
EndSplineSet
KernsSLIFO: 33 56 0 0 34 56 0 0 35 56 0 0 36 56 0 0 37 56 0 0 38 56 0 0 39 56 0 0 40 56 0 0 41 56 0 0 43 56 0 0 44 56 0 0 45 56 0 0 46 56 0 0 47 56 0 0 48 56 0 0 49 56 0 0 50 56 0 0 51 56 0 0 52 -136 0 0 53 56 0 0 54 -59 0 0 56 56 0 0 57 -124 0 0 58 56 0 0 65 63 0 0 66 56 0 0 67 56 0 0 68 56 0 0 69 56 0 0 70 59 0 0 71 56 0 0 72 56 0 0 73 56 0 0 75 56 0 0 76 56 0 0 77 56 0 0 78 56 0 0 79 56 0 0 80 56 0 0 81 56 0 0 82 56 0 0 83 58 0 0 84 57 0 0 85 56 0 0 88 83 0 0 89 -21 0 0 90 71 0 0 991 -14 0 0 1022 68 0 0 1023 61 0 0 1024 65 0 0 1025 56 0 0 1026 60 0 0 1027 66 0 0 1028 -45 0 0 1029 68 0 0 1030 59 0 0
EndChar
StartChar: i
Encoding: 105 105 73
Width: 278
Flags: HMW
HStem: 0 20 604 125<67 207>
VStem: 67 140<0 540 604 729>
Fore
207 729 m 1
 207 604 l 1
 67 604 l 1
 67 729 l 1
 207 729 l 1
EndSplineSet
Refer: 238 305 N 1 0 0 1 0 0 2
KernsSLIFO: 33 56 0 0 34 56 0 0 35 56 0 0 36 56 0 0 37 56 0 0 38 56 0 0 39 56 0 0 40 56 0 0 41 56 0 0 42 56 0 0 43 56 0 0 44 56 0 0 45 56 0 0 46 56 0 0 47 56 0 0 48 56 0 0 49 56 0 0 50 56 0 0 51 63 0 0 52 -4 0 0 53 56 0 0 54 56 0 0 55 59 0 0 56 66 0 0 57 56 0 0 58 64 0 0 65 62 0 0 66 56 0 0 67 56 0 0 68 56 0 0 69 63 0 0 70 84 0 0 71 56 0 0 72 56 0 0 73 56 0 0 74 -2 0 0 75 56 0 0 76 56 0 0 77 56 0 0 78 56 0 0 79 56 0 0 80 56 0 0 81 57 0 0 82 56 0 0 83 57 0 0 84 67 0 0 85 56 0 0 86 68 0 0 87 80 0 0 88 81 0 0 89 73 0 0 90 74 0 0 1022 66 0 0 1023 66 0 0 1024 67 0 0 1025 56 0 0 1026 64 0 0 1027 63 0 0 1028 -46 0 0 1029 72 0 0 1030 67 0 0 1032 56 0 0
Substitution: 0 65534 's001' dotlessi
EndChar
StartChar: j
Encoding: 106 106 74
Width: 278
Flags: HMW
HStem: -218 20 604 125<70 210>
VStem: 70 140<-63 540 604 729>
Fore
210 729 m 1
 210 604 l 1
 70 604 l 1
 70 729 l 1
 210 729 l 1
EndSplineSet
Refer: 1113 63166 N 1 0 0 1 0 0 2
KernsSLIFO: 33 59 0 0 34 56 0 0 35 56 0 0 36 56 0 0 37 56 0 0 38 56 0 0 39 56 0 0 40 56 0 0 41 56 0 0 42 56 0 0 43 56 0 0 44 56 0 0 45 56 0 0 46 56 0 0 47 56 0 0 48 56 0 0 49 56 0 0 50 56 0 0 51 66 0 0 52 87 0 0 53 56 0 0 54 56 0 0 55 62 0 0 56 69 0 0 57 56 0 0 58 67 0 0 65 65 0 0 66 56 0 0 67 56 0 0 68 59 0 0 69 66 0 0 70 87 0 0 71 64 0 0 72 56 0 0 73 56 0 0 75 56 0 0 76 56 0 0 77 56 0 0 78 56 0 0 79 56 0 0 80 56 0 0 81 60 0 0 82 56 0 0 83 60 0 0 84 70 0 0 85 56 0 0 86 71 0 0 87 83 0 0 88 84 0 0 89 76 0 0 90 77 0 0 1022 69 0 0 1023 69 0 0 1024 70 0 0 1025 56 0 0 1026 67 0 0 1027 66 0 0 1028 -43 0 0 1029 75 0 0 1030 70 0 0 1032 56 0 0
Substitution: 0 65534 's001' uniF6BE
EndChar
StartChar: k
Encoding: 107 107 75
Width: 556
Flags: MW
HStem: 0 20 709 20<59 199 199 199>
VStem: 59 140<0 177 330 729>
Fore
199 330 m 1
 376 540 l 1
 535 540 l 1
 351 336 l 1
 548 0 l 1
 384 0 l 1
 255 238 l 1
 199 177 l 1
 199 0 l 1
 59 0 l 1
 59 729 l 1
 199 729 l 1
 199 330 l 1
EndSplineSet
KernsSLIFO: 12 7 0 0 13 -25 0 0 14 6 0 0 33 116 0 0 34 77 0 0 35 58 0 0 36 82 0 0 37 80 0 0 38 85 0 0 39 55 0 0 40 91 0 0 41 96 0 0 43 85 0 0 44 79 0 0 45 93 0 0 46 91 0 0 47 56 0 0 48 83 0 0 49 52 0 0 50 79 0 0 51 88 0 0 52 -76 0 0 53 56 0 0 55 58 0 0 56 116 0 0 58 56 0 0 65 -2 0 0 66 100 0 0 69 -15 0 0 70 69 0 0 71 -21 0 0 72 92 0 0 73 92 0 0 74 89 0 0 75 100 0 0 76 92 0 0 77 99 0 0 78 96 0 0 79 -22 0 0 80 101 0 0 82 96 0 0 83 -10 0 0 84 60 0 0 85 -1 0 0 86 105 0 0 87 120 0 0 88 113 0 0 89 104 0 0 90 135 0 0 158 -2 0 0 161 -2 0 0 162 -2 0 0 163 1 0 0 166 -15 0 0 176 -22 0 0 179 -22 0 0 185 -1 0 0 1022 86 0 0 1023 127 0 0 1024 94 0 0 1026 59 0 0 1027 78 0 0 1029 90 0 0 1030 98 0 0 1032 54 0 0
EndChar
StartChar: l
Encoding: 108 108 76
Width: 278
Flags: MW
HStem: 0 20 709 20<67 207 207 207>
VStem: 67 140<0 729>
Fore
207 729 m 1
 207 0 l 1
 67 0 l 1
 67 729 l 1
 207 729 l 1
EndSplineSet
KernsSLIFO: 33 56 0 0 34 56 0 0 35 56 0 0 36 56 0 0 37 56 0 0 38 56 0 0 39 56 0 0 40 56 0 0 41 56 0 0 42 56 0 0 43 56 0 0 44 56 0 0 45 56 0 0 46 56 0 0 47 56 0 0 48 56 0 0 49 56 0 0 50 56 0 0 51 63 0 0 52 84 0 0 53 56 0 0 54 56 0 0 55 59 0 0 56 66 0 0 57 56 0 0 58 64 0 0 65 62 0 0 66 56 0 0 67 56 0 0 68 56 0 0 69 63 0 0 70 84 0 0 71 56 0 0 72 56 0 0 73 56 0 0 75 56 0 0 76 56 0 0 77 56 0 0 78 56 0 0 79 56 0 0 80 56 0 0 81 57 0 0 82 56 0 0 83 57 0 0 84 67 0 0 85 56 0 0 86 -5 0 0 87 80 0 0 88 81 0 0 89 -2 0 0 90 74 0 0 1022 66 0 0 1023 66 0 0 1024 67 0 0 1025 56 0 0 1026 64 0 0 1027 63 0 0 1028 56 0 0 1029 72 0 0 1030 67 0 0 1032 56 0 0
EndChar
StartChar: m
Encoding: 109 109 77
Width: 889
Flags: W
HStem: 0 20 430 119<316 319.5 618 631.5> 520 20<60 199 199 199>
VStem: 60 139<473 540> 60 140<0 324> 60 139 372 140<0 324> 684 140<0 360 360 381.5>
Fore
60 540 m 1
 199 540 l 1
 199 473 l 1
 245 528 285 549 347 549 c 0
 414 549 468 520 494 469 c 1
 536 525 584 549 652 549 c 0
 760 549 824 487 824 382 c 2
 824 0 l 1
 684 0 l 1
 684 360 l 2
 684 403 655 430 608 430 c 0
 548 430 512 390 512 324 c 2
 512 0 l 1
 372 0 l 1
 372 360 l 2
 372 403 343 430 296 430 c 0
 236 430 200 390 200 324 c 2
 200 0 l 1
 60 0 l 1
 60 540 l 1
EndSplineSet
KernsSLIFO: 33 56 0 0 34 56 0 0 35 56 0 0 36 56 0 0 37 56 0 0 38 56 0 0 39 56 0 0 40 56 0 0 41 56 0 0 43 56 0 0 44 56 0 0 45 56 0 0 46 56 0 0 47 56 0 0 48 56 0 0 49 56 0 0 50 56 0 0 51 56 0 0 52 -131 0 0 53 56 0 0 54 -48 0 0 56 69 0 0 57 -110 0 0 65 68 0 0 66 56 0 0 67 56 0 0 68 62 0 0 69 56 0 0 70 66 0 0 71 58 0 0 72 56 0 0 73 56 0 0 75 56 0 0 76 56 0 0 77 56 0 0 78 56 0 0 79 56 0 0 80 6 0 0 81 63 0 0 82 56 0 0 83 63 0 0 84 64 0 0 85 56 0 0 86 -19 0 0 87 -6 0 0 88 76 0 0 89 -18 0 0 90 76 0 0 1022 63 0 0 1023 66 0 0 1024 71 0 0 1025 56 0 0 1026 65 0 0 1027 60 0 0 1028 -48 0 0 1029 70 0 0 1030 65 0 0
EndChar
StartChar: n
Encoding: 110 110 78
Width: 611
Flags: W
HStem: 0 20 430 119<328.5 346> 520 20<63 203 203 203>
VStem: 63 140<0 324 462 540> 406 140<0 333 333 362>
Fore
63 540 m 1
 203 540 l 1
 203 462 l 1
 243 522 292 549 365 549 c 4
 480 549 546 481 546 362 c 6
 546 0 l 5
 406 0 l 5
 406 333 l 6
 406 397 376 430 316 430 c 4
 248 430 203 388 203 324 c 2
 203 0 l 1
 63 0 l 1
 63 540 l 1
EndSplineSet
KernsSLIFO: 33 56 0 0 34 56 0 0 35 56 0 0 36 56 0 0 37 56 0 0 38 56 0 0 39 56 0 0 40 56 0 0 41 56 0 0 43 56 0 0 44 56 0 0 45 56 0 0 46 56 0 0 47 56 0 0 48 56 0 0 49 56 0 0 50 56 0 0 51 56 0 0 52 -80 0 0 53 56 0 0 54 -54 0 0 56 56 0 0 57 -119 0 0 65 67 0 0 66 56 0 0 67 56 0 0 68 56 0 0 69 56 0 0 70 63 0 0 71 57 0 0 72 56 0 0 73 56 0 0 75 56 0 0 76 56 0 0 77 56 0 0 78 56 0 0 79 56 0 0 80 5 0 0 81 57 0 0 82 56 0 0 83 62 0 0 84 61 0 0 85 56 0 0 86 -20 0 0 87 -7 0 0 88 88 0 0 89 -19 0 0 90 76 0 0 991 -12 0 0 1022 73 0 0 1023 66 0 0 1024 70 0 0 1025 56 0 0 1026 65 0 0 1027 71 0 0 1028 -48 0 0 1029 73 0 0 1030 64 0 0
EndChar
StartChar: o
Encoding: 111 111 79
Width: 611
Flags: MW
HStem: -23 113<264 339.5> 436 113<264 340.5>
VStem: 35 140<211.5 314.5> 429 140<210.5 314>
Fore
301 549 m 4
 470 549 569 442 569 259 c 4
 569 86 466 -23 302 -23 c 4
 136 -23 35 85 35 263 c 4
 35 440 136 549 301 549 c 4
302 436 m 4
 226 436 175 366 175 263 c 132
 175 160 226 90 302 90 c 4
 377 90 429 160 429 261 c 4
 429 367 379 436 302 436 c 4
EndSplineSet
KernsSLIFO: 34 56 0 0 36 56 0 0 37 56 0 0 38 56 0 0 40 56 0 0 41 56 0 0 43 56 0 0 44 56 0 0 45 56 0 0 46 56 0 0 48 56 0 0 50 56 0 0 51 54 0 0 52 -84 0 0 53 56 0 0 54 -56 0 0 57 -117 0 0 66 56 0 0 70 49 0 0 72 56 0 0 73 56 0 0 74 43 0 0 75 56 0 0 76 56 0 0 77 56 0 0 78 56 0 0 80 56 0 0 82 56 0 0 84 -8 0 0 85 56 0 0 86 -23 0 0 87 -10 0 0 88 -25 0 0 89 -22 0 0 90 41 0 0 991 -17 0 0 1022 53 0 0 1024 66 0 0 1026 70 0 0 1027 54 0 0 1028 -88 0 0 1029 56 0 0 1030 61 0 0
EndChar
StartChar: p
Encoding: 112 112 80
Width: 611
Flags: MW
HStem: -218 20 -24 117<314 350.5> 432 117<314 351.5>
VStem: 58 140<-218 64 211.5 312.5 460 540> 434 140<211 300>
Fore
198 540 m 1
 198 460 l 1
 232 520 280 549 348 549 c 0
 413 549 480 515 516 464 c 0
 552 414 574 338 574 262 c 0
 574 98 478 -24 348 -24 c 0
 280 -24 232 4 198 64 c 1
 198 -218 l 1
 58 -218 l 1
 58 540 l 1
 198 540 l 1
316 432 m 0
 246 432 198 363 198 262 c 128
 198 161 246 93 316 93 c 0
 385 93 434 162 434 260 c 0
 434 363 387 432 316 432 c 0
EndSplineSet
KernsSLIFO: 34 56 0 0 35 48 0 0 36 56 0 0 37 56 0 0 38 56 0 0 40 56 0 0 41 56 0 0 43 56 0 0 44 56 0 0 45 56 0 0 46 56 0 0 48 56 0 0 50 56 0 0 51 54 0 0 52 -116 0 0 53 56 0 0 54 -41 0 0 57 -110 0 0 65 44 0 0 66 60 0 0 68 56 0 0 70 57 0 0 71 56 0 0 72 56 0 0 73 56 0 0 74 49 0 0 75 60 0 0 76 56 0 0 77 59 0 0 78 56 0 0 80 61 0 0 81 56 0 0 82 56 0 0 83 42 0 0 84 -5 0 0 85 58 0 0 87 52 0 0 89 -20 0 0 90 49 0 0 1022 67 0 0 1024 78 0 0 1026 77 0 0 1027 63 0 0 1028 -88 0 0 1029 73 0 0 1030 67 0 0
EndChar
StartChar: q
Encoding: 113 113 81
Width: 611
Flags: MW
HStem: -218 20 -24 117<251 287> 432 117<251 287.5>
VStem: 28 140<224 312.5> 404 140<-218 64 64 64 210 311.5 460 540>
Fore
404 540 m 1
 544 540 l 1
 544 -218 l 1
 404 -218 l 1
 404 64 l 1
 371 5 321 -24 253 -24 c 0
 189 -24 122 10 86 61 c 0
 50 110 28 186 28 262 c 0
 28 427 124 549 254 549 c 0
 321 549 371 519 404 460 c 1
 404 540 l 1
286 432 m 0
 216 432 168 363 168 262 c 128
 168 161 216 93 286 93 c 128
 356 93 404 161 404 259 c 0
 404 364 357 432 286 432 c 0
EndSplineSet
KernsSLIFO: 33 60 0 0 34 56 0 0 35 56 0 0 36 56 0 0 37 56 0 0 38 56 0 0 39 56 0 0 40 56 0 0 41 56 0 0 42 56 0 0 43 56 0 0 44 56 0 0 45 56 0 0 46 56 0 0 47 56 0 0 48 56 0 0 49 56 0 0 50 56 0 0 51 67 0 0 52 -133 0 0 53 56 0 0 56 67 0 0 58 56 0 0 65 66 0 0 66 56 0 0 67 4 0 0 68 60 0 0 69 67 0 0 70 88 0 0 71 65 0 0 72 56 0 0 73 56 0 0 74 98 0 0 75 56 0 0 76 56 0 0 77 56 0 0 78 56 0 0 79 56 0 0 80 56 0 0 81 61 0 0 82 56 0 0 83 61 0 0 84 71 0 0 85 4 0 0 86 72 0 0 87 84 0 0 88 85 0 0 89 81 0 0 90 78 0 0 1022 70 0 0 1023 70 0 0 1024 71 0 0 1025 56 0 0 1026 68 0 0 1027 67 0 0 1028 -42 0 0 1029 76 0 0 1030 71 0 0 1032 56 0 0
EndChar
StartChar: r
Encoding: 114 114 82
Width: 389
Flags: W
HStem: 0 20 410 139<321 333.5> 520 20<63 203 203 203>
VStem: 63 140<0 287 434 540>
Fore
63 540 m 1
 203 540 l 1
 203 434 l 1
 233 507 289 549 353 549 c 0
 357 549 362 549 370 548 c 1
 370 406 l 1
 351 409 341 410 326 410 c 0
 244 410 203 369 203 287 c 2
 203 0 l 1
 63 0 l 1
 63 540 l 1
EndSplineSet
KernsSLIFO: 12 -57 0 0 13 -35 0 0 14 -57 0 0 26 -27 0 0 27 -27 0 0 34 56 0 0 36 56 0 0 37 56 0 0 38 59 0 0 40 65 0 0 41 70 0 0 42 -54 0 0 43 59 0 0 44 56 0 0 45 67 0 0 46 65 0 0 48 57 0 0 50 56 0 0 51 43 0 0 52 -102 0 0 53 56 0 0 58 -55 0 0 65 6 0 0 66 74 0 0 69 4 0 0 70 22 0 0 71 -2 0 0 72 -4 0 0 73 -4 0 0 74 -6 0 0 75 74 0 0 76 -4 0 0 77 -1 0 0 78 -2 0 0 79 -1 0 0 80 75 0 0 81 1 0 0 82 -2 0 0 83 3 0 0 84 22 0 0 85 66 0 0 86 21 0 0 87 26 0 0 88 17 0 0 89 23 0 0 90 9 0 0 157 6 0 0 158 6 0 0 159 6 0 0 161 6 0 0 162 6 0 0 163 4 0 0 165 4 0 0 166 4 0 0 167 4 0 0 175 -1 0 0 176 -1 0 0 177 -1 0 0 179 -1 0 0 181 -4 0 0 272 5 0 0 991 14 0 0 1022 55 0 0 1023 84 0 0 1024 47 0 0 1026 51 0 0 1027 54 0 0 1028 -121 0 0 1030 56 0 0 1032 56 0 0
EndChar
StartChar: s
Encoding: 115 115 83
Width: 556
Flags: MW
HStem: -23 110<258 308.5> 439 110<244.5 302.5>
VStem: 48 140<378 404> 380 140<133.5 151>
Fore
505 366 m 1
 370 366 l 1
 369 415 336 439 269 439 c 0
 220 439 188 419 188 389 c 0
 188 367 198 359 237 347 c 2
 414 296 l 2
 485 275 520 230 520 160 c 0
 520 107 496 57 456 25 c 128
 416 -7 359 -23 284 -23 c 0
 120 -23 33 39 29 157 c 1
 166 157 l 1
 172 128 178 117 193 106 c 0
 211 94 240 87 276 87 c 0
 341 87 380 107 380 140 c 0
 380 162 368 173 333 184 c 2
 166 236 l 2
 114 253 97 262 78 281 c 0
 59 302 48 333 48 369 c 0
 48 480 133 549 270 549 c 0
 415 549 503 480 505 366 c 1
EndSplineSet
KernsSLIFO: 34 56 0 0 35 41 0 0 36 56 0 0 37 56 0 0 38 56 0 0 39 41 0 0 40 56 0 0 41 60 0 0 43 56 0 0 44 56 0 0 45 57 0 0 46 56 0 0 47 41 0 0 48 56 0 0 49 41 0 0 50 56 0 0 51 73 0 0 52 -112 0 0 53 51 0 0 54 -44 0 0 57 -111 0 0 65 55 0 0 66 64 0 0 68 46 0 0 70 69 0 0 71 49 0 0 72 56 0 0 73 56 0 0 74 53 0 0 75 64 0 0 76 56 0 0 77 63 0 0 78 60 0 0 80 65 0 0 81 47 0 0 82 60 0 0 83 56 0 0 84 -1 0 0 85 60 0 0 87 49 0 0 90 65 0 0 991 -12 0 0 1022 75 0 0 1023 52 0 0 1024 81 0 0 1026 100 0 0 1027 72 0 0 1028 -75 0 0 1029 85 0 0 1030 46 0 0
EndChar
StartChar: t
Encoding: 116 116 84
Width: 333
Flags: MW
HStem: -23 106 436 93<14 83 223 301>
VStem: 83 140<118 142 142 436 529 674>
Fore
301 529 m 1
 301 436 l 1
 223 436 l 1
 223 142 l 2
 223 94 232 83 269 83 c 0
 279 83 287 84 301 86 c 1
 301 -12 l 1
 276 -20 251 -23 220 -23 c 0
 128 -23 83 19 83 104 c 2
 83 436 l 1
 14 436 l 1
 14 529 l 1
 83 529 l 1
 83 674 l 1
 223 674 l 1
 223 529 l 1
 301 529 l 1
EndSplineSet
KernsSLIFO: 26 -25 0 0 27 -25 0 0 33 68 0 0 34 56 0 0 35 67 0 0 36 60 0 0 37 58 0 0 38 63 0 0 39 67 0 0 40 69 0 0 41 74 0 0 43 63 0 0 44 57 0 0 45 71 0 0 46 69 0 0 47 68 0 0 48 61 0 0 49 65 0 0 50 57 0 0 51 78 0 0 53 56 0 0 56 102 0 0 58 90 0 0 65 6 0 0 66 78 0 0 67 51 0 0 68 54 0 0 69 -3 0 0 70 106 0 0 71 51 0 0 72 2 0 0 73 70 0 0 74 67 0 0 75 78 0 0 76 70 0 0 77 77 0 0 78 74 0 0 79 -10 0 0 80 79 0 0 81 57 0 0 82 74 0 0 83 77 0 0 84 103 0 0 85 77 0 0 86 64 0 0 87 82 0 0 88 108 0 0 89 68 0 0 90 106 0 0 158 6 0 0 161 6 0 0 162 6 0 0 163 7 0 0 166 -3 0 0 176 -10 0 0 179 -10 0 0 991 4 0 0 1022 87 0 0 1023 99 0 0 1024 85 0 0 1026 71 0 0 1027 83 0 0 1029 72 0 0 1030 91 0 0 1032 56 0 0
EndChar
StartChar: u
Encoding: 117 117 85
Width: 611
Flags: MW
HStem: -23 119<258 275.5> 520 20<58 198 198 198 401 541 541 541>
VStem: 58 140<164 193 193 540> 401 140<0 64 64 64 202 540>
Fore
541 0 m 5
 401 0 l 5
 401 64 l 5
 361 4 312 -23 239 -23 c 4
 124 -23 58 45 58 164 c 6
 58 540 l 5
 198 540 l 5
 198 193 l 6
 198 128 228 96 288 96 c 4
 356 96 401 138 401 202 c 6
 401 540 l 5
 541 540 l 5
 541 0 l 5
EndSplineSet
KernsSLIFO: 33 57 0 0 34 56 0 0 35 56 0 0 36 56 0 0 37 56 0 0 38 56 0 0 39 56 0 0 40 56 0 0 41 56 0 0 42 56 0 0 43 56 0 0 44 56 0 0 45 56 0 0 46 56 0 0 47 56 0 0 48 56 0 0 49 56 0 0 50 56 0 0 51 64 0 0 52 -136 0 0 53 56 0 0 56 64 0 0 58 56 0 0 65 63 0 0 66 56 0 0 67 56 0 0 68 57 0 0 69 64 0 0 70 85 0 0 71 56 0 0 72 56 0 0 73 56 0 0 75 56 0 0 76 56 0 0 77 56 0 0 78 56 0 0 79 56 0 0 80 56 0 0 81 58 0 0 82 56 0 0 83 58 0 0 84 68 0 0 85 56 0 0 86 69 0 0 87 81 0 0 88 82 0 0 89 74 0 0 90 75 0 0 991 -2 0 0 1022 67 0 0 1023 67 0 0 1024 68 0 0 1025 56 0 0 1026 65 0 0 1027 64 0 0 1028 -45 0 0 1029 73 0 0 1030 68 0 0 1032 56 0 0
EndChar
StartChar: v
Encoding: 118 118 86
Width: 556
Flags: MW
HStem: 0 20 520 20<14 162 162 162 388 536 536 536>
Fore
350 0 m 1
 203 0 l 1
 14 540 l 1
 162 540 l 1
 279 145 l 1
 388 540 l 1
 536 540 l 1
 350 0 l 1
EndSplineSet
KernsSLIFO: 12 -51 0 0 14 -50 0 0 26 -32 0 0 27 -34 0 0 33 -63 0 0 34 56 0 0 36 56 0 0 37 56 0 0 38 60 0 0 40 66 0 0 41 70 0 0 43 60 0 0 44 56 0 0 45 68 0 0 46 66 0 0 48 58 0 0 50 56 0 0 52 -102 0 0 57 -43 0 0 58 -56 0 0 65 -15 0 0 66 74 0 0 67 -20 0 0 69 -15 0 0 70 74 0 0 71 -21 0 0 72 66 0 0 73 66 0 0 74 64 0 0 75 74 0 0 76 -5 0 0 77 74 0 0 78 70 0 0 79 -22 0 0 80 76 0 0 82 70 0 0 83 -17 0 0 85 71 0 0 88 129 0 0 90 110 0 0 157 -15 0 0 158 -15 0 0 159 -15 0 0 160 -15 0 0 161 -15 0 0 162 -15 0 0 163 -16 0 0 165 -15 0 0 166 -15 0 0 167 -15 0 0 175 -22 0 0 176 -22 0 0 179 -22 0 0 181 -20 0 0 1023 106 0 0 1024 45 0 0 1028 -143 0 0 1030 49 0 0
EndChar
StartChar: w
Encoding: 119 119 87
Width: 778
Flags: MW
HStem: 0 20 520 20<5 150 150 150 318 458 458 458 621 766 766 766>
Fore
613 0 m 1
 468 0 l 1
 387 381 l 1
 301 0 l 1
 157 0 l 1
 5 540 l 1
 150 540 l 1
 236 162 l 1
 318 540 l 1
 458 540 l 1
 539 162 l 1
 621 540 l 1
 766 540 l 1
 613 0 l 1
EndSplineSet
KernsSLIFO: 12 -33 0 0 13 11 0 0 14 -32 0 0 26 -27 0 0 27 -29 0 0 34 62 0 0 36 67 0 0 37 65 0 0 38 70 0 0 40 76 0 0 41 81 0 0 43 70 0 0 44 64 0 0 45 78 0 0 46 76 0 0 48 68 0 0 50 64 0 0 51 42 0 0 52 -91 0 0 53 56 0 0 57 -43 0 0 65 -7 0 0 66 85 0 0 67 -8 0 0 68 52 0 0 69 -3 0 0 70 89 0 0 71 -9 0 0 72 77 0 0 73 77 0 0 74 74 0 0 75 85 0 0 76 -1 0 0 77 84 0 0 78 81 0 0 79 -10 0 0 80 86 0 0 81 53 0 0 82 81 0 0 83 -9 0 0 84 71 0 0 85 86 0 0 87 56 0 0 88 112 0 0 90 118 0 0 157 -7 0 0 158 -7 0 0 159 -7 0 0 160 -7 0 0 161 -7 0 0 162 -7 0 0 163 -8 0 0 165 -3 0 0 166 -3 0 0 167 -3 0 0 175 -10 0 0 176 -10 0 0 179 -10 0 0 181 -8 0 0 1022 45 0 0 1023 114 0 0 1024 61 0 0 1026 65 0 0 1027 41 0 0 1028 -113 0 0 1029 52 0 0 1030 66 0 0 1032 56 0 0
EndChar
StartChar: x
Encoding: 120 120 88
Width: 556
Flags: MW
HStem: 0 20 520 20<20 188 188 188 363 531 531 531>
Fore
355 272 m 1
 535 0 l 1
 367 0 l 1
 276 168 l 1
 184 0 l 1
 16 0 l 1
 196 272 l 1
 20 540 l 1
 188 540 l 1
 276 377 l 1
 363 540 l 1
 531 540 l 1
 355 272 l 1
EndSplineSet
KernsSLIFO: 33 102 0 0 34 65 0 0 35 52 0 0 36 70 0 0 37 68 0 0 38 73 0 0 39 50 0 0 40 79 0 0 41 84 0 0 43 73 0 0 44 67 0 0 45 81 0 0 46 79 0 0 47 51 0 0 48 71 0 0 49 47 0 0 50 67 0 0 51 80 0 0 52 -88 0 0 53 52 0 0 54 56 0 0 55 53 0 0 56 105 0 0 58 56 0 0 65 -9 0 0 66 88 0 0 67 -22 0 0 69 -17 0 0 70 60 0 0 72 80 0 0 73 80 0 0 74 77 0 0 75 88 0 0 76 80 0 0 77 87 0 0 78 84 0 0 79 -24 0 0 80 89 0 0 81 -20 0 0 82 84 0 0 84 55 0 0 85 73 0 0 86 130 0 0 87 114 0 0 88 100 0 0 89 135 0 0 90 123 0 0 166 -17 0 0 1022 84 0 0 1023 115 0 0 1024 104 0 0 1026 61 0 0 1027 70 0 0 1029 82 0 0 1030 91 0 0 1032 52 0 0
EndChar
StartChar: y
Encoding: 121 121 89
Width: 556
Flags: MW
HStem: -219 103<127.5 147.5> 520 20<9 163 163 163 394 538 538 538>
Fore
394 540 m 1
 538 540 l 1
 316 -99 l 1
 293 -163 276 -186 237 -202 c 0
 213 -212 171 -219 136 -219 c 0
 119 -219 107 -218 86 -215 c 1
 86 -110 l 1
 104 -115 112 -116 123 -116 c 0
 172 -116 210 -77 210 -26 c 2
 210 -23 l 1
 210 -22 l 1
 9 540 l 1
 163 540 l 1
 282 147 l 1
 394 540 l 1
EndSplineSet
KernsSLIFO: 12 -51 0 0 14 -50 0 0 26 -31 0 0 27 -33 0 0 33 -63 0 0 34 56 0 0 36 58 0 0 37 56 0 0 38 61 0 0 40 67 0 0 41 72 0 0 43 61 0 0 44 56 0 0 45 69 0 0 46 67 0 0 48 59 0 0 50 56 0 0 52 -100 0 0 57 -43 0 0 58 -55 0 0 65 -14 0 0 66 76 0 0 67 -21 0 0 69 -16 0 0 70 74 0 0 71 -21 0 0 72 68 0 0 73 68 0 0 74 65 0 0 75 76 0 0 76 -4 0 0 77 75 0 0 78 72 0 0 79 -22 0 0 80 77 0 0 82 72 0 0 83 -16 0 0 85 69 0 0 88 131 0 0 90 112 0 0 157 -14 0 0 158 -14 0 0 159 -14 0 0 160 -14 0 0 161 -14 0 0 162 -14 0 0 163 -15 0 0 165 -16 0 0 166 -16 0 0 167 -16 0 0 175 -22 0 0 176 -22 0 0 179 -22 0 0 181 -20 0 0 1023 108 0 0 1024 45 0 0 1028 -142 0 0 1030 49 0 0
EndChar
StartChar: z
Encoding: 122 122 90
Width: 500
Flags: MW
HStem: 0 113<194 468> 427 113<39 288>
Fore
459 540 m 1
 459 427 l 1
 194 113 l 1
 468 113 l 1
 468 0 l 1
 21 0 l 1
 21 113 l 1
 288 427 l 1
 39 427 l 1
 39 540 l 1
 459 540 l 1
EndSplineSet
KernsSLIFO: 33 93 0 0 34 56 0 0 35 69 0 0 36 58 0 0 37 56 0 0 38 62 0 0 39 69 0 0 40 68 0 0 41 72 0 0 42 45 0 0 43 62 0 0 44 56 0 0 45 70 0 0 46 68 0 0 47 71 0 0 48 60 0 0 49 68 0 0 50 56 0 0 51 83 0 0 52 -100 0 0 53 47 0 0 55 43 0 0 56 56 0 0 58 56 0 0 65 85 0 0 66 76 0 0 67 61 0 0 68 64 0 0 69 73 0 0 70 96 0 0 71 62 0 0 72 68 0 0 73 68 0 0 74 66 0 0 75 76 0 0 76 68 0 0 77 76 0 0 78 72 0 0 79 56 0 0 80 78 0 0 81 66 0 0 82 72 0 0 83 84 0 0 84 95 0 0 85 69 0 0 86 92 0 0 87 105 0 0 88 119 0 0 89 97 0 0 90 64 0 0 1022 89 0 0 1023 65 0 0 1024 82 0 0 1026 83 0 0 1027 84 0 0 1029 94 0 0 1030 92 0 0 1032 47 0 0
EndChar
StartChar: braceleft
Encoding: 123 123 91
Width: 389
Flags: MW
HStem: -200 99<280 317> 630 99<264.5 280 280 317>
VStem: 118 117<-60 -36 -36 150 150 159 378 573>
Fore
317 729 m 1
 317 630 l 1
 280 630 l 2
 249 630 235 613 235 573 c 2
 235 378 l 2
 235 305 213 280 138 269 c 1
 213 257 235 232 235 159 c 2
 235 -36 l 2
 235 -85 246 -101 280 -101 c 2
 317 -101 l 1
 317 -200 l 1
 241 -200 l 2
 169 -200 118 -142 118 -60 c 2
 118 150 l 2
 118 190 110 206 87 217 c 0
 76 221 69 222 41 222 c 2
 37 223 l 1
 37 315 l 1
 41 315 l 1
 53 315 l 2
 98 316 118 335 118 378 c 2
 118 589 l 2
 118 671 169 729 241 729 c 2
 317 729 l 1
EndSplineSet
EndChar
StartChar: bar
Encoding: 124 124 92
Width: 280
Flags: MW
HStem: 709 20<100 180 180 180>
VStem: 100 80<-200 729>
Fore
180 729 m 1
 180 -200 l 1
 100 -200 l 1
 100 729 l 1
 180 729 l 1
EndSplineSet
EndChar
StartChar: braceright
Encoding: 125 125 93
Width: 389
Flags: MW
HStem: -200 99<72 109 109 124.5> 630 99<72 109>
VStem: 154 117<-44 151 370 379 379 565 565 589>
Fore
72 -200 m 1
 72 -101 l 1
 109 -101 l 2
 140 -101 154 -84 154 -44 c 2
 154 151 l 2
 154 224 176 249 251 260 c 1
 176 272 154 297 154 370 c 2
 154 565 l 2
 154 614 143 630 109 630 c 2
 72 630 l 1
 72 729 l 1
 148 729 l 2
 220 729 271 671 271 589 c 2
 271 379 l 2
 271 339 279 323 302 312 c 0
 313 308 320 307 348 307 c 2
 352 306 l 1
 352 214 l 1
 348 214 l 1
 336 214 l 2
 291 213 271 194 271 151 c 2
 271 -60 l 2
 271 -142 220 -200 148 -200 c 2
 72 -200 l 1
EndSplineSet
EndChar
StartChar: asciitilde
Encoding: 126 126 94
Width: 584
Flags: MW
HStem: 142 80<377.5 400> 234 80<179 201.5>
Fore
441 288 m 1
 519 288 l 1
 513 190 472 142 392 142 c 0
 359 142 335 150 309 168 c 2
 252 210 l 2
 229 227 212 234 191 234 c 0
 167 234 151 225 143 207 c 0
 140 199 139 195 138 169 c 1
 60 169 l 1
 65 266 108 314 187 314 c 0
 220 314 246 306 270 289 c 2
 327 247 l 2
 353 228 367 222 388 222 c 0
 412 222 428 231 436 249 c 0
 439 257 440 261 441 288 c 1
EndSplineSet
EndChar
StartChar: exclamdown
Encoding: 161 161 95
Width: 333
Flags: MW
HStem: 394 146<66 216>
VStem: 66 150<-186 24 394 540>
Fore
66 -186 m 1
 66 24 l 1
 108 333 l 1
 175 333 l 1
 216 24 l 1
 216 -186 l 1
 66 -186 l 1
66 394 m 1
 66 540 l 1
 216 540 l 1
 216 394 l 1
 66 394 l 1
EndSplineSet
EndChar
StartChar: cent
Encoding: 162 162 96
Width: 556
Flags: MW
VStem: 36 140<213.5 309.5> 259 44<-124 -23 94 433 433 433 549 634>
Fore
303 435 m 1
 303 91 l 1
 349 98 373 126 388 187 c 1
 522 187 l 1
 511 67 422 -18 303 -23 c 1
 303 -124 l 1
 259 -124 l 1
 259 -22 l 1
 120 -13 36 93 36 259 c 0
 36 431 114 533 259 548 c 1
 259 634 l 1
 303 634 l 1
 303 549 l 1
 426 547 514 462 522 338 c 1
 388 338 l 1
 375 400 350 428 303 435 c 1
259 94 m 1
 259 433 l 1
 205 419 176 359 176 260 c 0
 176 167 205 110 259 94 c 1
EndSplineSet
EndChar
StartChar: sterling
Encoding: 163 163 97
Width: 556
Flags: W
HStem: -23 125<382.5 407.5> 9 114 316 55<31 91 253 375 253 253> 604 111<248.5 292>
VStem: 38 141<503 539.5> 141 127<228 243.5>
Fore
375 371 m 1
 375 316 l 1
 253 316 l 1
 265 290 268 277 268 257 c 0
 268 199 237 153 152 86 c 1
 215 116 235 123 264 123 c 0
 281 123 289 122 328 112 c 0
 354 105 374 102 391 102 c 0
 424 102 456 111 496 131 c 1
 537 22 l 1
 481 -11 441 -23 392 -23 c 0
 365 -23 343 -19 293 -7 c 0
 245 5 221 9 195 9 c 0
 157 9 130 1 86 -21 c 1
 31 80 l 1
 115 137 141 173 141 231 c 0
 141 256 136 277 120 316 c 1
 31 316 l 1
 31 371 l 1
 91 371 l 1
 46 450 38 472 38 516 c 0
 38 572 66 629 112 666 c 0
 154 698 209 715 276 715 c 0
 380 715 458 676 494 605 c 0
 509 576 517 543 522 484 c 1
 390 484 l 1
 389 495 l 1
 383 541 375 559 354 577 c 0
 334 595 307 604 277 604 c 0
 220 604 179 566 179 513 c 0
 179 493 182 485 206 436 c 0
 223 401 230 386 236 371 c 1
 375 371 l 1
EndSplineSet
EndChar
StartChar: currency
Encoding: 164 164 98
Width: 556
Flags: MW
HStem: 147 98<266 304> 460 98<262.5 299.5>
VStem: 76 96<333 371> 386 96<334.5 373>
Fore
388 528 m 1
 461 601 l 1
 530 532 l 1
 455 457 l 1
 475 417 482 392 482 354 c 0
 482 315 473 281 453 246 c 1
 530 170 l 1
 461 102 l 1
 386 177 l 1
 340 152 322 147 286 147 c 0
 246 147 201 159 175 178 c 1
 96 100 l 1
 28 169 l 1
 106 246 l 1
 84 286 76 314 76 352 c 128
 76 390 86 427 105 457 c 1
 26 536 l 1
 95 604 l 1
 172 527 l 1
 203 546 244 558 281 558 c 128
 318 558 359 546 388 528 c 1
280 460 m 0
 220 460 172 413 172 352 c 0
 172 293 220 245 279 245 c 128
 338 245 386 293 386 353 c 0
 386 411 338 460 280 460 c 0
EndSplineSet
EndChar
StartChar: yen
Encoding: 165 165 99
Width: 556
Flags: MW
HStem: 0 20 180 59<70 215 355 497> 292 59<70 208 360 497>
VStem: 215 140<0 180 239 292>
Fore
497 351 m 1
 497 292 l 1
 355 292 l 1
 355 239 l 1
 497 239 l 1
 497 180 l 1
 355 180 l 1
 355 0 l 1
 215 0 l 1
 215 180 l 1
 70 180 l 1
 70 239 l 1
 215 239 l 1
 215 292 l 1
 70 292 l 1
 70 351 l 1
 208 351 l 1
 5 704 l 1
 144 704 l 1
 283 450 l 1
 417 704 l 1
 552 704 l 1
 360 351 l 1
 497 351 l 1
EndSplineSet
EndChar
StartChar: brokenbar
Encoding: 166 166 100
Width: 280
Flags: MW
HStem: 709 20<100 180 180 180>
VStem: 100 80<-200 189 340 729>
Fore
180 729 m 1
 180 340 l 1
 100 340 l 1
 100 729 l 1
 180 729 l 1
180 189 m 1
 180 -200 l 1
 100 -200 l 1
 100 189 l 1
 180 189 l 1
EndSplineSet
EndChar
StartChar: section
Encoding: 167 167 101
Width: 556
Flags: W
HStem: -201 111<264.5 299.5> 621 102<249 291.5>
VStem: 33 119<301.5 311> 64 140<556 585.5> 353 141<-47 -20> 398 120<228.5 248>
Fore
473 544 m 1
 346 544 l 1
 339 597 315 621 268 621 c 0
 230 621 204 601 204 570 c 0
 204 542 223 524 294 485 c 2
 421 415 l 2
 487 378 518 330 518 262 c 0
 518 195 491 155 424 124 c 1
 471 91 494 47 494 -10 c 0
 494 -124 406 -201 276 -201 c 0
 137 -201 66 -133 65 0 c 1
 196 0 l 1
 196 -10 l 1
 198 -42 202 -56 215 -68 c 0
 229 -82 252 -90 277 -90 c 0
 322 -90 353 -65 353 -29 c 0
 353 -11 346 5 335 16 c 0
 325 26 325 26 283 49 c 1
 112 149 l 2
 61 179 33 226 33 281 c 0
 33 341 54 374 125 428 c 1
 100 453 97 456 91 465 c 0
 74 487 64 520 64 551 c 0
 64 651 152 723 273 723 c 0
 351 723 416 694 447 647 c 0
 464 619 471 593 473 544 c 1
337 306 m 2
 194 382 l 1
 164 364 152 346 152 317 c 0
 152 286 165 269 205 247 c 2
 352 167 l 1
 386 191 398 209 398 232 c 0
 398 264 384 281 337 306 c 2
EndSplineSet
EndChar
StartChar: dieresis
Encoding: 168 168 102
Width: 333
Flags: MW
HStem: 621 122<18 128 204 314>
VStem: 18 110<621 743> 204 110<621 743>
Fore
128 743 m 1
 128 621 l 1
 18 621 l 1
 18 743 l 1
 128 743 l 1
314 743 m 1
 314 621 l 1
 204 621 l 1
 204 743 l 1
 314 743 l 1
EndSplineSet
EndChar
StartChar: copyright
Encoding: 169 169 103
Width: 737
Flags: MW
HStem: -22 72<283 451> 128 83<331 394.5> 509 83<333.5 395.5> 671 72<284.5 452>
VStem: -14 78<276.5 446.5> 163 92<312.5 406> 673 78<274.5 446.5>
Fore
552 431 m 1
 462 431 l 1
 451 485 422 509 369 509 c 0
 298 509 255 453 255 359 c 0
 255 266 296 211 366 211 c 0
 423 211 457 241 462 297 c 1
 554 297 l 1
 549 192 476 128 364 128 c 0
 241 128 163 218 163 360 c 0
 163 503 241 592 367 592 c 0
 433 592 488 567 522 522 c 0
 541 496 549 472 552 431 c 1
369 743 m 0
 579 743 751 572 751 361 c 0
 751 147 580 -22 364 -22 c 0
 158 -22 -14 152 -14 361 c 0
 -14 571 158 743 369 743 c 0
368 671 m 0
 201 671 64 532 64 361 c 0
 64 192 201 50 365 50 c 0
 537 50 673 188 673 361 c 0
 673 532 536 671 368 671 c 0
EndSplineSet
EndChar
StartChar: ordfeminine
Encoding: 170 170 104
Width: 370
Flags: MW
HStem: 262 78<37 321> 386 68<146.5 147> 661 68<158 194>
VStem: 31 84<481 505.5> 227 82<530 553 553 553 625 629>
Fore
321 340 m 1
 321 262 l 1
 37 262 l 1
 37 340 l 1
 321 340 l 1
329 410 m 1
 329 400 l 1
 237 400 l 1
 229 410 228 416 227 432 c 1
 199 402 165 386 129 386 c 0
 70 386 31 425 31 484 c 128
 31 543 61 576 126 587 c 2
 160 593 l 2
 201 600 201 600 212 606 c 0
 221 610 227 620 227 630 c 0
 227 650 210 661 178 661 c 0
 138 661 123 649 119 617 c 1
 41 617 l 1
 42 691 88 729 176 729 c 128
 264 729 309 695 309 629 c 2
 309 450 l 2
 309 433 313 424 329 410 c 1
227 530 m 2
 227 553 l 1
 217 548 214 547 192 543 c 2
 163 537 l 2
 128 530 115 518 115 493 c 0
 115 469 132 454 161 454 c 0
 203 454 227 482 227 530 c 2
EndSplineSet
EndChar
StartChar: guillemotleft
Encoding: 171 171 105
Width: 556
Flags: W
Fore
88 218 m 1
 88 332 l 1
 255 481 l 1
 255 364 l 1
 154 275 l 1
 255 186 l 1
 255 72 l 1
 88 218 l 1
301 218 m 1
 301 332 l 1
 468 481 l 1
 468 364 l 1
 367 275 l 1
 468 186 l 1
 468 72 l 1
 301 218 l 1
EndSplineSet
EndChar
StartChar: logicalnot
Encoding: 172 172 106
Width: 584
Flags: MW
HStem: 298 77<40 467>
VStem: 467 77<86 298 298 298>
Fore
40 375 m 1
 544 375 l 1
 544 86 l 1
 467 86 l 1
 467 298 l 1
 40 298 l 1
 40 375 l 1
EndSplineSet
EndChar
StartChar: registered
Encoding: 174 174 107
Width: 737
Flags: MW
HStem: -22 72<283 451> 313 81<288 380> 502 81<288 391 288 288> 671 72<284.5 452>
VStem: -14 78<276.5 446.5> 192 96<140 313 394 502> 455 96<437 468.5> 673 78<274.5 446.5>
Fore
288 313 m 1
 288 140 l 1
 192 140 l 1
 192 583 l 1
 430 583 l 2
 506 583 551 538 551 462 c 0
 551 412 530 378 481 354 c 1
 533 330 535 323 538 195 c 0
 538 176 542 169 557 161 c 1
 557 140 l 1
 454 140 l 1
 442 163 440 177 440 221 c 0
 440 229 440 237 441 247 c 1
 441 264 l 2
 441 298 422 313 380 313 c 2
 288 313 l 1
288 394 m 1
 391 394 l 2
 439 394 455 407 455 448 c 128
 455 489 439 502 391 502 c 2
 288 502 l 1
 288 394 l 1
369 743 m 0
 579 743 751 572 751 361 c 0
 751 147 580 -22 364 -22 c 0
 158 -22 -14 152 -14 361 c 0
 -14 571 158 743 369 743 c 0
368 671 m 0
 201 671 64 532 64 361 c 0
 64 192 201 50 365 50 c 0
 537 50 673 188 673 361 c 0
 673 532 536 671 368 671 c 0
EndSplineSet
EndChar
StartChar: macron
Encoding: 175 175 108
Width: 333
Flags: MW
HStem: 640 79<16 315>
Fore
315 719 m 1
 315 640 l 1
 16 640 l 1
 16 719 l 1
 315 719 l 1
EndSplineSet
EndChar
StartChar: degree
Encoding: 176 176 109
Width: 606
Flags: MW
HStem: 383 63<277.5 326> 623 63<278.5 327>
VStem: 151 63<510.5 558.5> 391 63<510 559>
Fore
303 686 m 0
 386 686 454 618 454 535 c 0
 454 450 386 383 301 383 c 0
 219 383 151 452 151 535 c 128
 151 618 219 686 303 686 c 0
303 623 m 0
 254 623 214 583 214 534 c 0
 214 487 254 446 301 446 c 0
 351 446 391 485 391 535 c 0
 391 583 351 623 303 623 c 0
EndSplineSet
EndChar
StartChar: plusminus
Encoding: 177 177 110
Width: 584
Flags: MW
HStem: -16 119<56 527> 313 119<56 232 351 527>
VStem: 232 119<137 313 432 608>
Fore
527 103 m 1
 527 -16 l 1
 56 -16 l 1
 56 103 l 1
 527 103 l 1
527 432 m 1
 527 313 l 1
 351 313 l 1
 351 137 l 1
 232 137 l 1
 232 313 l 1
 56 313 l 1
 56 432 l 1
 232 432 l 1
 232 608 l 1
 351 608 l 1
 351 432 l 1
 527 432 l 1
EndSplineSet
EndChar
StartChar: twosuperior
Encoding: 178 178 111
Width: 351
Flags: MW
HStem: 284 81<139 326> 644 74<153 191>
VStem: 21 91<573.5 595.5> 233 95<557.5 600>
Fore
326 365 m 1
 326 284 l 1
 16 284 l 1
 19 365 42 403 120 453 c 1
 219 519 233 535 233 580 c 0
 233 620 210 644 172 644 c 128
 134 644 112 618 112 573 c 0
 112 571 113 564 114 557 c 1
 22 557 l 1
 21 565 21 572 21 575 c 0
 21 667 77 718 177 718 c 0
 274 718 328 670 328 584 c 0
 328 524 306 493 226 438 c 0
 195 416 173 400 167 395 c 0
 159 389 153 382 139 365 c 1
 326 365 l 1
EndSplineSet
EndChar
StartChar: threesuperior
Encoding: 179 179 112
Width: 351
Flags: W
HStem: 271 77<151 190> 645 73<155 183>
VStem: 220 95<582 607.5> 234 95<390.5 428.5>
Fore
134 471 m 1
 134 533 l 1
 145 533 l 2
 194 533 220 553 220 591 c 0
 220 624 199 645 167 645 c 0
 143 645 124 634 117 617 c 0
 112 607 110 596 110 571 c 1
 22 571 l 1
 24 621 31 645 50 669 c 0
 75 700 118 718 170 718 c 0
 258 718 315 672 315 601 c 0
 315 563 297 533 263 512 c 1
 307 491 329 456 329 409 c 0
 329 325 266 271 170 271 c 0
 72 271 16 323 15 414 c 1
 107 414 l 1
 110 369 130 348 172 348 c 0
 208 348 234 373 234 408 c 0
 234 449 205 470 150 471 c 2
 134 471 l 1
EndSplineSet
EndChar
StartChar: acute
Encoding: 180 180 113
Width: 333
Flags: W
Fore
317 757 m 1
 191 607 l 1
 121 607 l 1
 191 757 l 1
 317 757 l 1
EndSplineSet
EndChar
StartChar: mu
Encoding: 181 181 114
Width: 611
Flags: W
HStem: -220 20 -23 100 -23 119<271.5 311.5> 520 20<58 198 198 198 383 523 523 523>
VStem: 58 134<-220 15> 383 140<202 540>
Fore
192 -220 m 1
 58 -220 l 1
 58 540 l 1
 198 540 l 1
 198 206 l 2
 198 167 202 149 216 129 c 0
 230 108 254 96 282 96 c 0
 341 96 383 140 383 202 c 2
 383 540 l 1
 523 540 l 1
 523 150 l 2
 523 92 529 77 553 77 c 0
 559 77 563 78 573 81 c 1
 573 -6 l 1
 550 -18 531 -23 503 -23 c 0
 456 -23 432 -9 408 31 c 1
 369 -9 338 -23 292 -23 c 0
 251 -23 220 -12 192 15 c 1
 192 -220 l 1
EndSplineSet
EndChar
StartChar: paragraph
Encoding: 182 182 115
Width: 556
Flags: MW
HStem: 657 72<325 388 325 325 486 529 486 486>
VStem: 227 98<-191 267 267 267> 388 98<-191 657>
Fore
529 729 m 1
 529 657 l 1
 486 657 l 1
 486 -191 l 1
 388 -191 l 1
 388 657 l 1
 325 657 l 1
 325 -191 l 1
 227 -191 l 1
 227 267 l 1
 104 273 19 367 19 495 c 0
 19 550 37 606 70 650 c 0
 109 703 161 729 226 729 c 2
 529 729 l 1
EndSplineSet
EndChar
StartChar: periodcentered
Encoding: 183 183 116
Width: 278
Flags: MW
HStem: 169 123<64 188>
VStem: 64 124<169 292>
Fore
64 292 m 1
 188 292 l 1
 188 169 l 1
 64 169 l 1
 64 292 l 1
EndSplineSet
EndChar
StartChar: cedilla
Encoding: 184 184 117
Width: 333
Flags: MW
HStem: -220 50<143 167>
VStem: 208 86<-140.5 -118.5>
Fore
162 0 m 1
 205 0 l 1
 176 -63 l 1
 191 -58 203 -56 218 -56 c 0
 265 -56 294 -83 294 -127 c 0
 294 -187 248 -220 165 -220 c 0
 121 -220 92 -214 27 -192 c 1
 46 -140 l 1
 99 -163 123 -170 151 -170 c 0
 183 -170 208 -152 208 -129 c 0
 208 -108 188 -94 157 -94 c 0
 137 -94 127 -97 108 -106 c 1
 162 0 l 1
EndSplineSet
EndChar
StartChar: onesuperior
Encoding: 185 185 118
Width: 351
Flags: MW
VStem: 147 95<284 573 573 573>
Fore
147 573 m 1
 40 573 l 1
 40 634 l 1
 118 634 164 659 178 709 c 1
 242 709 l 1
 242 284 l 1
 147 284 l 1
 147 573 l 1
EndSplineSet
EndChar
StartChar: ordmasculine
Encoding: 186 186 119
Width: 365
Flags: MW
HStem: 262 78<33 334> 386 68<160.5 205.5> 661 68<160.5 206>
VStem: 23 84<527 588.5> 259 84<526 587.5>
Fore
334 340 m 1
 334 262 l 1
 33 262 l 1
 33 340 l 1
 334 340 l 1
183 729 m 0
 284 729 343 665 343 555 c 0
 343 451 281 386 183 386 c 0
 84 386 23 451 23 557 c 0
 23 664 84 729 183 729 c 0
183 661 m 0
 138 661 107 619 107 558 c 0
 107 496 138 454 183 454 c 128
 228 454 259 496 259 556 c 0
 259 619 229 661 183 661 c 0
EndSplineSet
EndChar
StartChar: guillemotright
Encoding: 187 187 120
Width: 556
Flags: W
Fore
255 335 m 1
 255 220 l 1
 88 72 l 1
 88 189 l 1
 189 278 l 1
 88 367 l 1
 88 481 l 1
 255 335 l 1
462 335 m 1
 462 220 l 1
 295 72 l 1
 295 189 l 1
 396 278 l 1
 295 367 l 1
 295 481 l 1
 462 335 l 1
EndSplineSet
KernsSLIFO: 33 -51 2 0 52 -108 2 0 54 -78 2 0 55 -60 2 0 57 -111 2 0 126 -51 2 0 129 -51 2 0 130 -51 2 0 131 -39 2 0
EndChar
StartChar: onequarter
Encoding: 188 188 121
Width: 869
Flags: MW
HStem: -20 20 93 75<603 709 804 850>
VStem: 147 95<284 573 573 573> 709 95<0 93 168 332 332 332>
Fore
147 573 m 1
 40 573 l 1
 40 634 l 1
 118 634 164 659 178 709 c 1
 242 709 l 1
 242 284 l 1
 147 284 l 1
 147 573 l 1
593 715 m 1
 680 715 l 1
 257 -20 l 1
 170 -20 l 1
 593 715 l 1
850 168 m 1
 850 93 l 1
 804 93 l 1
 804 0 l 1
 709 0 l 1
 709 93 l 1
 530 93 l 1
 530 167 l 1
 695 425 l 1
 804 425 l 1
 804 168 l 1
 850 168 l 1
709 168 m 1
 709 332 l 1
 603 168 l 1
 709 168 l 1
EndSplineSet
EndChar
StartChar: onehalf
Encoding: 189 189 122
Width: 869
Flags: MW
HStem: -20 20 0 81<657 844> 360 74<671 709>
VStem: 147 95<284 573 573 573> 539 91<289.5 311.5> 751 95<273.5 316>
Fore
147 573 m 1
 40 573 l 1
 40 634 l 1
 118 634 164 659 178 709 c 1
 242 709 l 1
 242 284 l 1
 147 284 l 1
 147 573 l 1
587 715 m 1
 674 715 l 1
 251 -20 l 1
 164 -20 l 1
 587 715 l 1
844 81 m 1
 844 0 l 1
 534 0 l 1
 537 81 560 119 638 169 c 1
 737 235 751 251 751 296 c 0
 751 336 728 360 690 360 c 128
 652 360 630 334 630 289 c 0
 630 287 631 280 632 273 c 1
 540 273 l 1
 539 281 539 288 539 291 c 0
 539 383 595 434 695 434 c 0
 792 434 846 386 846 300 c 0
 846 240 824 209 744 154 c 0
 714 133 691 116 685 111 c 0
 677 105 671 98 657 81 c 1
 844 81 l 1
EndSplineSet
EndChar
StartChar: threequarters
Encoding: 190 190 123
Width: 869
Flags: W
HStem: -20 20 93 75<603 709 804 850> 271 77<151 190> 645 73<155 183>
VStem: 220 95<582 607.5> 234 95<390.5 428.5> 709 95<0 93 168 332 332 332>
Fore
134 471 m 1
 134 533 l 1
 145 533 l 2
 194 533 220 553 220 591 c 0
 220 624 199 645 167 645 c 0
 143 645 124 634 117 617 c 0
 112 607 110 596 110 571 c 1
 22 571 l 1
 24 621 31 645 50 669 c 0
 75 700 118 718 170 718 c 0
 258 718 315 672 315 601 c 0
 315 563 297 533 263 512 c 1
 307 491 329 456 329 409 c 0
 329 325 266 271 170 271 c 0
 72 271 16 323 15 414 c 1
 107 414 l 1
 110 369 130 348 172 348 c 0
 208 348 234 373 234 408 c 0
 234 449 205 470 150 471 c 2
 134 471 l 1
625 715 m 1
 712 715 l 1
 289 -20 l 1
 202 -20 l 1
 625 715 l 1
850 168 m 1
 850 93 l 1
 804 93 l 1
 804 0 l 1
 709 0 l 1
 709 93 l 1
 530 93 l 1
 530 167 l 1
 695 425 l 1
 804 425 l 1
 804 168 l 1
 850 168 l 1
709 168 m 1
 709 332 l 1
 603 168 l 1
 709 168 l 1
EndSplineSet
EndChar
StartChar: questiondown
Encoding: 191 191 124
Width: 611
Flags: MW
HStem: -204 118<267 330.5> 394 146<223 373>
VStem: 51 141<-3.5 51.5> 223 150<394 540>
Fore
239 339 m 1
 363 339 l 1
 366 254 343 209 263 141 c 1
 204 93 192 74 192 29 c 0
 192 -36 237 -86 297 -86 c 0
 364 -86 412 -24 408 57 c 1
 408 59 l 1
 544 59 l 1
 543 -23 530 -71 497 -115 c 0
 454 -174 387 -204 301 -204 c 0
 153 -204 51 -110 51 26 c 0
 51 110 78 154 172 220 c 0
 232 262 239 274 239 339 c 1
223 394 m 1
 223 540 l 1
 373 540 l 1
 373 394 l 1
 223 394 l 1
EndSplineSet
EndChar
StartChar: AE
Encoding: 198 198 131
Width: 1000
Flags: MW
HStem: 0 125<580 966> 152 125<249 430> 314 125<580 919> 604 125<363 430 363 363 580 946 580 580>
VStem: 430 150<125 152 152 152 277 314 439 604>
Fore
430 152 m 1
 207 152 l 1
 154 0 l 1
 1 0 l 1
 264 729 l 1
 946 729 l 1
 946 604 l 1
 580 604 l 1
 580 439 l 1
 919 439 l 1
 919 314 l 1
 580 314 l 1
 580 125 l 1
 966 125 l 1
 966 0 l 1
 430 0 l 1
 430 152 l 1
430 277 m 1
 430 604 l 1
 363 604 l 1
 249 277 l 1
 430 277 l 1
EndSplineSet
EndChar
StartChar: Ccedilla
Encoding: 199 199 132
Width: 722
Flags: MW
HStem: -220 50<327 351> -94 197<331 356.5> 613 128<324 409>
VStem: 44 150<294 436.5> 392 86<-140.5 -118.5>
Fore
379 -23 m 1
 360 -63 l 1
 374 -58 386 -56 402 -56 c 0
 449 -56 478 -83 478 -127 c 0
 478 -187 432 -220 349 -220 c 0
 305 -220 276 -214 211 -192 c 1
 230 -140 l 1
 283 -163 307 -170 335 -170 c 0
 367 -170 392 -152 392 -129 c 0
 392 -108 372 -94 341 -94 c 0
 321 -94 311 -97 292 -106 c 1
 335 -23 l 1
 242 -7 203 11 155 56 c 0
 82 126 44 230 44 358 c 0
 44 594 172 741 378 741 c 0
 487 741 577 700 633 626 c 0
 664 585 677 545 682 482 c 1
 539 482 l 1
 530 521 522 540 506 560 c 0
 478 595 435 613 383 613 c 0
 265 613 194 517 194 356 c 0
 194 197 262 103 378 103 c 0
 471 103 530 156 539 249 c 1
 685 249 l 1
 677 84 561 -19 379 -23 c 1
EndSplineSet
KernsSLIFO: 33 -28 0 0
EndChar
StartChar: Eth
Encoding: 208 208 141
Width: 722
Flags: MW
HStem: 0 125<227 362> 339 80<0 77 227 377> 604 125<227 362 227 227>
VStem: 77 150<125 339 419 604> 537 144<324.5 404>
Fore
77 339 m 1
 0 339 l 1
 0 419 l 1
 77 419 l 1
 77 729 l 1
 362 729 l 2
 477 729 544 704 593 645 c 1
 648 576 681 472 681 365 c 0
 681 257 648 154 593 85 c 0
 545 25 476 0 362 0 c 2
 77 0 l 1
 77 339 l 1
227 339 m 1
 227 125 l 1
 362 125 l 2
 427 125 465 141 491 179 c 0
 522 223 537 285 537 364 c 0
 537 444 522 506 491 550 c 0
 465 588 427 604 362 604 c 2
 227 604 l 1
 227 419 l 1
 377 419 l 1
 377 339 l 1
 227 339 l 1
EndSplineSet
EndChar
StartChar: multiply
Encoding: 215 215 148
Width: 584
Flags: W
Fore
421 444 m 1
 505 360 l 1
 376 231 l 1
 504 102 l 1
 420 18 l 1
 292 147 l 1
 164 19 l 1
 80 103 l 1
 208 231 l 1
 79 359 l 1
 163 444 l 1
 292 315 l 1
 421 444 l 1
EndSplineSet
EndChar
StartChar: Oslash
Encoding: 216 216 149
Width: 778
Flags: W
HStem: -23 128<362 440> 613 128<335.5 416> 729 20<703 703>
VStem: 35 150<328.5 413.5> 590 150<303.5 384.5>
Fore
165 52 m 1
 82 -39 l 1
 31 7 l 1
 117 102 l 1
 62 176 35 261 35 359 c 0
 35 468 72 571 138 640 c 1
 201 708 283 741 388 741 c 0
 483 741 553 716 620 657 c 1
 703 749 l 1
 755 704 l 1
 666 605 l 1
 712 542 740 449 740 357 c 0
 740 250 702 146 637 78 c 1
 574 10 492 -23 388 -23 c 0
 298 -23 223 2 165 52 c 1
567 497 m 1
 256 153 l 1
 287 123 336 105 388 105 c 0
 510 105 590 206 590 361 c 0
 590 408 582 457 567 497 c 1
214 209 m 1
 528 555 l 1
 491 594 444 613 388 613 c 0
 264 613 185 512 185 356 c 0
 185 301 195 251 214 209 c 1
EndSplineSet
KernsSLIFO: 33 -32 0 0
EndChar
StartChar: Thorn
Encoding: 222 222 155
Width: 667
Flags: MW
HStem: 0 20 140 125<226 366 366 406> 484 125<226 366> 709 20<76 226 226 226>
VStem: 76 150<0 140 265 484 609 729> 483 150<337 411.5>
Fore
226 140 m 1
 226 0 l 1
 76 0 l 1
 76 729 l 1
 226 729 l 1
 226 609 l 1
 398 609 l 2
 480 609 531 592 571 553 c 0
 613 512 633 456 633 382 c 0
 633 233 548 140 413 140 c 2
 226 140 l 1
226 265 m 1
 366 265 l 2
 446 265 483 300 483 374 c 0
 483 449 446 484 366 484 c 2
 226 484 l 1
 226 265 l 1
EndSplineSet
EndChar
StartChar: germandbls
Encoding: 223 223 156
Width: 611
Flags: W
HStem: -17 20 616 113<268.5 324.5>
VStem: 67 140<0 518 518 537> 392 140<513.5 559> 435 140<190.5 264>
Fore
285 349 m 1
 285 444 l 1
 294 444 l 2
 354 445 392 479 392 533 c 0
 392 585 355 616 294 616 c 0
 239 616 207 587 207 537 c 2
 207 0 l 1
 67 0 l 1
 67 518 l 2
 67 596 85 645 128 679 c 0
 167 710 234 729 303 729 c 0
 438 729 532 654 532 547 c 0
 532 480 502 433 445 411 c 1
 479 404 499 394 524 371 c 0
 560 336 575 298 575 236 c 0
 575 84 488 -17 357 -17 c 0
 335 -17 318 -15 285 -11 c 1
 285 101 l 1
 291 102 296 102 298 102 c 2
 318 103 l 2
 387 104 435 155 435 226 c 0
 435 302 383 349 298 349 c 2
 285 349 l 1
EndSplineSet
EndChar
StartChar: ae
Encoding: 230 230 163
Width: 889
Flags: W
HStem: -24 113<219.5 235.5> -23 107<588.5 632> 226 93<495 711> 436 113<237.5 297.5> 442 107<570.5 634.5>
VStem: 27 140<134.5 175.5>
Fore
712 152 m 1
 850 152 l 1
 819 45 721 -23 600 -23 c 0
 512 -23 442 13 400 81 c 1
 338 8 276 -24 195 -24 c 0
 92 -24 27 40 27 141 c 0
 27 239 78 294 186 312 c 2
 242 322 l 2
 311 333 311 333 330 343 c 0
 345 351 354 367 354 383 c 0
 354 419 326 436 269 436 c 0
 206 436 181 416 174 362 c 1
 43 362 l 1
 45 486 122 549 271 549 c 0
 349 549 408 532 446 499 c 1
 487 532 540 549 601 549 c 0
 713 549 799 491 836 392 c 0
 849 355 857 304 857 250 c 0
 857 245 857 238 856 226 c 1
 494 226 l 1
 494 180 499 156 514 133 c 0
 534 102 569 84 608 84 c 0
 656 84 700 113 712 152 c 1
354 216 m 2
 354 254 l 1
 337 244 325 240 295 235 c 2
 247 228 l 2
 194 221 167 196 167 155 c 128
 167 114 196 89 243 89 c 0
 315 89 354 134 354 216 c 2
495 319 m 1
 711 319 l 1
 704 400 667 442 602 442 c 0
 538 442 501 400 495 319 c 1
EndSplineSet
KernsSLIFO: 86 -21 0 0 87 -7 0 0 89 -19 0 0
EndChar
StartChar: ccedilla
Encoding: 231 231 164
Width: 556
Flags: MW
HStem: -220 50<241 264> -94 184 436 113<268 316.5>
VStem: 34 140<231.5 285> 306 86<-140.5 -118.5>
Fore
291 -23 m 1
 274 -63 l 1
 287 -58 300 -56 315 -56 c 0
 363 -56 392 -83 392 -127 c 0
 392 -187 346 -220 263 -220 c 0
 219 -220 185 -213 125 -192 c 1
 144 -140 l 1
 195 -163 221 -170 248 -170 c 0
 280 -170 306 -152 306 -129 c 0
 306 -108 286 -94 255 -94 c 0
 235 -94 224 -97 205 -106 c 1
 248 -21 l 1
 110 -3 34 96 34 259 c 0
 34 443 128 549 289 549 c 0
 424 549 512 470 522 338 c 1
 388 338 l 1
 372 409 345 436 288 436 c 0
 248 436 217 420 201 390 c 0
 184 358 174 310 174 260 c 0
 174 203 189 151 212 123 c 0
 228 103 259 90 289 90 c 0
 342 90 371 118 388 187 c 1
 522 187 l 1
 511 62 416 -24 291 -23 c 1
EndSplineSet
EndChar
StartChar: eth
Encoding: 240 240 173
Width: 611
Flags: W
HStem: -23 113<264 340> 429 105<264 287> 721 20<192 192> 724 20<381 381>
VStem: 35 141<208.5 311> 428 141<207 309.5>
Fore
432 710 m 1
 348 660 l 1
 499 558 569 435 569 269 c 0
 569 85 470 -23 302 -23 c 0
 135 -23 35 85 35 265 c 0
 35 375 72 452 148 497 c 0
 187 521 231 534 274 534 c 0
 300 534 320 530 359 515 c 1
 332 558 302 589 264 611 c 1
 187 565 l 1
 145 602 l 1
 215 646 l 1
 188 662 174 670 125 694 c 1
 192 741 l 1
 229 727 232 725 279 699 c 0
 280 698 286 695 294 692 c 1
 381 744 l 1
 432 710 l 1
302 429 m 0
 226 429 176 362 176 260 c 0
 176 157 226 90 302 90 c 128
 378 90 428 157 428 257 c 0
 428 362 379 429 302 429 c 0
EndSplineSet
EndChar
StartChar: divide
Encoding: 247 247 180
Width: 584
Flags: MW
HStem: -11 123<230 354> 172 119<50 534> 351 123<230 354>
VStem: 230 124<-11 112 351 474>
Fore
534 291 m 1
 534 172 l 1
 50 172 l 1
 50 291 l 1
 534 291 l 1
230 474 m 1
 354 474 l 1
 354 351 l 1
 230 351 l 1
 230 474 l 1
230 112 m 1
 354 112 l 1
 354 -11 l 1
 230 -11 l 1
 230 112 l 1
EndSplineSet
EndChar
StartChar: oslash
Encoding: 248 248 181
Width: 611
Flags: W
HStem: -23 113<289.5 343> 437 112<265.5 320.5> 537 20<555 555>
VStem: 36 140<251 316> 433 140<210.5 273.5>
Fore
126 35 m 1
 54 -38 l 1
 11 2 l 1
 86 79 l 1
 52 128 36 188 36 263 c 0
 36 441 138 549 305 549 c 0
 378 549 436 529 487 487 c 1
 555 557 l 1
 598 516 l 1
 526 443 l 1
 558 393 573 335 573 263 c 0
 573 86 471 -23 306 -23 c 0
 235 -23 166 -1 126 35 c 1
421 336 m 1
 220 132 l 1
 244 104 273 90 306 90 c 0
 380 90 433 161 433 260 c 0
 433 287 429 312 421 336 c 1
190 184 m 1
 392 390 l 1
 364 424 338 437 303 437 c 0
 228 437 176 366 176 266 c 0
 176 236 181 207 190 184 c 1
EndSplineSet
EndChar
StartChar: thorn
Encoding: 254 254 187
Width: 611
Flags: MW
HStem: -218 20 -23 117<314 350.5> 432 117<314 351.5> 709 20<58 198 198 198>
VStem: 58 140<-218 64 212 312.5 460 729> 434 140<211 311.5>
Fore
198 729 m 1
 198 460 l 1
 232 520 280 549 348 549 c 0
 478 549 574 427 574 262 c 0
 574 99 478 -23 348 -23 c 0
 280 -23 232 5 198 64 c 1
 198 -218 l 1
 58 -218 l 1
 58 729 l 1
 198 729 l 1
316 432 m 0
 246 432 198 363 198 262 c 0
 198 162 246 94 316 94 c 0
 385 94 434 162 434 260 c 0
 434 363 387 432 316 432 c 0
EndSplineSet
EndChar
StartChar: Aogonek
Encoding: 260 260 193
Width: 722
Flags: MW
HStem: -233 51<640 661.5> 147 125<270 461> 537 20<366 366> 709 20<285 452 452 452>
VStem: 500 90<-147 -108.5>
Fore
501 147 m 1
 228 147 l 1
 179 0 l 1
 26 0 l 1
 285 729 l 1
 452 729 l 1
 703 0 l 1
 634 -30 590 -80 590 -129 c 0
 590 -165 614 -182 666 -182 c 0
 685 -182 705 -180 723 -177 c 1
 723 -224 l 1
 695 -231 675 -233 648 -233 c 0
 554 -233 500 -198 500 -138 c 0
 500 -79 546 -28 624 0 c 1
 549 0 l 1
 501 147 l 1
461 272 m 1
 366 557 l 1
 270 272 l 1
 461 272 l 1
EndSplineSet
EndChar
StartChar: aogonek
Encoding: 261 261 194
Width: 556
Flags: W
HStem: -233 51<465 486.5> -23 113<220.5 222> 436 113<239.5 301>
VStem: 28 140<135 176> 325 90<-147 -109.5> 355 137<217 255 255 255 373 383>
Fore
524 17 m 1
 524 0 l 1
 453 -38 415 -82 415 -129 c 0
 415 -165 439 -182 491 -182 c 0
 510 -182 529 -180 548 -177 c 1
 548 -224 l 1
 520 -231 500 -233 473 -233 c 0
 380 -233 325 -198 325 -139 c 128
 325 -80 372 -27 449 0 c 1
 372 0 l 1
 359 16 356 26 356 54 c 1
 307 3 252 -23 192 -23 c 0
 144 -23 97 -4 66 28 c 0
 41 55 28 93 28 139 c 0
 28 236 80 291 187 309 c 2
 243 319 l 2
 312 330 312 330 331 340 c 0
 346 348 355 364 355 382 c 0
 355 418 328 436 274 436 c 0
 205 436 182 418 175 362 c 1
 40 362 l 1
 49 487 125 549 271 549 c 128
 417 549 492 493 492 383 c 2
 492 83 l 2
 492 55 499 40 524 17 c 1
355 217 m 2
 355 255 l 1
 339 247 333 245 296 238 c 2
 248 229 l 2
 190 217 168 197 168 155 c 0
 168 115 197 90 244 90 c 0
 315 90 355 136 355 217 c 2
EndSplineSet
EndChar
StartChar: dcroat
Encoding: 273 273 206
Width: 611
Flags: MW
HStem: -23 117<252 289.5> 432 117<252.5 290> 596 67<272 405 545 605> 709 20<405 545 545 545>
VStem: 29 140<212.5 312> 405 140<0 55 55 55 211 311.5 470 596 663 729>
Fore
405 596 m 5
 272 596 l 5
 272 663 l 5
 405 663 l 5
 405 729 l 1
 545 729 l 1
 545 663 l 5
 605 663 l 5
 605 596 l 5
 545 596 l 5
 545 0 l 1
 405 0 l 1
 405 55 l 1
 370 2 323 -23 256 -23 c 0
 127 -23 29 100 29 262 c 0
 29 425 127 549 256 549 c 0
 324 549 370 524 405 470 c 1
 405 596 l 5
287 432 m 0
 218 432 169 362 169 262 c 0
 169 163 217 94 287 94 c 128
 357 94 405 162 405 260 c 0
 405 363 358 432 287 432 c 0
EndSplineSet
EndChar
StartChar: Eogonek
Encoding: 280 280 213
Width: 667
Flags: MW
HStem: -233 51<565 587.5> 0 125<229 550> 314 125<229 578> 604 125<229 606 229 229>
VStem: 79 150<125 314 439 604> 425 90<-147 -110>
Fore
229 314 m 1
 229 125 l 1
 624 125 l 1
 624 0 l 1
 553 -38 515 -82 515 -129 c 0
 515 -165 539 -182 591 -182 c 0
 611 -182 630 -180 648 -177 c 1
 648 -224 l 1
 621 -230 601 -233 574 -233 c 0
 479 -233 425 -198 425 -138 c 0
 425 -82 464 -39 550 0 c 1
 79 0 l 1
 79 729 l 1
 606 729 l 1
 606 604 l 1
 229 604 l 1
 229 439 l 1
 578 439 l 1
 578 314 l 1
 229 314 l 1
EndSplineSet
EndChar
StartChar: eogonek
Encoding: 281 281 214
Width: 556
Flags: MW
HStem: -234 51<395 413> -24 107<254 282> 226 93<163 379> 442 107<238.5 287.5>
VStem: 255 90<-148.5 -114.5>
Fore
478 -177 m 1
 478 -224 l 1
 451 -231 427 -234 399 -234 c 0
 310 -234 255 -197 255 -137 c 0
 255 -92 279 -60 350 -11 c 1
 314 -21 296 -24 268 -24 c 0
 116 -24 21 83 21 256 c 0
 21 437 116 549 271 549 c 0
 380 549 468 490 504 392 c 0
 517 355 525 304 525 250 c 0
 525 245 525 238 524 226 c 1
 162 226 l 1
 164 175 169 151 182 130 c 0
 201 100 234 83 274 83 c 0
 325 83 363 108 380 152 c 1
 518 152 l 1
 504 101 492 83 434 21 c 0
 366 -53 345 -88 345 -131 c 0
 345 -166 369 -183 421 -183 c 0
 441 -183 459 -181 478 -177 c 1
163 319 m 1
 379 319 l 1
 376 356 370 377 356 397 c 0
 337 425 305 442 270 442 c 0
 207 442 172 401 163 319 c 1
EndSplineSet
EndChar
StartChar: Hbar
Encoding: 294 294 227
Width: 722
Flags: W
HStem: 0 21G<68 218 507 657> 331 125<218 505> 532 67<8 68 218 505 657 717> 709 20G<68 218 506 657>
VStem: 68 150<0 331 456 532 599 729> 507 150<0 331 456 532 599 729>
Fore
657 599 m 1
 717 599 l 1
 717 532 l 1
 657 532 l 1
 657 0 l 1
 507 0 l 1
 507 331 l 1
 218 331 l 1
 218 0 l 1
 68 0 l 1
 68 532 l 1
 8 532 l 1
 8 599 l 1
 68 599 l 1
 68 729 l 1
 218 729 l 1
 218 599 l 5
 506 599 l 5
 506 729 l 1
 657 729 l 1
 657 599 l 1
506 532 m 5
 218 532 l 5
 218 456 l 1
 506 456 l 1
 506 532 l 5
EndSplineSet
EndChar
StartChar: hbar
Encoding: 295 295 228
Width: 611
Flags: W
HStem: 0 21G<67 207 401 541> 430 119<315 365> 596 67<8 67 207 341> 709 20G<67 207>
VStem: 67 140<0 337 462 596 663 729> 401 140<0 353>
Fore
67 663 m 5
 67 729 l 1
 207 729 l 1
 207 663 l 5
 341 663 l 5
 341 596 l 5
 207 596 l 5
 207 462 l 1
 246 521 296 549 365 549 c 0
 410 549 455 534 486 508 c 0
 523 477 541 429 541 362 c 2
 541 0 l 1
 401 0 l 1
 401 330 l 2
 401 365 397 379 385 397 c 0
 369 419 345 430 315 430 c 0
 252 430 207 386 207 324 c 2
 207 0 l 1
 67 0 l 1
 67 596 l 5
 8 596 l 5
 8 663 l 5
 67 663 l 5
EndSplineSet
EndChar
StartChar: Iogonek
Encoding: 302 302 235
Width: 278
Flags: MW
HStem: -233 51<168.5 178> 709 20<63 213 213 213>
VStem: 34 90<-146 -110>
Fore
213 729 m 1
 213 0 l 1
 156 -41 124 -88 124 -131 c 0
 124 -161 150 -182 187 -182 c 0
 200 -182 221 -180 237 -177 c 1
 237 -224 l 1
 211 -230 189 -233 167 -233 c 0
 85 -233 34 -196 34 -136 c 0
 34 -84 70 -41 147 0 c 1
 63 0 l 1
 63 729 l 1
 213 729 l 1
EndSplineSet
EndChar
StartChar: iogonek
Encoding: 303 303 236
Width: 278
Flags: W
HStem: -233 51 604 125<67 207>
VStem: 34 90<-139 -111.5> 67 140<0 540 604 729>
Fore
207 540 m 1
 207 0 l 1
 153 -38 124 -83 124 -128 c 0
 124 -150 129 -161 146 -171 c 0
 158 -178 172 -182 187 -182 c 0
 198 -182 208 -181 231 -177 c 1
 231 -224 l 1
 200 -231 188 -233 168 -233 c 0
 85 -233 34 -196 34 -136 c 0
 34 -87 69 -44 144 0 c 1
 67 0 l 1
 67 540 l 1
 207 540 l 1
207 729 m 1
 207 604 l 1
 67 604 l 1
 67 729 l 1
 207 729 l 1
EndSplineSet
EndChar
StartChar: dotlessi
Encoding: 305 305 238
Width: 278
Flags: MW
HStem: 0 20 520 20<67 207 207 207>
VStem: 67 140<0 540>
Fore
207 540 m 1
 207 0 l 1
 67 0 l 1
 67 540 l 1
 207 540 l 1
EndSplineSet
EndChar
StartChar: jcircumflex
Encoding: 309 309 242
Width: 278
HStem: 520 20G<70 210>
VStem: 4 205.763<-106 -105> 70 140<-74 539>
Fore
210 540 m 1
 210 -94 l 2
 210 -182 174 -218 87 -218 c 0
 67 -218 32 -216 4 -213 c 1
 4 -101 l 1
 14 -104 20 -105 29 -105 c 0
 59 -105 70 -94 70 -63 c 2
 70 540 l 1
 210 540 l 1
89 783 m 1
 196 783 l 1
 299 633 l 1
 221 633 l 1
 139 733 l 1
 57 633 l 1
 -19 633 l 1
 89 783 l 1
EndSplineSet
EndChar
StartChar: Lslash
Encoding: 321 321 254
Width: 611
Flags: MW
HStem: 0 125<230 597> 709 20<80 230 230 230>
VStem: 80 150<125 257 257 257 423 729>
Fore
230 423 m 1
 395 535 l 1
 395 447 l 1
 230 334 l 1
 230 125 l 1
 597 125 l 1
 597 0 l 1
 80 0 l 1
 80 257 l 1
 0 201 l 1
 0 290 l 1
 80 346 l 1
 80 729 l 1
 230 729 l 1
 230 423 l 1
EndSplineSet
EndChar
StartChar: lslash
Encoding: 322 322 255
Width: 278
Flags: MW
HStem: 0 20 709 20<56 196 196 196>
VStem: 56 140<0 294 294 294 442 729>
Fore
196 442 m 1
 252 482 l 1
 252 403 l 1
 196 363 l 1
 196 0 l 1
 56 0 l 1
 56 294 l 1
 0 254 l 1
 0 333 l 1
 56 373 l 1
 56 729 l 1
 196 729 l 1
 196 442 l 1
EndSplineSet
EndChar
StartChar: napostrophe
Encoding: 329 329 262
Width: 611
Flags: W
HStem: 0 21G<63 203 406 546> 429.997 119.003<316 365> 520 20G<63 203>
VStem: 63 140<1 336 463 539> 406 140<1 352>
Fore
63 540 m 1
 203 540 l 1
 203 462 l 1
 243 522 292 549 365 549 c 0
 480 549 546 481 546 362 c 2
 546 0 l 1
 406 0 l 1
 406 333 l 2
 406 397 376 430 316 430 c 0
 248 430 203 388 203 324 c 2
 203 0 l 1
 63 0 l 1
 63 540 l 1
EndSplineSet
EndChar
StartChar: Eng
Encoding: 330 330 263
Width: 722
Flags: HW
HStem: 0 21G<68 218 511 661> 709 20G<68 222 511 661>
VStem: 68 150<1 503> 511 149.997<234 728>
Fore
660.997 729 m 1
 660.997 -94 l 2
 660.997 -182 624 -218 537 -218 c 0
 517 -218 482 -216 454 -213 c 1
 454 -101 l 1
 464 -104 460 -105 469 -105 c 0
 499 -105 511 -94 511 -63 c 2
 511 0 l 1
 218 504 l 1
 218 0 l 1
 68 0 l 1
 68 729 l 1
 222 729 l 1
 511 233 l 1
 511 729 l 1
 660.997 729 l 1
EndSplineSet
EndChar
StartChar: eng
Encoding: 331 331 264
Width: 611
Flags: W
HStem: 0 21G<63 203 406 546> 429.997 119.003<316 365> 520 20G<63 203>
VStem: 63 140<1 336 463 539> 406 140<1 352>
Fore
63 540 m 1
 203 540 l 1
 203 462 l 1
 243 522 292 549 365 549 c 0
 480 549 546 481 546 362 c 2
 546 0 l 1
 406 0 l 1
 406 333 l 2
 406 397 376 430 316 430 c 0
 248 430 203 388 203 324 c 2
 203 0 l 1
 63 0 l 1
 63 540 l 1
EndSplineSet
EndChar
StartChar: OE
Encoding: 338 338 271
Width: 1000
Flags: W
HStem: -23 128<302 359> 0 125<624 970> 314 125<624 923> 604 125<624 951 624 624> 613 128<302.5 361>
VStem: 28 150<283 435.5> 474 150<178 314 439 540 540 540>
Fore
624 314 m 1
 624 125 l 1
 970 125 l 1
 970 0 l 1
 480 0 l 1
 480 59 l 1
 431 -3 393 -23 325 -23 c 0
 152 -23 28 136 28 359 c 0
 28 584 151 741 329 741 c 0
 393 741 432 724 480 677 c 1
 480 729 l 1
 951 729 l 1
 951 604 l 1
 624 604 l 1
 624 439 l 1
 923 439 l 1
 923 314 l 1
 624 314 l 1
474 178 m 1
 474 540 l 1
 445 591 410 613 356 613 c 0
 249 613 178 512 178 359 c 0
 178 207 249 105 355 105 c 0
 409 105 445 127 474 178 c 1
EndSplineSet
EndChar
StartChar: oe
Encoding: 339 339 272
Width: 944
Flags: W
HStem: -23 107<651 695.5> -23 113<252 327.5> -23 107 -23 113 -23 107 226 93<559 774> 436 113<252 328.5> 442 107<647 682.5>
VStem: 23 140<211.5 314.5>
Fore
776 152 m 1
 914 152 l 1
 882 46 785 -23 664 -23 c 0
 592 -23 528 3 485 52 c 1
 434 2 370 -23 290 -23 c 0
 124 -23 23 85 23 263 c 128
 23 441 124 549 290 549 c 0
 370 549 436 524 485 473 c 1
 528 523 590 549 665 549 c 0
 776 549 863 490 899 392 c 0
 912 354 920 304 920 250 c 0
 920 243 920 238 919 226 c 1
 557 226 l 1
 558 180 564 155 578 132 c 0
 596 102 631 84 671 84 c 0
 720 84 763 112 776 152 c 1
290 436 m 0
 214 436 163 366 163 263 c 128
 163 160 214 90 290 90 c 0
 365 90 417 160 417 261 c 0
 417 367 367 436 290 436 c 0
559 319 m 1
 774 319 l 1
 770 358 764 378 751 397 c 0
 732 424 699 442 666 442 c 0
 628 442 593 421 576 388 c 0
 567 370 562 351 559 319 c 1
EndSplineSet
EndChar
StartChar: Scedilla
Encoding: 350 350 283
Width: 667
Flags: MW
HStem: -220 50<290 314> -94 191<294 319.5> 621 120<275.5 361.5>
VStem: 45 143<504.5 558.5> 355 86<-140.5 -118.5> 489 144<164.5 224.5>
Fore
340 -23 m 1
 323 -62 l 1
 338 -58 349 -56 364 -56 c 0
 412 -56 441 -83 441 -127 c 0
 441 -187 395 -220 312 -220 c 0
 268 -220 235 -213 174 -192 c 1
 193 -140 l 1
 243 -162 270 -170 298 -170 c 0
 330 -170 355 -152 355 -129 c 0
 355 -108 335 -94 304 -94 c 0
 284 -94 274 -97 255 -106 c 1
 297 -23 l 1
 126 -5 42 72 32 218 c 1
 178 218 l 1
 183 140 240 97 342 97 c 0
 433 97 489 134 489 195 c 0
 489 254 452 282 352 301 c 2
 250 321 l 2
 102 349 45 404 45 517 c 0
 45 659 146 741 321 741 c 0
 426 741 507 712 556 658 c 0
 592 618 607 574 607 507 c 1
 467 507 l 1
 462 581 409 621 314 621 c 0
 237 621 188 586 188 531 c 0
 188 478 219 457 326 436 c 2
 440 414 l 2
 575 388 633 328 633 214 c 0
 633 65 535 -14 340 -23 c 1
EndSplineSet
EndChar
StartChar: scedilla
Encoding: 351 351 284
Width: 556
Flags: W
HStem: -220 50<231.5 255> -23 110<283 283 283 301> 439 110<244.5 302.5>
VStem: 48 140<378 404> 296 86<-140.5 -118.5> 380 140<123.5 151>
Fore
283 -23 m 1
 264 -63 l 1
 279 -58 291 -56 306 -56 c 0
 353 -56 382 -83 382 -127 c 0
 382 -187 336 -220 254 -220 c 0
 209 -220 180 -214 115 -192 c 1
 134 -140 l 1
 187 -163 211 -170 239 -170 c 0
 271 -170 296 -152 296 -129 c 0
 296 -108 276 -94 245 -94 c 0
 225 -94 215 -97 196 -106 c 1
 239 -22 l 1
 96 -5 34 48 29 157 c 1
 166 157 l 1
 172 128 178 117 193 106 c 0
 211 94 240 87 276 87 c 0
 341 87 380 107 380 140 c 0
 380 162 368 173 333 184 c 2
 166 236 l 2
 114 253 97 262 78 281 c 0
 59 302 48 333 48 369 c 0
 48 480 133 549 270 549 c 0
 415 549 503 480 505 366 c 1
 370 366 l 1
 369 415 336 439 269 439 c 0
 220 439 188 419 188 389 c 0
 188 367 198 359 237 347 c 2
 414 296 l 2
 485 275 520 230 520 160 c 0
 520 52 430 -23 301 -23 c 2
 283 -23 l 1
EndSplineSet
EndChar
StartChar: Tbar
Encoding: 358 358 291
Width: 611
Flags: W
HStem: 0 21G<235 385> 604 125<15 234 386 597>
VStem: 14 584<604 728> 235 150<1 604>
Fore
385 604 m 1
 385 0 l 1
 235 0 l 1
 235 604 l 1
 14 604 l 1
 14 729 l 1
 598 729 l 1
 598 604 l 1
 385 604 l 1
EndSplineSet
EndChar
StartChar: tbar
Encoding: 359 359 292
Width: 333
Flags: W
HStem: 436 93<15 83 224 300>
VStem: 14 287<436 529> 83 140<121 436 529 673>
Fore
301 529 m 1
 301 436 l 1
 223 436 l 1
 223 142 l 2
 223 94 232 83 269 83 c 0
 279 83 287 84 301 86 c 1
 301 -12 l 1
 276 -20 251 -23 220 -23 c 0
 128 -23 83 19 83 104 c 2
 83 436 l 1
 14 436 l 1
 14 529 l 1
 83 529 l 1
 83 674 l 1
 223 674 l 1
 223 529 l 1
 301 529 l 1
EndSplineSet
EndChar
StartChar: Uogonek
Encoding: 370 370 303
Width: 722
Flags: MW
HStem: -234 51<513 531.5> -23 128<322.5 387.5> 709 20<76 226 226 226 504 654 654 654>
VStem: 76 150<235 729> 373 89<-149 -115> 504 150<235 729>
Fore
597 -177 m 1
 597 -224 l 1
 570 -231 546 -234 517 -234 c 0
 490 -234 465 -230 441 -222 c 0
 395 -207 373 -179 373 -138 c 0
 373 -90 400 -55 477 -7 c 1
 429 -20 407 -23 368 -23 c 0
 277 -23 200 3 147 51 c 0
 98 95 76 153 76 235 c 2
 76 729 l 1
 226 729 l 1
 226 235 l 2
 226 147 271 105 365 105 c 128
 459 105 504 147 504 235 c 2
 504 729 l 1
 654 729 l 5
 654 235 l 2
 654 166 638 116 602 69 c 0
 585 48 585 48 527 -13 c 0
 482 -62 462 -98 462 -132 c 128
 462 -166 487 -183 539 -183 c 0
 560 -183 578 -181 597 -177 c 1
EndSplineSet
EndChar
StartChar: uogonek
Encoding: 371 371 304
Width: 611
Flags: W
HStem: -233 51<480 502.5> -23 119<258 275.5> 520 20<58 198 198 198 401 541 541 541>
VStem: 58 140<164 193 193 540> 340 90<-147 -116.5> 401 140<0 64 64 64 202 540>
Fore
465 0 m 1
 401 0 l 1
 401 64 l 1
 361 4 312 -23 239 -23 c 0
 124 -23 58 45 58 164 c 2
 58 540 l 1
 198 540 l 1
 198 193 l 2
 198 128 228 96 288 96 c 0
 356 96 401 138 401 202 c 2
 401 540 l 1
 541 540 l 1
 541 0 l 1
 468 -37 430 -82 430 -129 c 0
 430 -165 454 -182 506 -182 c 0
 526 -182 545 -180 564 -177 c 1
 564 -224 l 1
 536 -231 516 -233 489 -233 c 0
 395 -233 340 -198 340 -138 c 0
 340 -95 370 -49 419 -21 c 0
 433 -12 441 -9 465 0 c 1
EndSplineSet
EndChar
StartChar: longs
Encoding: 383 383 316
Width: 333
Flags: W
HStem: 0 21G<90 230> 436 93<15 90> 624 104.193<267 270>
VStem: 90 140<1 435 530 594>
Fore
230 0 m 1
 90 0 l 1
 90 436 l 1
 14 436 l 1
 14 529 l 1
 90 529 l 1
 90 594 l 2
 90 685 135 729 228 729 c 0
 247 729 282 728 308 726 c 1
 308 621 l 1
 296 623 280 624 268 624 c 0
 242 624 230 610 230 582 c 2
 230 0 l 1
EndSplineSet
EndChar
StartChar: florin
Encoding: 402 402 317
Width: 556
Flags: MW
HStem: -220 116<95 119.5> 383 97<104 227 377 500> 628 116<440 454.5>
Fore
500 480 m 1
 500 383 l 1
 363 383 l 1
 304 1 l 2
 291 -84 270 -138 236 -172 c 0
 206 -202 160 -220 111 -220 c 0
 79 -220 52 -214 21 -198 c 1
 45 -83 l 1
 70 -98 86 -104 102 -104 c 0
 137 -104 154 -76 167 7 c 1
 227 383 l 1
 104 383 l 1
 104 480 l 1
 242 480 l 1
 253 539 l 1
 276 681 334 744 439 744 c 0
 470 744 492 740 535 727 c 1
 515 612 l 1
 486 625 476 628 460 628 c 0
 420 628 396 593 384 521 c 2
 377 480 l 1
 500 480 l 1
EndSplineSet
EndChar
StartChar: iota
Encoding: 953 953 378
Width: 346
Flags: W
HStem: 523.95 20G<31 169>
VStem: 31 138<142 528>
Fore
302 14.3301 m 1
 252 -6.04004 211 -16.71 180 -16.71 c 0
 137 -16.71 101 -3.12988 72 23.0596 c 0
 45 49.25 31 89.9902 31 144.31 c 2
 31 543.95 l 1
 169 543.95 l 1
 169 160.8 l 2
 169 155.95 169 151.1 169 148.19 c 128
 169 145.28 169 143.34 169 142.37 c 0
 170 141.4 170 138.49 171 134.61 c 0
 172 127.82 175 122.97 182 118.12 c 0
 183 117.15 185 116.18 189 116.18 c 2
 194 116.18 l 2
 203 117.15 223 124.91 254 141.4 c 1
 302 14.3301 l 1
EndSplineSet
EndChar
StartChar: kappa
Encoding: 954 954 379
Width: 576
Flags: W
HStem: -8.41016 21G<42.6699 179.29 372.34 539.65> 522.55 20G<42.6699 179.29 349.57 533.71>
VStem: 42.6699 136.62<6 205 374 536>
Fore
539.65 -8.41016 m 1
 372.34 -8.41016 l 1
 210.97 236.03 l 1
 179.29 205.96 l 1
 179.29 -8.41016 l 1
 42.6699 -8.41016 l 1
 42.6699 542.55 l 1
 179.29 542.55 l 1
 179.29 373.77 l 1
 349.57 542.55 l 1
 533.71 542.55 l 1
 308.98 329.15 l 1
 539.65 -8.41016 l 1
EndSplineSet
EndChar
StartChar: lambda
Encoding: 955 955 380
Width: 620
Flags: W
HStem: -1.84961 21G<17.2266 161.227> 609.95 129.2<136 151>
Fore
283.146 333.5 m 1
 161.227 -1.84961 l 1
 17.2266 -1.84961 l 1
 215.946 514.95 l 1
 212.106 527.3 l 2
 199.626 567.2 191.946 589.05 164.106 606.15 c 0
 158.347 609 149.706 609.95 138.187 609.95 c 0
 112.267 609.95 108.427 605.2 86.3467 602.35 c 0
 78.666 601.4 69.0664 599.5 58.5068 598.55 c 1
 73.8662 721.1 l 1
 106.507 733.45 131.467 739.15 149.706 739.15 c 0
 209.227 739.15 234.187 720.15 266.826 684.05 c 0
 302.347 642.25 310.026 612.8 340.746 532.05 c 2
 486.666 142.55 l 1
 499.146 117.85 l 1
 502.026 115 503.946 113.1 504.906 113.1 c 0
 518.347 113.1 539.467 127.35 552.906 134 c 1
 585.547 21.9004 l 1
 540.427 -1.84961 504.906 -13.25 478.986 -13.25 c 0
 435.786 -13.25 406.026 6.7002 391.626 47.5498 c 1
 384.906 61.7998 381.066 71.2998 379.146 76.0498 c 2
 294.666 300.25 l 2
 290.826 311.65 286.986 323.05 283.146 333.5 c 1
EndSplineSet
EndChar
StartChar: uni03BC
Encoding: 956 956 381
Width: 667
Flags: W
HStem: -9.29004 111.76<291 309> 522.85 20G<52 190 398 534>
VStem: 52 138<-188 13 212 534> 398 136<196 534>
Fore
398 217.9 m 1
 398 542.85 l 1
 534 542.85 l 1
 534 163.58 l 2
 534 138.36 534 130.6 543 116.05 c 8
 547.06 109.487 559 104.41 559 104.41 c 1
 595 36.2998 l 1
 570 19.8096 552 10.1094 543 6.22949 c 0
 533 2.34961 522 0.40918 510 0.40918 c 0
 470 0.40918 437 16.8994 422 46 c 1
 395 14.96 347 -9.29004 295 -9.29004 c 0
 262 -9.29004 232 -2.5 207 11.0791 c 0
 205 12.0498 199 15.9297 190 21.75 c 1
 190 -202.11 l 1
 52 -202.11 l 1
 52 542.85 l 1
 190 542.85 l 1
 190 217.9 l 2
 190 170.37 211 135.45 254 111.2 c 0
 263 105.38 278 102.47 298 102.47 c 0
 335 102.47 351 115.08 363 124.78 c 0
 384 143.21 398 164.55 398 217.9 c 1
EndSplineSet
EndChar
StartChar: nu
Encoding: 957 957 382
Width: 564
Flags: W
HStem: 523 20G<-22 124 380 524>
Fore
524 543 m 1
 309 -25 l 1
 193 -25 l 1
 -22 543 l 1
 124 543 l 1
 251 188 251 188 251 188 c 25
 380 543 l 1
 524 543 l 1
EndSplineSet
EndChar
StartChar: xi
Encoding: 958 958 383
Width: 530
Flags: W
HStem: -13.8701 116.4<271 332> 315.93 110.58<296 433> 614.69 116.399<47 97 262 465>
VStem: 63.21 127.26<498.295 512> 366.21 130.29<-43 -26>
Fore
496.5 -27.4502 m 0
 496.5 -70.1299 479.33 -130.27 446 -208.84 c 1
 325.81 -165.19 l 1
 352.07 -96.3203 365.2 -55.5801 366.21 -42.9697 c 0
 367.22 -42 367.22 -39.0898 367.22 -34.2402 c 0
 367.22 -25.5098 366.21 -20.6602 363.18 -19.6904 c 0
 355.1 -15.8096 332.88 -13.8701 297.53 -13.8701 c 2
 278.34 -13.8701 l 2
 174.603 -13.8701 98.7812 13.0068 53.1094 71.4902 c 0
 28.8701 102.53 16.75 143.27 16.75 193.71 c 1
 23.0068 265.819 36.5879 301.064 79.3701 338.24 c 0
 97.5498 353.76 116.74 366.37 135.93 377.04 c 1
 122.8 383.83 112.7 392.56 103.609 403.23 c 0
 76.3398 431.36 63.21 467.25 63.21 510.9 c 0
 63.21 544.85 72.2998 575.89 90.4795 603.05 c 0
 91.4902 604.99 96.54 610.81 99.5703 614.69 c 1
 38.9697 614.69 l 1
 38.9697 731.09 l 1
 465.189 731.09 l 1
 465.189 614.69 l 1
 272.28 614.69 l 2
 239.321 614.69 214.134 586.386 203.6 560.37 c 1
 194.51 544.85 190.47 528.36 190.47 510.9 c 0
 190.47 474.04 214.71 447.85 264.2 433.3 c 1
 276.32 428.45 298.54 426.51 330.859 426.51 c 2
 438.93 426.51 l 1
 438.93 315.93 l 1
 302.58 315.93 l 2
 242.714 315.93 198.266 294.844 171.28 259.67 c 0
 158.149 244.15 152.09 224.75 152.09 202.44 c 128
 152.09 180.13 158.149 161.7 171.28 148.12 c 0
 186.43 130.66 204.609 119.02 223.8 114.17 c 0
 247.03 106.41 269.25 102.53 290.46 102.53 c 0
 379.197 102.53 440.826 99.7979 471.25 55.9697 c 0
 488.42 33.6602 496.5 5.53027 496.5 -27.4502 c 0
EndSplineSet
EndChar
StartChar: omicron
Encoding: 959 959 384
Width: 610
Flags: W
HStem: -17.5 116.56<264 282> 424.3 114.681<264 282>
VStem: 9 140<237 271> 403 140<237 287>
Fore
543 261.68 m 0
 543 203.4 532 153.58 509 113.16 c 1
 487 70.8604 455 37.96 414 15.4004 c 0
 373 -6.21973 327 -17.5 276 -17.5 c 0
 227 -17.5 183 -7.16016 142 12.5801 c 0
 100 34.2002 68 66.1602 45 108.46 c 0
 21 149.82 9 200.58 9 261.68 c 0
 9 352.86 34 422.42 84 469.42 c 0
 134 515.48 198 538.98 276 538.98 c 128
 354 538.98 418 515.48 468 469.42 c 0
 518 422.42 543 352.86 543 261.68 c 0
403 261.68 m 0
 403 287.06 400 310.56 394 332.18 c 0
 389 350.04 380 367.9 367 383.88 c 0
 357 397.98 344 407.38 328 413.96 c 0
 314 420.54 297 424.3 276 424.3 c 128
 255 424.3 238 420.54 224 413.96 c 0
 208 407.38 195 397.98 185 383.88 c 0
 174 368.84 165 351.92 159 332.18 c 0
 152 307.74 149 284.24 149 261.68 c 0
 149 206.22 161 164.86 185 138.54 c 1
 207 112.22 237 99.0596 276 99.0596 c 0
 313 99.0596 344 112.22 367 138.54 c 0
 391 164.86 403 206.22 403 261.68 c 0
EndSplineSet
EndChar
StartChar: pi
Encoding: 960 960 385
Width: 721
Flags: W
HStem: -12.8398 21G<101.13 242.7> 427.18 117.601<30 101 242 426 563 623>
VStem: 101.13 141.57<-3 427> 426.84 136.62<109 427>
Fore
566.43 94.96 m 1
 570.265 94.96 608.115 123.702 612.96 127.3 c 1
 643.65 9.7002 l 1
 617.91 -0.0996094 575.34 -17.7402 540.69 -17.7402 c 0
 452.58 -17.7402 426.84 30.2803 426.84 122.4 c 2
 426.84 427.18 l 1
 242.7 427.18 l 1
 242.7 -12.8398 l 1
 101.13 -12.8398 l 1
 101.13 427.18 l 1
 31.8301 427.18 l 1
 30.8398 544.78 l 1
 626.82 544.78 l 1
 626.82 427.18 l 1
 563.46 427.18 l 1
 563.46 124.36 l 2
 563.46 107.7 564.45 97.9004 566.43 94.96 c 1
EndSplineSet
EndChar
StartChar: rho
Encoding: 961 961 386
Width: 626
Flags: W
HStem: -8 120.279<287 305> 437.43 118.34<287 305>
VStem: 32 138<-188 21 244 294> 426 140<260 294>
Fore
566 277.38 m 0
 566 210.45 557 170.479 540 137.5 c 4
 525 108.399 510 85.1201 493 68.6299 c 4
 479 54.0801 456 37.5898 423 19.1602 c 4
 388 0.729492 346 -8 297 -8 c 4
 262 -8 229 -1.20996 200 11.3994 c 4
 191 15.2793 181 21.0996 170 27.8896 c 5
 170 -202.77 l 1
 32 -202.77 l 1
 32 277.38 l 2
 32 374.38 59 445.19 112 489.81 c 0
 163 533.46 225 555.77 297 555.77 c 0
 377 555.77 442 530.55 492 480.11 c 0
 541 430.64 566 362.74 566 277.38 c 0
426 271.56 m 0
 426 327.82 413 369.53 388 396.69 c 0
 364 423.85 334 437.43 297 437.43 c 0
 259 437.43 229 423.85 207 397.66 c 1
 182 371.47 170 328.79 170 269.62 c 0
 170 210.45 182 178.239 207 152.05 c 5
 230 125.859 260 112.279 297 112.279 c 4
 333 112.279 363 124.89 388 151.08 c 5
 413 180.18 426 213.36 426 271.56 c 0
EndSplineSet
EndChar
StartChar: sigma1
Encoding: 962 962 387
Width: 595
Flags: W
HStem: 429.26 125.44<260 279>
VStem: 5.19043 141.619<258 299>
Fore
518.32 297.94 m 1
 381.55 297.94 l 1
 381.55 347.92 372.82 382.22 354.39 400.84 c 0
 334.02 419.46 305.89 429.26 270 429.26 c 0
 219.82 429.26 184.324 402.514 165.24 365.56 c 0
 152.63 343.02 146.81 311.66 146.81 273.44 c 0
 146.81 246.98 150.69 224.44 158.45 204.84 c 0
 173 170.54 207.92 144.08 264.18 126.44 c 0
 278.119 122.215 347.588 116.347 364.09 114.68 c 0
 457.598 102.434 517.35 73.3799 517.35 -22.5195 c 0
 517.35 -41.1396 513.47 -62.7002 505.71 -86.2197 c 0
 500.86 -100.92 486.31 -140.12 461.09 -204.8 c 1
 325.29 -156.78 l 1
 343.72 -116.6 360.21 -73.4805 374.76 -28.4004 c 0
 374.76 -25.46 368.94 -24.4805 357.3 -24.4805 c 0
 309.414 -19.1045 257.048 -17.8115 211.8 -6.83984 c 0
 185.61 0.0195312 152.63 17.6602 114.8 46.0801 c 0
 83.7598 67.6396 57.5703 99.9805 35.2598 142.12 c 0
 14.8896 178.38 5.19043 223.46 5.19043 275.4 c 0
 5.19043 334.2 16.8301 384.18 41.0801 426.32 c 0
 86.0957 502.12 166.334 554.7 277.76 554.7 c 0
 346.63 554.7 403.86 534.12 449.45 492.96 c 0
 495.04 450.82 518.32 385.16 518.32 297.94 c 1
EndSplineSet
EndChar
StartChar: sigma
Encoding: 963 963 388
Width: 676
Flags: W
HStem: -11.9502 117.8<261 279> 434.55 115.9<261 279> 546.65 21G<328.5 618.37>
VStem: 6.30957 141.4<259 293> 404.25 141.4<243 293>
Fore
618.37 421.25 m 1
 503.23 421.25 l 1
 531.51 375.65 545.65 325.3 545.65 270.2 c 0
 545.65 108.7 448.69 -11.9502 275.98 -11.9502 c 0
 160.84 -11.9502 84.0801 39.3496 42.6699 115.35 c 0
 18.4297 157.15 6.30957 208.45 6.30957 270.2 c 0
 6.30957 362.35 31.5596 432.65 82.0596 480.15 c 0
 132.56 526.7 197.2 550.45 275.98 550.45 c 0
 295.17 550.45 312.34 549.5 328.5 546.65 c 1
 618.37 546.65 l 1
 618.37 421.25 l 1
404.25 270.2 m 0
 404.25 322.45 394.15 361.4 367.89 393.7 c 0
 350.72 417.45 319.41 434.55 275.98 434.55 c 0
 233.56 434.55 201.24 418.4 184.07 393.7 c 0
 160.84 361.4 147.71 318.65 147.71 270.2 c 0
 147.71 178.05 185.08 105.85 275.98 105.85 c 0
 313.35 105.85 344.66 119.15 367.89 145.75 c 0
 392.13 172.35 404.25 214.15 404.25 270.2 c 0
EndSplineSet
EndChar
StartChar: tau
Encoding: 964 964 389
Width: 592
Flags: W
HStem: -12.1699 129.979<328 348> 428.21 114.46<24 178 320 522>
VStem: 178.27 142.141<146 428>
Fore
526.41 428.21 m 1
 320.41 428.21 l 1
 320.41 163.4 l 2
 320.41 143.03 321.44 130.42 322.47 126.54 c 0
 323.5 123.63 325.56 121.69 328.65 119.75 c 0
 330.71 118.78 336.89 117.81 346.16 117.81 c 0
 349.25 117.81 352.34 117.81 354.4 118.78 c 0
 359.55 118.78 373.97 121.69 399.72 127.51 c 1
 430.62 3.34961 l 1
 398.69 -3.44043 377.06 -8.29004 366.76 -9.25977 c 0
 352.34 -11.2002 339.98 -12.1699 329.68 -12.1699 c 0
 293.63 -12.1699 264.79 -6.34961 241.1 6.25977 c 0
 216.38 18.8701 199.9 35.3604 191.66 57.6699 c 0
 188.57 64.46 184.45 77.0703 181.36 95.5 c 0
 179.3 108.11 178.27 128.48 178.27 155.64 c 2
 178.27 428.21 l 1
 9.34961 428.21 l 1
 9.34961 542.67 l 1
 526.41 542.67 l 1
 526.41 428.21 l 1
EndSplineSet
EndChar
StartChar: upsilon
Encoding: 965 965 390
Width: 575
Flags: W
HStem: -16 120.96<238 272> 522.72 20G<15 153 365 503>
VStem: 15 138<207 529> 365 138<207 529>
Fore
503 211.52 m 2
 503 172.16 500 141.44 494 119.36 c 0
 489 97.2803 480 76.1602 466 55.04 c 1
 456 43.5195 433 27.2002 398 7.04004 c 0
 369 -8.32031 324 -16 262 -16 c 0
 195 -16 148 -8.32031 119 7.04004 c 1
 85 27.2002 63 42.5596 52 55.04 c 1
 38 75.2002 29 97.2803 24 119.36 c 0
 18 141.44 15 172.16 15 211.52 c 2
 15 542.72 l 1
 153 542.72 l 1
 153 244.16 l 2
 153 204.8 155 175.04 160 154.88 c 0
 165 140.48 170 130.88 177 127.04 c 0
 187 120.32 197 114.56 206 111.68 c 0
 219 106.88 237 104.96 260 104.96 c 0
 282 104.96 299 106.88 312 111.68 c 0
 321 114.56 330 119.36 340 127.04 c 0
 347 131.84 353 140.48 358 154.88 c 0
 363 175.04 365 204.8 365 244.16 c 2
 365 542.72 l 1
 503 542.72 l 1
 503 211.52 l 2
EndSplineSet
EndChar
StartChar: phi
Encoding: 966 966 391
Width: 801
Flags: W
HStem: -13.6797 125.76<304 308 446.64 466> 525.04 20G<312.31 421.39>
VStem: 17.3896 135.341<250 268> 307.26 139.38<-182 -14> 312.31 133.32<113 400> 590.06 135.341<250 268>
Fore
590.06 259.92 m 0
 590.06 343.01 534.195 410.64 445.63 410.64 c 1
 445.63 112.08 l 1
 511.475 112.08 551.802 143.229 572.89 186.96 c 0
 584 207.12 590.06 232.08 590.06 259.92 c 0
177.98 526.8 m 1
 258.78 426.96 l 1
 220.4 401.04 194.14 375.12 178.99 351.12 c 0
 161.82 321.36 152.73 292.56 152.73 263.76 c 0
 152.73 202.942 186.31 159.122 230.5 132.24 c 0
 254.74 118.8 282.01 112.08 312.31 112.08 c 1
 312.31 545.04 l 1
 421.39 545.04 l 2
 554.014 545.04 644.793 483.32 691.06 397.2 c 0
 714.29 354 725.4 307.92 725.4 258.96 c 0
 725.4 151.346 674.421 73.9668 601.17 24.7197 c 1
 558.75 -1.2002 509.26 -13.6797 453.71 -13.6797 c 2
 446.64 -13.6797 l 1
 446.64 -196.08 l 1
 307.26 -196.08 l 1
 307.26 -13.6797 l 1
 310.29 -13.6797 l 2
 212.587 -13.6797 141.382 20.3174 93.1396 69.8398 c 0
 49.5117 111.309 17.3896 182.154 17.3896 259.92 c 0
 17.3896 343.645 50.4219 410.944 96.1699 462.48 c 0
 115.36 484.56 142.63 505.68 177.98 526.8 c 1
EndSplineSet
EndChar
StartChar: chi
Encoding: 967 967 392
Width: 632
Flags: W
HStem: -199.45 128.25<515.28 531.77> 437.05 121.601<51 53> 521.55 20G<435.74 584.15>
Fore
589 -180.45 m 1
 560.87 -192.8 535.65 -199.45 515.28 -199.45 c 2
 507.52 -199.45 l 2
 479.39 -199.45 453.2 -189 428.95 -169.05 c 0
 409.55 -153.85 391.12 -131.05 374.63 -101.6 c 1
 298.97 48.5 l 1
 136.98 -188.05 l 1
 -22.0996 -188.05 l 1
 221.37 178.65 l 1
 83.6299 413.3 l 2
 75.8701 425.65 71.0195 432.3 68.1104 434.2 c 0
 66.1699 436.1 60.3496 437.05 51.6201 437.05 c 1
 40.9502 434.2 24.46 433.25 1.17969 433.25 c 1
 1.17969 552 l 1
 33.1904 556.75 49.6797 558.65 52.5898 558.65 c 0
 69.0801 559.6 78.7803 560.55 79.75 560.55 c 0
 105.94 560.55 128.25 554.85 146.68 543.45 c 0
 164.14 533.95 180.63 516.85 195.18 492.15 c 1
 301.88 298.35 l 1
 435.74 541.55 l 1
 584.15 541.55 l 1
 381.42 177.7 l 1
 502.67 -49.3496 l 1
 509.46 -59.7998 514.31 -65.5 517.22 -68.3496 c 0
 519.16 -70.25 524.01 -71.2002 531.77 -71.2002 c 0
 534.68 -71.2002 539.53 -70.25 544.38 -69.2998 c 0
 548.26 -69.2998 562.81 -64.5498 589 -54.0996 c 1
 589 -180.45 l 1
EndSplineSet
EndChar
StartChar: psi
Encoding: 968 968 393
Width: 722
Flags: W
HStem: 520.09 20G<17 157 505 645>
VStem: 17 140<218 532> 263 136<-190 -12 109 516> 505 140<220 532>
Fore
645 220.96 m 2
 645 73.5195 548 -6.01953 399 -11.8398 c 1
 399 -204.87 l 1
 263 -204.87 l 1
 263 -11.8398 l 1
 113 -6.01953 17 72.5498 17 220.96 c 2
 17 540.09 l 1
 157 540.09 l 1
 157 248.12 l 2
 157 185.07 168 142.39 208 122.02 c 0
 223 115.23 242 110.38 263 108.44 c 1
 263 522.63 l 1
 399 522.63 l 1
 399 108.44 l 1
 446 112.32 473 124.93 489 159.85 c 0
 500 180.22 505 210.29 505 248.12 c 2
 505 540.09 l 1
 645 540.09 l 1
 645 220.96 l 2
EndSplineSet
EndChar
StartChar: omega
Encoding: 969 969 394
Width: 800
Flags: W
HStem: -14.7002 115.9<218 228 511 524>
VStem: 11 134<224 258> 303 134<160 386> 595 134<224 258>
Fore
729 246.55 m 0
 729 132.741 686.208 47.4766 608 6.2002 c 0
 581 -8.0498 550 -14.7002 514 -14.7002 c 0
 448.685 -14.7002 400.586 11.1572 370 49.9004 c 5
 339.467 11.2256 290.455 -14.7002 226 -14.7002 c 4
 148.481 -14.7002 95.9717 20.6455 63 64.1504 c 0
 30.5225 109.522 11 170.899 11 246.55 c 0
 11 321.524 40.7031 406.479 72 461.25 c 0
 92 496.4 116 523.95 144 543.9 c 1
 273 504.95 l 1
 204.299 433.612 145 365.558 145 240.85 c 0
 145 200.95 152 165.8 167 136.35 c 0
 180 112.6 200 101.2 228 101.2 c 0
 265.842 102.912 261.634 101.837 282 119.25 c 0
 296 131.6 303 146.8 303 162.95 c 2
 303 398.55 l 1
 437 398.55 l 1
 437 162.95 l 2
 437 132.939 460.456 114.62 479 104.05 c 0
 480 103.1 491 102.15 511 101.2 c 0
 540 101.2 560 112.6 573 136.35 c 0
 588 165.8 595 200.95 595 240.85 c 0
 595 305.668 578 355.325 554 399.5 c 0
 540.233 424.84 511 459.35 468 504 c 1
 597 544.85 l 1
 654.604 498.233 688.888 432.694 712 354.85 c 0
 723 317.8 729 281.7 729 246.55 c 0
EndSplineSet
EndChar
StartChar: afii10023
Encoding: 1025 1025 401
Width: 709
Flags: W
HStem: 0 125<232 627> 314 125<232 581> 604 125<232 609> 800 122<200 310 386 496>
VStem: 82 150<124 314 438 604> 200 110<800 922> 386 110<800 922>
Fore
232 314 m 1
 232 125 l 1
 627 125 l 1
 627 0 l 1
 82 0 l 1
 82 729 l 1
 609 729 l 1
 609 604 l 1
 232 604 l 1
 232 439 l 1
 581 439 l 1
 581 314 l 1
 232 314 l 1
310 922 m 1
 310 800 l 1
 200 800 l 1
 200 922 l 1
 310 922 l 1
496 922 m 1
 496 800 l 1
 386 800 l 1
 386 922 l 1
 496 922 l 1
EndSplineSet
EndChar
StartChar: afii10051
Encoding: 1026 1026 402
Width: 790
Flags: W
HStem: 0 21G<202 353> 379 125<353 529> 605 124<14 202 352 536>
VStem: 202 151<0 378 503 605> 608 150<-1 327>
Fore
352 504 m 1
 540 504 l 2
 607.333 504 663 482.333 707 439 c 0
 741 405.667 758 367.333 758 324 c 2
 758 323 l 1
 758 0 l 1
 750.98 -53.6063 747.366 -113.174 668 -146 c 5
 585.074 -165.096 586.861 -158.673 538 -163.136 c 5
 468 -164 l 5
 468 -70 l 5
 528 -70 l 5
 576.41 -69.3896 603.465 -51.1691 608 0 c 1
 608 317 l 2
 608 349 589.667 368.667 553 376 c 1
 528 379 l 1
 353 379 l 1
 353 0 l 1
 202 0 l 1
 202 605 l 1
 14 605 l 1
 14 729 l 1
 536 729 l 1
 536 605 l 1
 352 605 l 1
 352 504 l 1
EndSplineSet
EndChar
StartChar: afii10052
Encoding: 1027 1027 403
Width: 611
Flags: W
HStem: 0 21G<74 224> 604 125<224 586>
VStem: 74 150<0 604>
Fore
224 0 m 1
 74 0 l 1
 74 729 l 1
 586 729 l 1
 586 604 l 1
 224 604 l 1
 224 0 l 1
428 979 m 1
 302 829 l 1
 232 829 l 1
 302 979 l 1
 428 979 l 1
EndSplineSet
EndChar
StartChar: afii10053
Encoding: 1028 1028 404
Width: 722
Flags: W
HStem: -23 126<363 397> 311 125<197 488> 613 128<363 397>
Fore
488 311 m 1
 196 311 l 1
 208 179 273 103 378 103 c 0
 471 103 530 156 539 249 c 1
 685 249 l 1
 676 82 555 -23 374 -23 c 0
 171 -23 44 124 44 358 c 0
 44 594 172 741 378 741 c 0
 487 741 577 700 633 626 c 0
 664 585 677 545 682 482 c 1
 539 482 l 1
 530 521 522 540 506 560 c 0
 478 595 435 613 383 613 c 0
 286 613 217 548 197 436 c 1
 488 436 l 1
 488 311 l 1
EndSplineSet
EndChar
StartChar: afii10054
Encoding: 1029 1029 405
Width: 667
Flags: W
HStem: -23 120<319 354> 621 120<303 336>
VStem: 45 143<515 538> 489 143.371<193 202>
Fore
607 507 m 1
 467 507 l 1
 462 581 409 621 314 621 c 0
 237 621 188 586 188 531 c 0
 188 478 219 457 326 436 c 2
 440 414 l 2
 575 388 633 328 633 213 c 0
 633 65 522 -23 334 -23 c 0
 148 -23 41 62 32 218 c 1
 178 218 l 1
 183 140 240 97 342 97 c 0
 433 97 489 134 489 195 c 0
 489 254 452 282 352 301 c 2
 250 321 l 2
 102 349 45 404 45 517 c 0
 45 659 146 741 321 741 c 0
 426 741 507 712 556 658 c 0
 592 618 607 574 607 507 c 1
EndSplineSet
EndChar
StartChar: afii10058
Encoding: 1033 1033 409
Width: 1110
Flags: W
HStem: 0 125<657 846> 0 145<46.0314 57.8374> 310 125<657 815> 604 125<284 507>
VStem: 135 150<369.013 604> 507 150<125 309 434 604> 913 151<183 209>
Fore
507 0 m 1
 507 604 l 1
 285 604 l 1
 285 414 l 2
 285 195.333 235.667 63.3333 137 18 c 0
 110.333 6 80 0 46 0 c 1
 46 145 l 1
 82.6667 144.333 107.333 176 120 240 c 0
 130 287.333 135 360.667 135 460 c 2
 135 461 l 1
 135 729 l 1
 657 729 l 1
 657 435 l 1
 844 435 l 2
 926.667 435 987.667 403 1027 339 c 0
 1051.67 299 1064 250.333 1064 193 c 2
 1064 192 l 2
 1064 80 1018.33 43.333 927 14 c 0
 898.333 4.66699 865.667 0 829 0 c 2
 507 0 l 1
657 310 m 1
 657 125 l 1
 797 125 l 2
 869 125 907.667 121.667 913 183 c 0
 913.667 188.333 914 194 914 200 c 2
 914 201 l 2
 914 268.333 881 304.333 815 309 c 2
 814 309 l 1
 813 310 l 1
 797 310 l 1
 657 310 l 1
EndSplineSet
EndChar
StartChar: afii10059
Encoding: 1034 1034 410
Width: 1113
Flags: W
HStem: 0 125<657 805> 311 125<218 506> 344 125<657 805> 709 20G<68 218 506 657>
VStem: 68 150<0 311 436 729> 507 150<125 311 468 729> 914 150<223 241>
Fore
657 729 m 1
 657 469 l 1
 844 469 l 2
 978 469 1064 374 1064 226 c 0
 1064 80 981 0 829 0 c 2
 507 0 l 1
 507 311 l 1
 218 311 l 1
 218 0 l 1
 68 0 l 1
 68 729 l 1
 218 729 l 1
 218 436 l 1
 506 436 l 1
 506 729 l 1
 657 729 l 1
657 344 m 1
 657 125 l 1
 797 125 l 2
 877 125 914 160 914 235 c 0
 914 309 877 344 797 344 c 2
 657 344 l 1
EndSplineSet
EndChar
StartChar: afii10060
Encoding: 1035 1035 411
Width: 790
Flags: W
HStem: 0 21G<202 353 608 758> 379 125<353 529> 605 124<14 202 352 536>
VStem: 202 151<0 378 503 605> 608 150<0 327>
Fore
352 504 m 1
 540 504 l 2
 607.333 504 663 482.333 707 439 c 0
 741 405.667 758 367.333 758 324 c 2
 758 323 l 1
 758 0 l 1
 608 0 l 1
 608 317 l 2
 608 349 589.667 368.667 553 376 c 1
 528 379 l 1
 353 379 l 1
 353 0 l 1
 202 0 l 1
 202 605 l 1
 14 605 l 1
 14 729 l 1
 536 729 l 1
 536 605 l 1
 352 605 l 1
 352 504 l 1
EndSplineSet
EndChar
StartChar: afii10061
Encoding: 1036 1036 412
Width: 722
Flags: W
HStem: 0 21G<74 224 538 717> 709 20G<74 224 509 686>
VStem: 74 150<0 285 450 729>
Fore
224 0 m 1
 74 0 l 1
 74 729 l 1
 224 729 l 1
 224 450 l 1
 509 729 l 1
 686 729 l 1
 320 378 l 1
 717 0 l 1
 538 0 l 1
 224 285 l 1
 224 0 l 1
478 929 m 1
 352 779 l 1
 282 779 l 1
 352 929 l 1
 478 929 l 1
EndSplineSet
EndChar
StartChar: uni040D
Encoding: 1037 1037 413
Width: 726
Flags: W
HStem: 0 21G<68 218 511 661> 709 20G<68 218 507 661>
VStem: 68 150<233 729> 511 150<0 504>
Fore
218 0 m 1
 68 0 l 1
 68 729 l 1
 218 729 l 1
 218 233 l 1
 507 729 l 1
 661 729 l 1
 661 0 l 1
 511 0 l 1
 511 504 l 1
 218 0 l 1
266 929 m 1
 392 929 l 1
 462 779 l 1
 392 779 l 1
 266 929 l 1
EndSplineSet
EndChar
StartChar: afii10062
Encoding: 1038 1038 414
Width: 718
Flags: W
HStem: 0 21G<154 328> 709 20G<15 178 522 696> 779 77<348 368>
Fore
328 0 m 1
 154 0 l 1
 268 226 l 1
 15 729 l 1
 178 729 l 1
 350 384 l 1
 522 729 l 1
 696 729 l 1
 328 0 l 1
488 922 m 1
 488 911 l 2
 488 836 431 779 356 779 c 128
 281 779 224 836 224 912 c 2
 224 922 l 1
 280 922 l 1
 286 878 311 856 357 856 c 0
 401 856 424 876 432 922 c 1
 488 922 l 1
EndSplineSet
EndChar
StartChar: afii10145
Encoding: 1039 1039 415
Width: 722
Flags: W
HStem: 0 125<217 298 428 508> 709 20G<68 218 508 658>
VStem: 68 150<125 729> 298 130<-150 0> 508 150<125 729>
Fore
428 0 m 1
 428 -150 l 1
 298 -150 l 1
 298 0 l 1
 68 0 l 1
 68 729 l 1
 218 729 l 1
 218 125 l 1
 508 125 l 1
 508 729 l 1
 658 729 l 1
 658 0 l 1
 428 0 l 1
EndSplineSet
EndChar
StartChar: afii10018
Encoding: 1041 1041 417
Width: 722
Flags: W
HStem: 0 125<232 419> 338 125<232 419> 604 125<232 594>
VStem: 82 150<125 337 462 604> 522 144<220 241>
Fore
395 463 m 2
 618 463 666 294 666 222 c 0
 666 164 638 90 594 53 c 128
 550 16 494 0 410 0 c 2
 82 0 l 1
 82 729 l 1
 594 729 l 1
 594 604 l 1
 232 604 l 1
 232 463 l 1
 395 463 l 2
232 338 m 1
 232 125 l 1
 411 125 l 2
 484 125 522 170 522 231 c 0
 522 293 484 338 411 338 c 2
 232 338 l 1
EndSplineSet
EndChar
StartChar: afii10020
Encoding: 1043 1043 419
Width: 611
Flags: W
HStem: 0 21G<82 232> 604 125<232 594>
VStem: 82 150<0 604>
Fore
232 0 m 1
 82 0 l 1
 82 729 l 1
 594 729 l 1
 594 604 l 1
 232 604 l 1
 232 0 l 1
EndSplineSet
EndChar
StartChar: afii10021
Encoding: 1044 1044 420
Width: 900
Flags: W
HStem: 0 125<333 600> 604 125<379 600>
VStem: 35 130<-150 0> 230 150<409 603> 600 150<125 603> 735 130<-150 0>
Back
315 82 m 5
 646 82 l 5
 646 647 l 5
 384 647 l 5
 384 481 400 215 315 82 c 5
179 74 m 5
 304 132 290 424 290 729 c 5
 740 729 l 5
 740 74 l 5
 831 74 l 5
 831 -135 l 5
 751 -135 l 5
 751 0 l 5
 167 0 l 5
 167 -135 l 5
 87 -135 l 5
 87 74 l 5
 179 74 l 5
EndSplineSet
Fore
139 108 m 2
 192 108 230 255 230 461 c 2
 230 729 l 1
 750 729 l 1
 750 108 l 1
 865 108 l 1
 865 -150 l 1
 735 -150 l 1
 735 0 l 1
 165 0 l 1
 165 -150 l 1
 35 -150 l 1
 35 108 l 1
 139 108 l 2
333 125 m 1
 600 125 l 1
 600 604 l 1
 380 604 l 1
 380 414 l 2
 380 319 373 209 333 125 c 1
EndSplineSet
EndChar
StartChar: afii10022
Encoding: 1045 1045 421
Width: 709
Flags: W
HStem: 0 125<232 627> 314 125<232 581> 604 125<232 609>
VStem: 82 150<124 314 438 604>
Fore
232 314 m 1
 232 125 l 1
 627 125 l 1
 627 0 l 1
 82 0 l 1
 82 729 l 1
 609 729 l 1
 609 604 l 1
 232 604 l 1
 232 439 l 1
 581 439 l 1
 581 314 l 1
 232 314 l 1
EndSplineSet
EndChar
StartChar: afii10024
Encoding: 1046 1046 422
Width: 1093
Flags: W
HStem: 0 21G<22 206 475 625 894 1078> 709 20G<66 230 475 625 870 1034>
VStem: 475 150<0 285 450 729>
Fore
475 285 m 1
 206 0 l 1
 22 0 l 1
 379 378 l 1
 66 729 l 1
 230 729 l 1
 475 450 l 1
 475 729 l 1
 625 729 l 1
 625 450 l 1
 870 729 l 1
 1034 729 l 1
 721 378 l 1
 1078 0 l 1
 894 0 l 1
 625 285 l 1
 625 0 l 1
 475 0 l 1
 475 285 l 1
EndSplineSet
EndChar
StartChar: afii10025
Encoding: 1047 1047 423
Width: 672
Flags: W
HStem: -23 120<319 354> 621 120<319 354>
VStem: 464 143<515 538> 489 143.371<193 202>
Fore
250 428 m 1
 326 428 l 2
 435 428 464 478 464 531 c 0
 464 586 415 621 338 621 c 0
 243 621 190 581 185 507 c 1
 45 507 l 1
 45 574 60 618 96 658 c 0
 145 712 226 741 331 741 c 0
 506 741 607 659 607 517 c 0
 607 453 587 409 544 377 c 1
 606 343 633 293 633 213 c 0
 633 65 522 -23 334 -23 c 0
 148 -23 41 62 32 218 c 1
 178 218 l 1
 183 140 240 97 342 97 c 0
 433 97 489 134 489 195 c 0
 489 254 454 308 352 308 c 2
 250 308 l 1
 250 428 l 1
EndSplineSet
EndChar
StartChar: afii10026
Encoding: 1048 1048 424
Width: 757
Flags: W
HStem: 0 21G<82 232 525 675> 709 20G<82 232 521 675>
VStem: 82 150<233 729> 525 150<0 504>
Fore
232 0 m 1
 82 0 l 1
 82 729 l 1
 232 729 l 1
 232 233 l 1
 521 729 l 1
 675 729 l 1
 675 0 l 1
 525 0 l 1
 525 504 l 1
 232 0 l 1
EndSplineSet
EndChar
StartChar: afii10027
Encoding: 1049 1049 425
Width: 757
Flags: W
HStem: 0 21G<82 232 525 675> 709 20G<82 232 521 675> 784 77<369 387>
VStem: 82 150<233 729> 525 150<0 504>
Fore
507 927 m 1
 507 916 l 2
 507 841 450 784 375 784 c 128
 300 784 243 841 243 917 c 2
 243 927 l 1
 299 927 l 1
 305 883 330 861 376 861 c 0
 420 861 442 881 451 927 c 1
 507 927 l 1
232 0 m 1
 82 0 l 1
 82 729 l 1
 232 729 l 1
 232 233 l 1
 521 729 l 1
 675 729 l 1
 675 0 l 1
 525 0 l 1
 525 504 l 1
 232 0 l 1
EndSplineSet
EndChar
StartChar: afii10028
Encoding: 1050 1050 426
Width: 750
Flags: W
HStem: 0 21G<82 232 525 725> 709 20G<82 232 517 694>
VStem: 82 150<0 285 450 729>
Fore
232 0 m 1
 82 0 l 1
 82 729 l 1
 232 729 l 1
 232 450 l 1
 517 729 l 1
 694 729 l 1
 328 378 l 1
 725 0 l 1
 525 0 l 1
 232 285 l 1
 232 0 l 1
EndSplineSet
EndChar
StartChar: afii10029
Encoding: 1051 1051 427
Width: 729
Flags: W
HStem: -12 145<36.2504 48.8969> 0 21G<497 647> 604 125<274 497>
VStem: 125 150<371 604> 497 150<0 604>
Back
520 647 m 1
 258 647 l 1
 258 422 280 0 53 0 c 1
 53 94 l 1
 178 94 164 424 164 729 c 1
 614 729 l 1
 614 0 l 1
 520 0 l 1
 520 647 l 1
EndSplineSet
Fore
497 604 m 1
 275 604 l 1
 275 400 l 2
 275 223 248 -12 36 -12 c 1
 36 133 l 1
 107 132 125 228 125 447 c 2
 125 729 l 1
 647 729 l 1
 647 0 l 1
 497 0 l 1
 497 604 l 1
EndSplineSet
EndChar
StartChar: afii10030
Encoding: 1052 1052 428
Width: 874
Flags: W
HStem: 0 21G<82 232 363 513 642 792> 709 20G<82 306 566 792>
VStem: 82 150<0 568> 642 150<0 568>
Fore
232 568 m 1
 232 0 l 1
 82 0 l 1
 82 729 l 1
 306 729 l 1
 438 149 l 1
 566 729 l 1
 792 729 l 1
 792 0 l 1
 642 0 l 1
 642 568 l 1
 513 0 l 1
 363 0 l 1
 232 568 l 1
EndSplineSet
EndChar
StartChar: afii10031
Encoding: 1053 1053 429
Width: 753
Flags: W
HStem: 0 21G<82 232 521 671> 331 125<232 520> 709 20G<82 232 520 671>
VStem: 82 150<0 331 456 729> 521 150<0 331 456 729>
Fore
521 331 m 1
 232 331 l 1
 232 0 l 1
 82 0 l 1
 82 729 l 1
 232 729 l 1
 232 456 l 1
 520 456 l 1
 520 729 l 1
 671 729 l 1
 671 0 l 1
 521 0 l 1
 521 331 l 1
EndSplineSet
EndChar
StartChar: afii10033
Encoding: 1055 1055 431
Width: 753
Flags: W
HStem: 0 21G<82 232 521 671> 604 125<232 521>
VStem: 82 150<0 604> 521 150<0 604>
Fore
521 604 m 1
 232 604 l 1
 232 0 l 1
 82 0 l 1
 82 729 l 1
 671 729 l 1
 671 0 l 1
 521 0 l 1
 521 604 l 1
EndSplineSet
EndChar
StartChar: afii10034
Encoding: 1056 1056 432
Width: 671
Flags: W
HStem: 0 21G<82 232> 260 125<232 387> 604 125<232 387>
VStem: 82 150<0 260 385 604> 489 150<479 513>
Fore
232 260 m 1
 232 0 l 1
 82 0 l 1
 82 729 l 1
 404 729 l 2
 556 729 639 649 639 503 c 0
 639 355 553 260 419 260 c 2
 232 260 l 1
232 385 m 1
 372 385 l 2
 452 385 489 420 489 494 c 0
 489 569 452 604 372 604 c 2
 232 604 l 1
 232 385 l 1
EndSplineSet
EndChar
StartChar: afii10037
Encoding: 1059 1059 435
Width: 718
Flags: W
HStem: 0 21G<154 328> 709 20G<15 178 522 696>
Fore
328 0 m 1
 154 0 l 1
 268 226 l 1
 15 729 l 1
 178 729 l 1
 350 384 l 1
 522 729 l 1
 696 729 l 1
 328 0 l 1
EndSplineSet
EndChar
StartChar: afii10038
Encoding: 1060 1060 436
Width: 892
Flags: W
HStem: 0 21G<371 521> 94 94<317 371 521.062 588.056> 540 98<333 371 521.124 570.889> 709 20G<371 521>
VStem: 30 134<351 385> 371 150<0 94 188 540 637 729> 728 134<351 385>
Fore
371 0 m 1
 371 94 l 1
 306 94 30 72 30 374 c 0
 30 652 282 638 371 638 c 1
 371 729 l 1
 521 729 l 1
 521 638 l 1
 610 638 862 652 862 374 c 0
 862 72 586 94 521 94 c 1
 521 0 l 1
 371 0 l 1
371 188 m 1
 371 540 l 1
 314 540 164 548 164 370 c 0
 164 170 309 188 371 188 c 1
521 188 m 1
 583 188 728 170 728 370 c 0
 728 548 578 540 521 540 c 1
 521 188 l 1
EndSplineSet
EndChar
StartChar: afii10040
Encoding: 1062 1062 438
Width: 816
Flags: W
HStem: 0 125<231 521> 709 20G<82 232 521 671>
VStem: 82 150<125 729> 521 150<125 729> 651 130<-150 0>
Fore
521 125 m 1
 521 729 l 1
 671 729 l 1
 671 108 l 1
 781 108 l 1
 781 -150 l 1
 651 -150 l 1
 651 0 l 1
 82 0 l 1
 82 729 l 1
 232 729 l 1
 232 125 l 1
 521 125 l 1
EndSplineSet
EndChar
StartChar: afii10041
Encoding: 1063 1063 439
Width: 685
Flags: W
HStem: 0 21G<474 624> 225 125<284 473> 709 20G<68 218 473 624>
VStem: 68 150<404 729> 474 150<0 225 350 729>
Fore
474 225 m 1
 286 225 l 2
 168 225 68 306 68 406 c 2
 68 729 l 1
 218 729 l 1
 218 412 l 2
 218 366 262 350 298 350 c 2
 473 350 l 1
 473 729 l 1
 624 729 l 1
 624 0 l 1
 474 0 l 1
 474 225 l 1
EndSplineSet
EndChar
StartChar: afii10042
Encoding: 1064 1064 440
Width: 1057
Flags: W
HStem: 0 125<217 437 586 817> 709 20G<68 218 437 587 817 967>
VStem: 68 150<125 729> 437 150<125 729> 817 150<125 729>
Fore
967 0 m 1
 68 0 l 1
 68 729 l 1
 218 729 l 1
 218 125 l 1
 437 125 l 1
 437 729 l 1
 587 729 l 1
 587 125 l 1
 817 125 l 1
 817 729 l 1
 967 729 l 1
 967 0 l 1
EndSplineSet
EndChar
StartChar: afii10043
Encoding: 1065 1065 441
Width: 1183
Flags: W
HStem: 0 125<217 447 596 827> 709 20G<68 218 447 597 827 977>
VStem: 68 150<125 729> 447 150<125 729> 827 150<125 729> 962 135<-150 0>
Fore
962 0 m 1
 68 0 l 1
 68 729 l 1
 218 729 l 1
 218 125 l 1
 447 125 l 1
 447 729 l 1
 597 729 l 1
 597 125 l 1
 827 125 l 1
 827 729 l 1
 977 729 l 1
 977 108 l 1
 1097 108 l 1
 1097 -150 l 1
 962 -150 l 1
 962 0 l 1
EndSplineSet
EndChar
StartChar: afii10044
Encoding: 1066 1066 442
Width: 928
Flags: W
HStem: 0 125<394 543> 344 125<394 543> 604 125<14 244>
VStem: 244 150<125 344 468 604> 651 150<223 241>
Fore
394 469 m 1
 581 469 l 2
 715 469 801 374 801 226 c 0
 801 80 718 0 566 0 c 2
 244 0 l 1
 244 604 l 1
 14 605 l 1
 14 729 l 1
 394 729 l 1
 394 469 l 1
394 344 m 1
 394 125 l 1
 534 125 l 2
 614 125 651 160 651 235 c 0
 651 309 614 344 534 344 c 2
 394 344 l 1
EndSplineSet
EndChar
StartChar: afii10045
Encoding: 1067 1067 443
Width: 949
Flags: W
HStem: 0 125<218 373> 344 125<218 373> 709 20G<68 218 734 884>
VStem: 68 150<125 344 468 729> 475 150<223 241> 734 150<0 729>
Fore
884 729 m 1
 884 0 l 1
 734 0 l 1
 734 729 l 1
 884 729 l 1
218 469 m 1
 405 469 l 2
 539 469 625 374 625 226 c 0
 625 80 542 0 390 0 c 2
 68 0 l 1
 68 729 l 1
 218 729 l 1
 218 469 l 1
218 344 m 1
 218 125 l 1
 358 125 l 2
 438 125 475 160 475 235 c 0
 475 309 438 344 358 344 c 2
 218 344 l 1
EndSplineSet
EndChar
StartChar: afii10046
Encoding: 1068 1068 444
Width: 687
Flags: W
HStem: 0 125<226 381> 344 125<226 381> 709 20G<76 226>
VStem: 76 150<125 344 468 729> 483 150<223 241>
Fore
226 469 m 1
 413 469 l 2
 547 469 633 374 633 226 c 0
 633 80 550 0 398 0 c 2
 76 0 l 1
 76 729 l 1
 226 729 l 1
 226 469 l 1
226 344 m 1
 226 125 l 1
 366 125 l 2
 446 125 483 160 483 235 c 0
 483 309 446 344 366 344 c 2
 226 344 l 1
EndSplineSet
EndChar
StartChar: afii10047
Encoding: 1069 1069 445
Width: 722
Flags: W
HStem: -23 126<331 365> 311 125<241 532> 613 128<331 365>
Fore
241 311 m 1
 241 436 l 1
 532 436 l 1
 512 548 443 613 346 613 c 0
 294 613 251 595 223 560 c 0
 207 540 199 521 190 482 c 1
 47 482 l 1
 52 545 65 585 96 626 c 0
 152 700 242 741 351 741 c 0
 557 741 685 594 685 358 c 0
 685 124 558 -23 355 -23 c 0
 174 -23 53 82 44 249 c 1
 190 249 l 1
 199 156 258 103 351 103 c 0
 456 103 521 179 533 311 c 1
 241 311 l 1
EndSplineSet
EndChar
StartChar: afii10048
Encoding: 1070 1070 446
Width: 1109
Flags: W
HStem: -23 128<691 709> 0 21G<68 218> 311 125<218 364> 613 128<691 709> 709 20G<68 218>
VStem: 68 150<0 311 436 729> 893 150<328 378>
Fore
367 436 m 1
 380 515 414 587 463 640 c 0
 525 707 599 741 701 741 c 0
 806 741 877 709 941 640 c 0
 1006 570 1043 468 1043 354 c 0
 1043 251 1004 145 941 78 c 0
 878 10 806 -23 702 -23 c 128
 598 -23 526 10 463 78 c 0
 408 137 373 220 364 311 c 1
 218 311 l 1
 218 0 l 1
 68 0 l 1
 68 729 l 1
 218 729 l 1
 218 436 l 1
 367 436 l 1
702 613 m 0
 581 613 511 512 511 359 c 128
 511 206 581 105 702 105 c 0
 822 105 893 206 893 355 c 0
 893 513 825 613 702 613 c 0
EndSplineSet
EndChar
StartChar: afii10049
Encoding: 1071 1071 447
Width: 698
Flags: W
HStem: 0 21G<22 201 483 633> 604 125<325 483>
VStem: 76 150<479 513> 483 150<0 260 385 604>
Fore
422 260 m 1
 201 0 l 1
 22 0 l 1
 242 265 l 1
 154 282 76 364 76 503 c 0
 76 649 159 729 311 729 c 2
 633 729 l 1
 633 0 l 1
 483 0 l 1
 483 260 l 1
 422 260 l 1
483 385 m 1
 483 604 l 1
 343 604 l 2
 263 604 226 569 226 494 c 0
 226 420 263 385 343 385 c 2
 483 385 l 1
EndSplineSet
EndChar
StartChar: afii10066
Encoding: 1073 1073 449
Width: 606
Flags: W
HStem: -23 117<303 309> 432 117<307 338>
VStem: 50.5392 138.461<260 282> 425 140<248 282>
Fore
438 776 m 1
 542 777 l 1
 542 736 542 690 509 666 c 0
 426 606 334 642 253 592 c 0
 204 562 170 516 169 462 c 1
 204 532 271 549 338 549 c 0
 404 549 470 515 507 462 c 0
 543 410 565 336 565 263 c 0
 565 100 476 -23 305 -23 c 0
 143 -23 50 50 50 292 c 0
 50 428 68 603 196 684 c 0
 241 712 322 716 386 724 c 0
 434 730 438 776 438 776 c 1
307 432 m 0
 237 432 189 363 189 265 c 0
 189 162 236 94 307 94 c 0
 376 94 425 164 425 262 c 0
 425 362 376 432 307 432 c 0
EndSplineSet
EndChar
StartChar: afii10067
Encoding: 1074 1074 450
Width: 572
Flags: W
HStem: 0 110<200 317> 223 110<200 317> 430 110<200 317>
VStem: 60 140<110 223 333 430> 368 135<379 398> 379 139<155 172>
Fore
60 0 m 1
 60 540 l 1
 326 540 l 2
 384 540 422 529 454 501 c 0
 484 475 503 435 503 398 c 0
 503 352 474 300 429 286 c 1
 490 268 518 208 518 155 c 0
 518 112 498 66 465 39 c 0
 432 11 391 0 329 0 c 2
 60 0 l 1
200 430 m 1
 200 333 l 1
 294 333 l 2
 345 333 368 341 368 380 c 0
 368 420 345 430 294 430 c 2
 200 430 l 1
200 223 m 1
 200 110 l 1
 300 110 l 2
 354 110 379 125 379 170 c 0
 379 216 354 223 300 223 c 2
 200 223 l 1
EndSplineSet
EndChar
StartChar: afii10068
Encoding: 1075 1075 451
Width: 454
Flags: W
HStem: 0 21G<60 200> 427 113<200 408>
VStem: 60 140<0 427>
Fore
408 540 m 1
 408 427 l 1
 200 427 l 1
 200 0 l 1
 60 0 l 1
 60 540 l 1
 408 540 l 1
EndSplineSet
EndChar
StartChar: afii10069
Encoding: 1076 1076 452
Width: 685
Flags: W
HStem: 0 113<263 440> 427 113<301 440>
VStem: 23 110<-125 0> 162 140<354 427> 440 140<113 427> 552 110<-125 0>
Fore
580 101 m 1
 662 101 l 1
 662 -125 l 1
 552 -125 l 1
 552 0 l 1
 133 0 l 1
 133 -125 l 1
 23 -125 l 1
 23 101 l 1
 85 101 l 2
 138 102 162 252 162 388 c 2
 162 540 l 1
 580 540 l 1
 580 101 l 1
263 113 m 1
 440 113 l 1
 440 427 l 1
 302 427 l 1
 302 376 l 2
 302 259 290 174 263 113 c 1
EndSplineSet
EndChar
StartChar: afii10072
Encoding: 1078 1078 454
Width: 809
Flags: W
HStem: 0 21G<16 195 332 472 609 788> 520 20G<52 200 332 472 604 752>
VStem: 332 140<0 198 351 540>
Fore
332 198 m 1
 195 0 l 1
 16 0 l 1
 229 296 l 1
 52 540 l 1
 200 540 l 1
 332 351 l 1
 332 540 l 1
 472 540 l 1
 472 351 l 1
 604 540 l 1
 752 540 l 1
 575 296 l 1
 788 0 l 1
 609 0 l 1
 472 198 l 1
 472 0 l 1
 332 0 l 1
 332 198 l 1
EndSplineSet
EndChar
StartChar: afii10073
Encoding: 1079 1079 455
Width: 546
Flags: W
HStem: -23 110<268 300> 439 110<268 302>
VStem: 48 135<366 378> 365 140<360 389> 380 140<139 160>
Fore
206 208 m 1
 206 318 l 1
 300 318 l 2
 372 318 365 367 365 389 c 0
 365 419 333 439 284 439 c 0
 217 439 184 415 183 366 c 1
 48 366 l 1
 50 480 138 549 283 549 c 0
 420 549 505 480 505 369 c 0
 505 333 494 302 475 281 c 0
 471 277 465 274 461 271 c 1
 501 246 520 213 520 160 c 0
 520 107 496 57 456 25 c 128
 416 -7 359 -23 284 -23 c 0
 120 -23 33 39 29 157 c 1
 166 157 l 1
 172 128 178 117 193 106 c 0
 211 94 240 87 276 87 c 0
 341 87 380 107 380 140 c 0
 380 162 382 208 298 208 c 2
 206 208 l 1
EndSplineSet
EndChar
StartChar: afii10074
Encoding: 1080 1080 456
Width: 615
Flags: W
HStem: 0 21G<60 220 415 555> 520 20G<60 200 395 555>
VStem: 60 140<202 540> 415 140<0 337>
Fore
60 540 m 1
 200 540 l 1
 200 202 l 1
 395 540 l 1
 555 540 l 1
 555 0 l 1
 415 0 l 1
 415 338 l 1
 220 0 l 1
 60 0 l 1
 60 540 l 1
EndSplineSet
EndChar
StartChar: afii10075
Encoding: 1081 1081 457
Width: 615
Flags: W
HStem: 0 21G<60 220 415 555> 520 20G<60 200 395 555> 580 77<299 317> 703 20G<176 232 384 440>
VStem: 60 140<202 540> 415 140<0 337>
Fore
60 540 m 1
 200 540 l 1
 200 202 l 1
 395 540 l 1
 555 540 l 1
 555 0 l 1
 415 0 l 1
 415 338 l 1
 220 0 l 1
 60 0 l 1
 60 540 l 1
440 723 m 1
 440 712 l 2
 440 637 383 580 308 580 c 128
 233 580 176 637 176 713 c 2
 176 723 l 1
 232 723 l 1
 238 679 263 657 309 657 c 0
 353 657 376 677 384 723 c 1
 440 723 l 1
EndSplineSet
EndChar
StartChar: afii10076
Encoding: 1082 1082 458
Width: 573
Flags: W
HStem: 0 21G<60 200 367 549> 520 20G<60 200 362 510>
VStem: 60 140<0 198 351 540>
Fore
200 351 m 1
 362 540 l 1
 510 540 l 1
 296 296 l 1
 549 0 l 1
 367 0 l 1
 200 198 l 1
 200 0 l 1
 60 0 l 1
 60 540 l 1
 200 540 l 1
 200 351 l 1
EndSplineSet
EndChar
StartChar: afii10077
Encoding: 1083 1083 459
Width: 577
Flags: W
HStem: -10 135<29 31> 0 21G<377 517> 427 113<243 377>
VStem: 104 140<325 427> 377 140<0 427>
Back
148 524 m 5
 487 524 l 5
 487 0 l 5
 403 0 l 5
 403 448 l 5
 231 448 l 5
 232 292 236 0 70 0 c 5
 70 80 l 5
 150 80 148 292 148 524 c 5
EndSplineSet
Fore
104 540 m 1
 517 540 l 1
 517 0 l 1
 377 0 l 1
 377 427 l 1
 244 427 l 1
 244 366 l 2
 244 102 182 -10 29 -10 c 1
 29 125 l 1
 102 126 104 242 104 378 c 2
 104 540 l 1
EndSplineSet
EndChar
StartChar: afii10078
Encoding: 1084 1084 460
Width: 666
Flags: W
HStem: 0 21G<60 200 297 369 466 606> 520 20G<60 235 431 606>
VStem: 60 140<0 297> 466 140<0 297>
Fore
369 0 m 1
 297 0 l 1
 200 297 l 1
 200 0 l 1
 60 0 l 1
 60 540 l 1
 235 540 l 1
 333 213 l 1
 431 540 l 1
 606 540 l 1
 606 0 l 1
 466 0 l 1
 466 297 l 1
 369 0 l 1
EndSplineSet
EndChar
StartChar: afii10079
Encoding: 1085 1085 461
Width: 603
Flags: W
HStem: 0 21G<60 200 403 543> 207 113<200 403> 520 20G<60 200 403 543>
VStem: 60 140<0 207 320 540> 403 140<0 207 320 540>
Fore
60 540 m 1
 200 540 l 1
 200 320 l 1
 403 320 l 1
 403 540 l 1
 543 540 l 1
 543 0 l 1
 403 0 l 1
 403 207 l 1
 200 207 l 1
 200 0 l 1
 60 0 l 1
 60 540 l 1
EndSplineSet
EndChar
StartChar: afii10081
Encoding: 1087 1087 463
Width: 603
Flags: W
HStem: 0 21G<60 200 403 543> 427 113<200 403>
VStem: 60 140<0 427> 403 140<0 427>
Fore
60 540 m 1
 543 540 l 1
 543 0 l 1
 403 0 l 1
 403 427 l 1
 200 427 l 1
 200 0 l 1
 60 0 l 1
 60 540 l 1
EndSplineSet
EndChar
StartChar: afii10082
Encoding: 1088 1088 464
Width: 611
Flags: W
HStem: -24 117<317 350> 432 117<317 350> 520 20G<60 200>
VStem: 60 140<-218 64 245 279 460 540> 436 140<245 279>
Fore
200 540 m 1
 200 460 l 1
 234 520 282 549 350 549 c 0
 415 549 482 515 518 464 c 0
 554 414 576 338 576 262 c 0
 576 98 480 -24 350 -24 c 0
 282 -24 234 4 200 64 c 1
 200 -218 l 1
 60 -218 l 1
 60 540 l 1
 200 540 l 1
318 432 m 0
 248 432 200 363 200 262 c 128
 200 161 248 93 318 93 c 0
 387 93 436 162 436 260 c 0
 436 363 389 432 318 432 c 0
EndSplineSet
EndChar
StartChar: afii10084
Encoding: 1090 1090 466
Width: 454
Flags: W
HStem: 0 21G<156 296> 427 113<21 156 296 431>
VStem: 156 140<0 427>
Fore
431 540 m 1
 431 427 l 1
 296 427 l 1
 296 0 l 1
 156 0 l 1
 156 427 l 1
 21 427 l 1
 21 540 l 1
 431 540 l 1
EndSplineSet
EndChar
StartChar: afii10086
Encoding: 1092 1092 468
Width: 957
Flags: W
HStem: -24 117<254 286 662 694> 432 117<254 286 662 694> 699 20G<404 544>
VStem: 28 140<245 279> 404 140<-218 64 245 279 460 719> 780 140<245 279>
Fore
404 64 m 1
 370 4 322 -24 254 -24 c 0
 124 -24 28 98 28 262 c 0
 28 338 50 414 86 464 c 0
 122 515 189 549 254 549 c 0
 322 549 370 520 404 460 c 1
 404 719 l 1
 544 719 l 1
 544 460 l 1
 578 520 626 549 694 549 c 0
 759 549 826 515 862 464 c 0
 898 414 920 338 920 262 c 0
 920 98 824 -24 694 -24 c 0
 626 -24 578 4 544 64 c 1
 544 -218 l 1
 404 -218 l 1
 404 64 l 1
286 432 m 0
 215 432 168 363 168 260 c 0
 168 162 217 93 286 93 c 0
 356 93 404 161 404 262 c 128
 404 363 356 432 286 432 c 0
662 432 m 0
 592 432 544 363 544 262 c 128
 544 161 592 93 662 93 c 0
 731 93 780 162 780 260 c 0
 780 363 733 432 662 432 c 0
EndSplineSet
EndChar
StartChar: afii10088
Encoding: 1094 1094 470
Width: 652
Flags: W
HStem: 0 113<199 403> 520 20G<60 200 403 543>
VStem: 60 140<113 540> 403 140<113 540> 519 110<-125 0>
Fore
60 0 m 1
 60 540 l 1
 200 540 l 1
 200 113 l 1
 403 113 l 1
 403 540 l 1
 543 540 l 1
 543 101 l 1
 629 101 l 1
 629 -125 l 1
 519 -125 l 1
 519 0 l 1
 60 0 l 1
EndSplineSet
EndChar
StartChar: afii10089
Encoding: 1095 1095 471
Width: 578
Flags: W
HStem: 0 21G<378 518> 165 113<235.722 378> 520 20G<60 200 378 518>
VStem: 60 140<319 540> 378 140<0 165 278 540>
Fore
60 540 m 1
 200 540 l 1
 200 326 l 2
 200 282 222 278 258 278 c 2
 378 278 l 1
 378 540 l 1
 518 540 l 1
 518 0 l 1
 378 0 l 1
 378 165 l 1
 260 165 l 2
 170 165 60 194 60 325 c 2
 60 540 l 1
EndSplineSet
EndChar
StartChar: afii10090
Encoding: 1096 1096 472
Width: 886
Flags: W
HStem: 0 113<199 371 510 687> 520 20G<60 200 371 511 686 826>
VStem: 60 140<113 540> 371 140<113 540> 686 140<113 540>
Fore
826 0 m 1
 60 0 l 1
 60 540 l 1
 200 540 l 1
 200 113 l 1
 371 113 l 1
 371 540 l 1
 511 540 l 1
 511 113 l 1
 686 113 l 1
 686 540 l 1
 826 540 l 1
 826 0 l 1
EndSplineSet
EndChar
StartChar: afii10091
Encoding: 1097 1097 473
Width: 968
Flags: W
HStem: 0 113<199 371 510 685> 520 20G<60 200 371 511 685 825>
VStem: 60 140<113 540> 371 140<113 540> 685 140<113 540> 835 110<-125 0>
Fore
835 0 m 1
 60 0 l 1
 60 540 l 1
 200 540 l 1
 200 113 l 1
 371 113 l 1
 371 540 l 1
 511 540 l 1
 511 113 l 1
 685 113 l 1
 685 540 l 1
 825 540 l 1
 825 101 l 1
 945 101 l 1
 945 -125 l 1
 835 -125 l 1
 835 0 l 1
EndSplineSet
EndChar
StartChar: afii10092
Encoding: 1098 1098 474
Width: 693
Flags: W
HStem: 0 110<331 453> 249 110<331 453> 427 113<20 191>
VStem: 191 140<110 249 358 427> 524 139<166 182>
Fore
191 0 m 1
 191 427 l 1
 20 427 l 1
 20 540 l 1
 331 540 l 1
 331 359 l 1
 439 359 l 2
 586 359 663 278 663 168 c 0
 663 125 643 66 610 39 c 0
 577 11 536 0 474 0 c 2
 191 0 l 1
331 249 m 1
 331 110 l 1
 440 110 l 2
 494 110 524 135 524 180 c 0
 524 226 489 249 435 249 c 2
 331 249 l 1
EndSplineSet
EndChar
StartChar: afii10093
Encoding: 1099 1099 475
Width: 811
Flags: W
HStem: 0 110<200 317> 249 110<200 317> 520 20G<60 200 578 718>
VStem: 60 140<110 249 358 540> 393 139<166 182> 578 140<0 540>
Fore
308 359 m 2
 455 359 532 278 532 168 c 0
 532 125 512 66 479 39 c 0
 446 11 405 0 343 0 c 2
 60 0 l 1
 60 540 l 1
 200 540 l 1
 200 359 l 1
 308 359 l 2
200 249 m 1
 200 110 l 1
 309 110 l 2
 363 110 393 135 393 180 c 0
 393 226 358 249 304 249 c 2
 200 249 l 1
718 540 m 1
 718 0 l 1
 578 0 l 1
 578 540 l 1
 718 540 l 1
EndSplineSet
EndChar
StartChar: afii10094
Encoding: 1100 1100 476
Width: 562
Flags: W
HStem: 0 110<200 317> 249 110<200 317> 520 20G<60 200>
VStem: 60 140<110 249 358 540> 393 139<166 182>
Fore
308 359 m 2
 455 359 532 278 532 168 c 0
 532 125 512 66 479 39 c 0
 446 11 405 0 343 0 c 2
 60 0 l 1
 60 540 l 1
 200 540 l 1
 200 359 l 1
 308 359 l 2
200 249 m 1
 200 110 l 1
 309 110 l 2
 363 110 393 135 393 180 c 0
 393 226 358 249 304 249 c 2
 200 249 l 1
EndSplineSet
EndChar
StartChar: afii10095
Encoding: 1101 1101 477
Width: 564
Flags: W
HStem: -23 113<257 275> 207 113<203 377> 436 113<257 275>
Fore
203 207 m 1
 203 320 l 1
 377 320 l 1
 372 347 365 371 355 390 c 0
 339 420 308 436 268 436 c 0
 211 436 184 409 168 338 c 1
 34 338 l 1
 44 470 132 549 267 549 c 0
 428 549 522 443 522 259 c 0
 522 81 429 -23 269 -23 c 0
 138 -23 47 58 34 187 c 1
 168 187 l 1
 186 117 214 90 268 90 c 0
 326 90 366 133 378 207 c 1
 203 207 l 1
EndSplineSet
EndChar
StartChar: afii10096
Encoding: 1102 1102 478
Width: 908
Flags: W
HStem: -23 113<539 558> 0 21G<60 200> 436 113<539 558> 520 20G<60 200>
VStem: 60 140<0 207 320 540> 672 140<248 282>
Fore
302 207 m 1
 200 207 l 1
 200 0 l 1
 60 0 l 1
 60 540 l 1
 200 540 l 1
 200 320 l 1
 302 320 l 1
 322 463 408 549 554 549 c 0
 723 549 812 442 812 259 c 0
 812 86 719 -23 555 -23 c 0
 407 -23 321 63 302 207 c 1
555 436 m 0
 479 436 438 366 438 263 c 128
 438 160 479 90 555 90 c 0
 630 90 672 160 672 261 c 0
 672 367 632 436 555 436 c 0
EndSplineSet
EndChar
StartChar: afii10097
Encoding: 1103 1103 479
Width: 596
Flags: W
HStem: 0 21G<25 204 391 531> 430 110<248 391>
VStem: 51 139<367 385> 391 140<0 207 317 430>
Fore
347 207 m 1
 204 0 l 1
 25 0 l 1
 180 218 l 1
 96 241 50 306 51 385 c 0
 51 428 71 474 104 501 c 0
 137 529 178 540 240 540 c 2
 531 540 l 1
 531 0 l 1
 391 0 l 1
 391 207 l 1
 347 207 l 1
391 317 m 1
 391 430 l 1
 269 430 l 2
 215 430 190 415 190 370 c 0
 190 324 215 317 269 317 c 2
 391 317 l 1
EndSplineSet
EndChar
StartChar: afii10099
Encoding: 1106 1106 482
Width: 606
Flags: W
HStem: 0 21G<92 232> 421 119<341 391> 567 104<22 92 232 402> 709 20G<92 232>
VStem: 92 140<0 323 453 567 671 729> 427 140<132 339>
Fore
568 132 m 1
 567 353 l 1
 567 354 l 2
 567 420 548.667 468.333 512 499 c 0
 479.333 526.333 439 540 391 540 c 0
 324.333 540 270.667 511 232 453 c 1
 232 567 l 1
 402 567 l 1
 402 671 l 1
 232 671 l 1
 232 729 l 1
 92 729 l 1
 92 671 l 1
 22 671 l 1
 22 567 l 1
 92 567 l 1
 92 0 l 1
 232 0 l 1
 232 315 l 1
 232 315 l 2
 232 334.333 237.333 353 246 369 c 0
 265.333 403.667 297 421 341 421 c 0
 371.667 421 395 410 411 388 c 0
 421.667 372 427.089 349.667 427 321 c 2
 428.001 112 l 1
 423.116 -24.9238 324 -108 268 -110 c 1
 268 -172 l 1
 331.234 -186.044 557.939 -57.9502 568 132 c 1
EndSplineSet
EndChar
StartChar: afii10100
Encoding: 1107 1107 483
Width: 454
Flags: W
HStem: 0 21G<60 200> 427 113<200 408>
VStem: 60 140<0 427>
Fore
408 540 m 1
 408 427 l 1
 200 427 l 1
 200 0 l 1
 60 0 l 1
 60 540 l 1
 408 540 l 1
332 790 m 1
 206 640 l 1
 136 640 l 1
 206 790 l 1
 332 790 l 1
EndSplineSet
EndChar
StartChar: afii10101
Encoding: 1108 1108 484
Width: 556
Flags: W
HStem: -23 113<273 291> 207 113<179 353> 436 113<273 291>
Fore
353 207 m 1
 178 207 l 1
 190 133 230 90 288 90 c 0
 342 90 370 117 388 187 c 1
 522 187 l 1
 509 58 418 -23 287 -23 c 0
 127 -23 34 81 34 259 c 0
 34 443 128 549 289 549 c 0
 424 549 512 470 522 338 c 1
 388 338 l 1
 372 409 345 436 288 436 c 0
 248 436 217 420 201 390 c 0
 191 371 184 347 179 320 c 1
 353 320 l 1
 353 207 l 1
EndSplineSet
EndChar
StartChar: afii10102
Encoding: 1109 1109 485
Width: 556
Flags: W
HStem: -23 110<267 286> 439 110<252 286>
VStem: 48 140<368 389> 370 135<366 378> 380 140<140 160>
Fore
505 366 m 1
 370 366 l 1
 369 415 336 439 269 439 c 0
 220 439 188 419 188 389 c 0
 188 367 198 359 237 347 c 2
 414 296 l 2
 485 275 520 230 520 160 c 0
 520 107 496 57 456 25 c 128
 416 -7 359 -23 284 -23 c 0
 120 -23 33 39 29 157 c 1
 166 157 l 1
 172 128 178 117 193 106 c 0
 211 94 240 87 276 87 c 0
 341 87 380 107 380 140 c 0
 380 162 368 173 333 184 c 2
 166 236 l 2
 114 253 97 262 78 281 c 0
 59 302 48 333 48 369 c 0
 48 480 133 549 270 549 c 0
 415 549 503 480 505 366 c 1
EndSplineSet
EndChar
StartChar: afii10106
Encoding: 1113 1113 489
Width: 900
Flags: W
HStem: 0 110<543 688> 0 135<29 31> 209 110<543 669> 427 113<243 403>
VStem: 104 140<335 427> 403 140<110 208 318 427> 739 123.009<151 162>
Fore
403 0 m 1
 403 427 l 1
 244 427 l 1
 244 376 l 2
 244 203.333 214.333 91.6667 155 41 c 0
 126.333 16.3333 89.6667 2.66667 45 0 c 2
 29 0 l 1
 29 135 l 1
 67 135.667 90.3333 171.333 99 242 c 0
 102.333 271.333 104 319.667 104 387 c 2
 104 388 l 1
 104 540 l 1
 543 540 l 1
 543 319 l 1
 651 319 l 2
 746.333 319 812.333 288.333 849 227 c 0
 866.333 198.333 862 184.667 862 148 c 2
 862 147 l 2
 862 107 852.667 89 830 57 c 0
 824 48.333 817.667 41.333 811 36 c 0
 780.333 10 746 0 686 0 c 1
 403 0 l 1
543 209 m 1
 543 110 l 1
 652 110 l 2
 703.333 110 734.333 110.333 739 151 c 1
 739 160 l 2
 739 198.667 713.667 201.333 669 208 c 0
 662.333 208.667 655 209 647 209 c 2
 543 209 l 1
EndSplineSet
EndChar
StartChar: afii10107
Encoding: 1114 1114 490
Width: 611
Flags: W
HStem: 0 110<546 692> 207 113<203 406 546 672> 520 20G<63 203 406 546>
VStem: 63 140<0 207 320 540> 406 140<110 207 320 540> 742 123.009<151 162>
Fore
546 540 m 5
 546 319 l 5
 654 319 l 6
 749.333 319 815.333 288.333 852 227 c 4
 869.333 198.333 865 184.667 865 148 c 6
 865 147 l 6
 865 107 855.667 89 833 57 c 4
 827 48.333 820.667 41.333 814 36 c 4
 783.333 10 749 0 689 0 c 5
 406 0 l 5
 406 207 l 5
 203 207 l 1
 203 0 l 1
 63 0 l 1
 63 540 l 1
 203 540 l 1
 203 320 l 1
 406 320 l 5
 406 540 l 5
 546 540 l 5
546 209 m 5
 546 110 l 5
 655 110 l 6
 706.333 110 737.333 110.333 742 151 c 5
 742 160 l 6
 742 198.667 716.667 201.333 672 208 c 4
 665.333 208.667 658 209 650 209 c 6
 546 209 l 5
EndSplineSet
EndChar
StartChar: afii10108
Encoding: 1115 1115 491
Width: 606
Flags: W
HStem: 0 21G<92 232 426 566> 421 119<341 391> 567 104<22 92 232 402> 709 20G<92 232>
VStem: 92 140<0 323 453 567 671 729> 426 140<0 337>
Fore
92 729 m 5
 232 729 l 5
 232 671 l 5
 402 671 l 5
 402 567 l 5
 232 567 l 5
 232 453 l 5
 270.667 511 324.333 540 391 540 c 4
 439 540 479.333 526.333 512 499 c 4
 548.667 468.333 567 420 567 354 c 6
 567 353 l 5
 566 0 l 5
 426 0 l 5
 427 321 l 6
 427 349.667 421.667 372 411 388 c 4
 395 410 371.667 421 341 421 c 4
 297 421 265.333 403.667 246 369 c 4
 237.333 353 232 334.333 232 315 c 6
 232 315 l 5
 232 0 l 5
 92 0 l 5
 92 567 l 5
 22 567 l 5
 22 671 l 5
 92 671 l 5
 92 729 l 5
EndSplineSet
EndChar
StartChar: afii10109
Encoding: 1116 1116 492
Width: 573
Flags: W
HStem: 0 21G<59 199 366 548> 520 20G<59 199 361 509>
VStem: 59 140<0 198 351 540>
Fore
199 351 m 1
 361 540 l 1
 509 540 l 1
 295 296 l 1
 548 0 l 1
 366 0 l 1
 199 198 l 1
 199 0 l 1
 59 0 l 1
 59 540 l 1
 199 540 l 1
 199 351 l 1
382 790 m 1
 256 640 l 1
 186 640 l 1
 256 790 l 1
 382 790 l 1
EndSplineSet
EndChar
StartChar: uni045D
Encoding: 1117 1117 493
Width: 608
Flags: W
HStem: 0 21G<60 215 403 543> 520 20G<60 200 388 543>
VStem: 60 140<197 540> 403 140<0 343>
Fore
60 540 m 1
 200 540 l 1
 200 197 l 1
 388 540 l 1
 543 540 l 1
 543 0 l 1
 403 0 l 1
 403 343 l 1
 215 0 l 1
 60 0 l 1
 60 540 l 1
204 790 m 1
 330 790 l 1
 400 640 l 1
 330 640 l 1
 204 790 l 1
EndSplineSet
EndChar
StartChar: afii10193
Encoding: 1119 1119 495
Width: 608
Flags: W
HStem: -20 20G<60 247> 0 21G<357 544> 520 20G<60 200 404 544>
VStem: 60 140<113 540> 247 110<-125 0> 404 140<113 540>
Fore
357 0 m 1
 357 -125 l 1
 247 -125 l 1
 247 0 l 1
 60 0 l 1
 60 540 l 1
 200 540 l 1
 200 113 l 1
 404 113 l 1
 404 540 l 1
 544 540 l 1
 544 0 l 1
 357 0 l 1
EndSplineSet
EndChar
StartChar: uni048C
Encoding: 1164 1164 496
Width: 687
Flags: W
HStem: 0 125<227 380> 344 125<226 380> 709 20G<76 226>
VStem: 76 150<126 343 469 728> 483 150<224 240>
Fore
226 469 m 1
 413 469 l 2
 547 469 633 374 633 226 c 0
 633 80 550 0 398 0 c 2
 76 0 l 1
 76 729 l 1
 226 729 l 1
 226 469 l 1
226 344 m 1
 226 125 l 1
 366 125 l 2
 446 125 483 160 483 235 c 0
 483 309 446 344 366 344 c 2
 226 344 l 1
EndSplineSet
EndChar
StartChar: uni048D
Encoding: 1165 1165 497
Width: 562
Flags: W
HStem: 0 110<201 332> 223 110<200 332> 520 20G<60 200>
VStem: 60 140<111 222 333 539>
Fore
316 333 m 2
 463 333 537 267 540 155 c 0
 540 112 520 66 487 39 c 0
 454 11 413 0 351 0 c 2
 60 0 l 1
 60 540 l 1
 200 540 l 1
 200 333 l 1
 316 333 l 2
200 223 m 1
 200 110 l 1
 322 110 l 2
 376 110 401 125 401 170 c 0
 401 216 376 223 322 223 c 2
 200 223 l 1
EndSplineSet
EndChar
StartChar: afii10050
Encoding: 1168 1168 500
Width: 611
Flags: W
HStem: 0 21G<74 224> 604 124<225 435> 604 260<436 585>
VStem: 74 150<1 604> 436 150<729 863>
Fore
224 0 m 1
 74 0 l 1
 74 729 l 1
 436 728 l 1
 436 864 l 1
 586 864 l 1
 586 604 l 1
 224 604 l 1
 224 0 l 1
EndSplineSet
EndChar
StartChar: afii10098
Encoding: 1169 1169 501
Width: 454
Flags: W
HStem: 0 21G<64 204> 427 113<205 284> 427 239<285 411>
VStem: 64 140<1 427> 284 128<541 665>
Fore
412 666 m 1
 412 427 l 1
 204 427 l 1
 204 0 l 1
 64 0 l 1
 64 540 l 1
 284 540 l 1
 284 666 l 1
 412 666 l 1
EndSplineSet
EndChar
StartChar: uni0492
Encoding: 1170 1170 502
Width: 611
Flags: W
HStem: 0 21G<74 224> 604 125<225 585>
VStem: 74 150<1 604> 74 512<605 728>
Fore
224 0 m 1
 74 0 l 1
 74 729 l 1
 586 729 l 1
 586 604 l 1
 224 604 l 1
 224 0 l 1
EndSplineSet
EndChar
StartChar: uni0493
Encoding: 1171 1171 503
Width: 454
Flags: W
HStem: 0 21G<60 200> 427 113<201 407>
VStem: 60 140<1 427> 60 348<428 539>
Fore
408 540 m 1
 408 427 l 1
 200 427 l 1
 200 0 l 1
 60 0 l 1
 60 540 l 1
 408 540 l 1
EndSplineSet
EndChar
StartChar: uni0494
Encoding: 1172 1172 504
Width: 611
Flags: W
HStem: 0 21G<74 224> 604 125<225 585>
VStem: 74 150<1 604> 74 512<605 728>
Fore
224 0 m 1
 74 0 l 1
 74 729 l 1
 586 729 l 1
 586 604 l 1
 224 604 l 1
 224 0 l 1
EndSplineSet
EndChar
StartChar: uni0495
Encoding: 1173 1173 505
Width: 454
Flags: W
HStem: 0 21G<60 200> 427 113<201 407>
VStem: 60 140<1 427> 60 348<428 539>
Fore
408 540 m 1
 408 427 l 1
 200 427 l 1
 200 0 l 1
 60 0 l 1
 60 540 l 1
 408 540 l 1
EndSplineSet
EndChar
StartChar: uni0496
Encoding: 1174 1174 506
Width: 1093
Flags: W
HStem: 0 21G<22 201 475 625 899 1078> 709 20G<66 230 475 625 870 1034>
VStem: 475 150<1 284 451 728>
Fore
475 285 m 1
 201 0 l 1
 22 0 l 1
 379 378 l 1
 66 729 l 1
 230 729 l 1
 475 450 l 1
 475 729 l 1
 625 729 l 1
 625 450 l 1
 870 729 l 1
 1034 729 l 1
 721 378 l 1
 1078 0 l 1
 899 0 l 1
 625 285 l 1
 625 0 l 1
 475 0 l 1
 475 285 l 1
EndSplineSet
EndChar
StartChar: uni0497
Encoding: 1175 1175 507
Width: 809
Flags: W
HStem: 0 21G<16 195 332 472 609 788> 520 20G<52 200 332 472 604 752>
VStem: 332 140<1 197 352 539>
Fore
332 198 m 1
 195 0 l 1
 16 0 l 1
 229 296 l 1
 52 540 l 1
 200 540 l 1
 332 351 l 1
 332 540 l 1
 472 540 l 1
 472 351 l 1
 604 540 l 1
 752 540 l 1
 575 296 l 1
 788 0 l 1
 609 0 l 1
 472 198 l 1
 472 0 l 1
 332 0 l 1
 332 198 l 1
EndSplineSet
EndChar
StartChar: uni0498
Encoding: 1176 1176 508
Width: 672
Flags: W
HStem: -23 120<320 354> 308 120<251 351> 621 120<320 354>
VStem: 464 143<516 537> 489 143.371<194 201>
Fore
250 428 m 1
 326 428 l 2
 435 428 464 478 464 531 c 0
 464 586 415 621 338 621 c 0
 243 621 190 581 185 507 c 1
 45 507 l 1
 45 574 60 618 96 658 c 0
 145 712 226 741 331 741 c 0
 506 741 607 659 607 517 c 0
 607 453 587 409 544 377 c 1
 606 343 633 293 633 213 c 0
 633 65 522 -23 334 -23 c 0
 148 -23 41 62 32 218 c 1
 178 218 l 1
 183 140 240 97 342 97 c 0
 433 97 489 134 489 195 c 0
 489 254 454 308 352 308 c 2
 250 308 l 1
 250 428 l 1
EndSplineSet
EndChar
StartChar: uni0499
Encoding: 1177 1177 509
Width: 546
Flags: W
HStem: -23 110<269 300> 208 110<207 302> 439 110<269 302>
VStem: 48 135<367 377> 365 140<361 389> 380.003 139.997<140 160>
Fore
206 208 m 1
 206 318 l 1
 300 318 l 2
 372 318 365 367 365 389 c 0
 365 419 333 439 284 439 c 0
 217 439 184 415 183 366 c 1
 48 366 l 1
 50 480 138 549 283 549 c 0
 420 549 505 480 505 369 c 0
 505 333 494 302 475 281 c 0
 471 277 465 274 461 271 c 1
 501 246 520 213 520 160 c 0
 520 107 496 57 456 25 c 128
 416 -7 359 -23 284 -23 c 0
 120 -23 33 39 29 157 c 1
 166 157 l 1
 172 128 178 117 193 106 c 0
 211 94 240 87 276 87 c 0
 341 87 380 107 380 140 c 0
 380 162 382 208 298 208 c 2
 206 208 l 1
EndSplineSet
EndChar
StartChar: uni049A
Encoding: 1178 1178 510
Width: 722
Flags: W
HStem: 0 21G<74 224 538 717> 709 20G<74 224 509 686>
VStem: 74 150<1 284 451 728>
Fore
224 0 m 1
 74 0 l 1
 74 729 l 1
 224 729 l 1
 224 450 l 1
 509 729 l 1
 686 729 l 1
 320 378 l 1
 717 0 l 1
 538 0 l 1
 224 285 l 1
 224 0 l 1
EndSplineSet
EndChar
StartChar: uni049B
Encoding: 1179 1179 511
Width: 573
Flags: W
HStem: 0 21G<59 199 366 548> 520 20G<59 199 361 509>
VStem: 59 140<1 197 352 539>
Fore
199 351 m 1
 361 540 l 1
 509 540 l 1
 295 296 l 1
 548 0 l 1
 366 0 l 1
 199 198 l 1
 199 0 l 1
 59 0 l 1
 59 540 l 1
 199 540 l 1
 199 351 l 1
EndSplineSet
EndChar
StartChar: uni049C
Encoding: 1180 1180 512
Width: 722
Flags: W
HStem: 0 21G<74 224 538 717> 709 20G<74 224 509 686>
VStem: 74 150<1 284 451 728>
Fore
224 0 m 1
 74 0 l 1
 74 729 l 1
 224 729 l 1
 224 450 l 1
 509 729 l 1
 686 729 l 1
 320 378 l 1
 717 0 l 1
 538 0 l 1
 224 285 l 1
 224 0 l 1
EndSplineSet
EndChar
StartChar: uni049D
Encoding: 1181 1181 513
Width: 573
Flags: W
HStem: 0 21G<59 199 366 548> 520 20G<59 199 361 509>
VStem: 59 140<1 197 352 539>
Fore
199 351 m 1
 361 540 l 1
 509 540 l 1
 295 296 l 1
 548 0 l 1
 366 0 l 1
 199 198 l 1
 199 0 l 1
 59 0 l 1
 59 540 l 1
 199 540 l 1
 199 351 l 1
EndSplineSet
EndChar
StartChar: uni049E
Encoding: 1182 1182 514
Width: 722
Flags: W
HStem: 0 21G<74 224 538 717> 709 20G<74 224 509 686>
VStem: 74 150<1 284 451 728>
Fore
224 0 m 1
 74 0 l 1
 74 729 l 1
 224 729 l 1
 224 450 l 1
 509 729 l 1
 686 729 l 1
 320 378 l 1
 717 0 l 1
 538 0 l 1
 224 285 l 1
 224 0 l 1
EndSplineSet
EndChar
StartChar: uni049F
Encoding: 1183 1183 515
Width: 573
Flags: W
HStem: 0 21G<59 199 366 548> 520 20G<59 199 361 509>
VStem: 59 140<1 197 352 539>
Fore
199 351 m 1
 361 540 l 1
 509 540 l 1
 295 296 l 1
 548 0 l 1
 366 0 l 1
 199 198 l 1
 199 0 l 1
 59 0 l 1
 59 540 l 1
 199 540 l 1
 199 351 l 1
EndSplineSet
EndChar
StartChar: uni04A0
Encoding: 1184 1184 516
Width: 722
Flags: W
HStem: 0 21G<74 224 538 717> 709 20G<74 224 509 686>
VStem: 74 150<1 284 451 728>
Fore
224 0 m 1
 74 0 l 1
 74 729 l 1
 224 729 l 1
 224 450 l 1
 509 729 l 1
 686 729 l 1
 320 378 l 1
 717 0 l 1
 538 0 l 1
 224 285 l 1
 224 0 l 1
EndSplineSet
EndChar
StartChar: uni04A1
Encoding: 1185 1185 517
Width: 573
Flags: W
HStem: 0 21G<59 199 366 548> 520 20G<59 199 361 509>
VStem: 59 140<1 197 352 539>
Fore
199 351 m 1
 361 540 l 1
 509 540 l 1
 295 296 l 1
 548 0 l 1
 366 0 l 1
 199 198 l 1
 199 0 l 1
 59 0 l 1
 59 540 l 1
 199 540 l 1
 199 351 l 1
EndSplineSet
EndChar
StartChar: uni04A3
Encoding: 1187 1187 519
Width: 608
Flags: W
HStem: 0 21G<60 200 403 543> 207 113<200 403> 520 20G<60 200 403 543>
VStem: 60 140<1 206 321 539> 403 140<1 206 321 539>
Fore
60 540 m 1
 200 540 l 1
 200 320 l 1
 403 320 l 1
 403 540 l 1
 543 540 l 1
 543 0 l 1
 403 0 l 1
 403 207 l 1
 200 207 l 1
 200 0 l 1
 60 0 l 1
 60 540 l 1
EndSplineSet
EndChar
StartChar: uni04A5
Encoding: 1189 1189 521
Width: 608
Flags: W
HStem: 0 21G<60 200 403 543> 207 113<200 403> 520 20G<60 200 403 543>
VStem: 60 140<1 206 321 539> 403 140<1 206 321 539>
Fore
60 540 m 1
 200 540 l 1
 200 320 l 1
 403 320 l 1
 403 540 l 1
 543 540 l 1
 543 0 l 1
 403 0 l 1
 403 207 l 1
 200 207 l 1
 200 0 l 1
 60 0 l 1
 60 540 l 1
EndSplineSet
EndChar
StartChar: uni04A6
Encoding: 1190 1190 522
Width: 722
Flags: W
HStem: 0 21G<68 218 507 657> 604 125<219 506>
VStem: 68 150<1 603> 507 150<1 603>
Fore
507 604 m 1
 218 604 l 1
 218 0 l 1
 68 0 l 1
 68 729 l 1
 657 729 l 1
 657 0 l 1
 507 0 l 1
 507 604 l 1
EndSplineSet
EndChar
StartChar: uni04A7
Encoding: 1191 1191 523
Width: 608
Flags: W
HStem: 0 21G<60 200 403 543> 427 113<201 402>
VStem: 60 140<1 426> 403 140<1 426>
Fore
60 540 m 1
 543 540 l 1
 543 0 l 1
 403 0 l 1
 403 427 l 1
 200 427 l 1
 200 0 l 1
 60 0 l 1
 60 540 l 1
EndSplineSet
EndChar
StartChar: uni04AD
Encoding: 1197 1197 529
Width: 454
Flags: W
HStem: 0 21G<156 296> 427 113<22 155 297 430>
VStem: 21 410<427 539> 156 140<1 427>
Fore
431 540 m 1
 431 427 l 1
 296 427 l 1
 296 0 l 1
 156 0 l 1
 156 427 l 1
 21 427 l 1
 21 540 l 1
 431 540 l 1
EndSplineSet
EndChar
StartChar: uni04AF
Encoding: 1199 1199 531
Width: 556
Flags: W
HStem: 0 21G<203 350> 520 20G<14 162 388 536>
Fore
350 0 m 1
 203 0 l 1
 14 540 l 1
 162 540 l 1
 279 145 l 1
 388 540 l 1
 536 540 l 1
 350 0 l 1
EndSplineSet
EndChar
StartChar: uni04B1
Encoding: 1201 1201 533
Width: 556
Flags: W
HStem: 0 21G<203 350> 520 20G<14 162 388 536>
Fore
350 0 m 1
 203 0 l 1
 14 540 l 1
 162 540 l 1
 279 145 l 1
 388 540 l 1
 536 540 l 1
 350 0 l 1
EndSplineSet
EndChar
StartChar: uni04B4
Encoding: 1204 1204 536
Width: 814
Flags: W
HStem: -150 258<657 766> 0 125<218 507> 709 20G<68 218 507 657>
VStem: 68 150<126 728> 507 150<126 728> 637 130<-149 -1>
Fore
507 125 m 1
 507 729 l 1
 657 729 l 1
 657 108 l 1
 767 108 l 5
 767 -150 l 5
 637 -150 l 5
 637 0 l 5
 68 0 l 1
 68 729 l 1
 218 729 l 1
 218 125 l 1
 507 125 l 1
EndSplineSet
EndChar
StartChar: uni04B5
Encoding: 1205 1205 537
Width: 685
Flags: W
HStem: -125 226<543 638> 0 113<200 403> 520 20G<60 200 403 543>
VStem: 60 140<114 539> 403 140<114 539> 529 110<-124 -1>
Fore
60 0 m 1
 60 540 l 1
 200 540 l 1
 200 113 l 1
 403 113 l 1
 403 540 l 1
 543 540 l 1
 543 101 l 1
 639 101 l 5
 639 -125 l 5
 529 -125 l 5
 529 0 l 5
 60 0 l 1
EndSplineSet
EndChar
StartChar: uni04B6
Encoding: 1206 1206 538
Width: 675
Flags: W
HStem: 0 21G<464 614> 274 125<218 463> 274 455<212 217>
VStem: 68 150<400 728> 464 150<1 274 400 728>
Fore
464 274 m 1
 218 274 l 2
 140 275 68 322 68 392 c 2
 68 729 l 1
 218 729 l 1
 218 399 l 1
 463 399 l 1
 463 729 l 1
 614 729 l 1
 614 0 l 1
 464 0 l 1
 464 274 l 1
EndSplineSet
EndChar
StartChar: uni04B7
Encoding: 1207 1207 539
Width: 580
Flags: W
HStem: 0 21G<378 518> 165 113<200 378> 165 375<188 199>
VStem: 60 140<279 539> 378 140<1 165 279 539>
Fore
60 540 m 1
 200 540 l 1
 200 278 l 1
 378 278 l 1
 378 540 l 1
 518 540 l 1
 518 0 l 1
 378 0 l 1
 378 165 l 1
 200 165 l 2
 130 165 61 186 60 279 c 1
 60 540 l 1
EndSplineSet
EndChar
StartChar: uni04B8
Encoding: 1208 1208 540
Width: 675
Flags: W
HStem: 0 21G<464 614> 274 125<218 463> 274 455<212 217>
VStem: 68 150<400 728> 464 150<1 274 400 728>
Fore
464 274 m 1
 218 274 l 2
 140 275 68 322 68 392 c 2
 68 729 l 1
 218 729 l 1
 218 399 l 1
 463 399 l 1
 463 729 l 1
 614 729 l 1
 614 0 l 1
 464 0 l 1
 464 274 l 1
EndSplineSet
EndChar
StartChar: uni04B9
Encoding: 1209 1209 541
Width: 580
Flags: W
HStem: 0 21G<378 518> 165 113<200 378> 165 375<188 199>
VStem: 60 140<279 539> 378 140<1 165 279 539>
Fore
60 540 m 1
 200 540 l 1
 200 278 l 1
 378 278 l 1
 378 540 l 1
 518 540 l 1
 518 0 l 1
 378 0 l 1
 378 165 l 1
 200 165 l 2
 130 165 61 186 60 279 c 1
 60 540 l 1
EndSplineSet
EndChar
StartChar: uni04BA
Encoding: 1210 1210 542
Width: 675
Flags: W
HStem: 0 21G<68 219 464 614> 330 125<220 463> 709 20G<68 218>
VStem: 68 151<1 329 455 728> 464 150<1 329>
Fore
218 455 m 1
 464 455 l 2
 542 454 614 407 614 337 c 2
 614 0 l 1
 464 0 l 1
 464 330 l 1
 219 330 l 1
 219 0 l 1
 68 0 l 1
 68 729 l 1
 218 729 l 1
 218 455 l 1
EndSplineSet
EndChar
StartChar: uni04BB
Encoding: 1211 1211 543
Width: 580
Flags: W
HStem: 0 21G<60 200 378 518> 262 113<201 377> 520 20G<60 200>
VStem: 60 140<1 261 375 539> 378 140<1 261>
Fore
518 0 m 1
 378 0 l 1
 378 262 l 1
 200 262 l 1
 200 0 l 1
 60 0 l 1
 60 540 l 1
 200 540 l 1
 200 375 l 1
 378 375 l 2
 448 375 517 354 518 261 c 1
 518 0 l 1
EndSplineSet
EndChar
StartChar: uni04C3
Encoding: 1219 1219 551
Width: 722
Flags: W
HStem: 0 21G<74 224 538 717> 709 20G<74 224 509 686>
VStem: 74 150<1 284 451 728>
Fore
224 0 m 1
 74 0 l 1
 74 729 l 1
 224 729 l 1
 224 450 l 1
 509 729 l 1
 686 729 l 1
 320 378 l 1
 717 0 l 1
 538 0 l 1
 224 285 l 1
 224 0 l 1
EndSplineSet
EndChar
StartChar: uni04C4
Encoding: 1220 1220 552
Width: 573
Flags: W
HStem: 0 21G<59 199 366 548> 520 20G<59 199 361 509>
VStem: 59 140<1 197 352 539>
Fore
199 351 m 1
 361 540 l 1
 509 540 l 1
 295 296 l 1
 548 0 l 1
 366 0 l 1
 199 198 l 1
 199 0 l 1
 59 0 l 1
 59 540 l 1
 199 540 l 1
 199 351 l 1
EndSplineSet
EndChar
StartChar: uni04C8
Encoding: 1224 1224 554
Width: 608
Flags: W
HStem: 0 21G<60 200 403 543> 207 113<200 403> 520 20G<60 200 403 543>
VStem: 60 140<1 206 321 539> 403 140<1 206 321 539>
Fore
60 540 m 1
 200 540 l 1
 200 320 l 1
 403 320 l 1
 403 540 l 1
 543 540 l 1
 543 0 l 1
 403 0 l 1
 403 207 l 1
 200 207 l 1
 200 0 l 1
 60 0 l 1
 60 540 l 1
EndSplineSet
EndChar
StartChar: uni04CB
Encoding: 1227 1227 555
Width: 675
Flags: W
HStem: 0 21G<464 614> 274 125<218 463> 274 455<212 217>
VStem: 68 150<400 728> 464 150<1 274 400 728>
Fore
464 274 m 1
 218 274 l 2
 140 275 68 322 68 392 c 2
 68 729 l 1
 218 729 l 1
 218 399 l 1
 463 399 l 1
 463 729 l 1
 614 729 l 1
 614 0 l 1
 464 0 l 1
 464 274 l 1
EndSplineSet
EndChar
StartChar: uni04CC
Encoding: 1228 1228 556
Width: 580
Flags: W
HStem: 0 21G<378 518> 165 113<200 378> 165 375<188 199>
VStem: 60 140<279 539> 378 140<1 165 279 539>
Fore
60 540 m 1
 200 540 l 1
 200 278 l 1
 378 278 l 1
 378 540 l 1
 518 540 l 1
 518 0 l 1
 378 0 l 1
 378 165 l 1
 200 165 l 2
 130 165 61 186 60 279 c 1
 60 540 l 1
EndSplineSet
EndChar
StartChar: uni04D4
Encoding: 1236 1236 561
Width: 1000
Flags: W
HStem: 0 125<581 965> 152 125<250 429> 314 125<581 918> 604 125<363 429 581 945>
VStem: 430 150<125 151 278 314 439 603> 430 489<315 438> 430 536<1 124>
Fore
430 152 m 1
 207 152 l 1
 154 0 l 1
 1 0 l 1
 264 729 l 1
 946 729 l 1
 946 604 l 1
 580 604 l 1
 580 439 l 1
 919 439 l 1
 919 314 l 1
 580 314 l 1
 580 125 l 1
 966 125 l 1
 966 0 l 1
 430 0 l 1
 430 152 l 1
430 277 m 1
 430 604 l 1
 363 604 l 1
 249 277 l 1
 430 277 l 1
EndSplineSet
EndChar
StartChar: uni04D5
Encoding: 1237 1237 562
Width: 889
Flags: W
HStem: -23.9984 112.998<195 243> -23 107<599 619> 226 93<496 710> 436 113<247 283> 442 107<587 610>
VStem: 27 140<143 157> 354 140<200 226> 354 502<227 253>
Fore
712 152 m 1
 850 152 l 1
 819 45 721 -23 600 -23 c 0
 512 -23 442 13 400 81 c 1
 338 8 276 -24 195 -24 c 0
 92 -24 27 40 27 141 c 0
 27 239 78 294 186 312 c 2
 242 322 l 2
 311 333 311 333 330 343 c 0
 345 351 354 367 354 383 c 0
 354 419 326 436 269 436 c 0
 206 436 181 416 174 362 c 1
 43 362 l 1
 45 486 122 549 271 549 c 0
 349 549 408 532 446 499 c 1
 487 532 540 549 601 549 c 0
 713 549 799 491 836 392 c 0
 849 355 857 304 857 250 c 0
 857 245 857 238 856 226 c 1
 494 226 l 1
 494 180 499 156 514 133 c 0
 534 102 569 84 608 84 c 0
 656 84 700 113 712 152 c 1
354 216 m 2
 354 254 l 1
 337 244 325 240 295 235 c 2
 247 228 l 2
 194 221 167 196 167 155 c 128
 167 114 196 89 243 89 c 0
 315 89 354 134 354 216 c 2
495 319 m 1
 711 319 l 1
 704 400 667 442 602 442 c 0
 538 442 501 400 495 319 c 1
EndSplineSet
EndChar
StartChar: uni04D8
Encoding: 1240 1240 565
Width: 722
Flags: W
HStem: -23 126<332 364> 249 106<191 508> 613 128<332 364>
VStem: 44 640.333<329 354> 534.999 150.001<355 377>
Fore
522.46 249 m 1
 190 249 l 1
 199 156 258 103 351 103 c 0
 437.879 103 497.833 155.728 522.46 249 c 1
534.999 355 m 1
 535 356 l 0
 535 517 464 613 346 613 c 0
 294 613 251 595 223 560 c 0
 207 540 199 521 190 482 c 1
 47 482 l 1
 52 545 65 585 96 626 c 0
 152 700 242 741 351 741 c 0
 557 741 685 594 685 358 c 0
 685 124 558 -23 355 -23 c 0
 174 -23 44 98 44 355 c 1
 534.999 355 l 1
EndSplineSet
EndChar
StartChar: afii10846
Encoding: 1241 1241 566
Width: 556
Flags: W
HStem: -23 113<258 274> 170 96<178 357> 436 113<258 274>
VStem: 34 488<249 266> 381.999 140.001<266 281>
Fore
381.999 266 m 1
 382 267 l 0
 382 372 339 436 268 436 c 0
 214 436 186 409 168 339 c 1
 34 339 l 1
 47 468 138 549 269 549 c 0
 429 549 522 445 522 267 c 0
 522 83 428 -23 267 -23 c 0
 132 -23 44 56 34 188 c 1
 34 266 l 1
 381.999 266 l 1
368.707 170 m 1
 172.569 170 l 1
 189.068 112.388 216.096 90 268 90 c 0
 308 90 339 106 355 136 c 0
 360.272 145.924 364.871 157.386 368.707 170 c 1
EndSplineSet
EndChar
StartChar: uni04E0
Encoding: 1248 1248 573
Width: 672
Flags: W
HStem: -23 120<320 354> 308 120<251 351> 621 120<320 354>
VStem: 464 143<516 537> 489 143.371<194 201>
Fore
250 428 m 1
 326 428 l 2
 435 428 464 478 464 531 c 0
 464 586 415 621 338 621 c 0
 243 621 190 581 185 507 c 1
 45 507 l 1
 45 574 60 618 96 658 c 0
 145 712 226 741 331 741 c 0
 506 741 607 659 607 517 c 0
 607 453 587 409 544 377 c 1
 606 343 633 293 633 213 c 0
 633 65 522 -23 334 -23 c 0
 148 -23 41 62 32 218 c 1
 178 218 l 1
 183 140 240 97 342 97 c 0
 433 97 489 134 489 195 c 0
 489 254 454 308 352 308 c 2
 250 308 l 1
 250 428 l 1
EndSplineSet
EndChar
StartChar: uni04E1
Encoding: 1249 1249 574
Width: 546
Flags: W
HStem: -23 110<269 300> 208 110<207 302> 439 110<269 302>
VStem: 48 135<367 377> 365 140<361 389> 380.003 139.997<140 160>
Fore
206 208 m 1
 206 318 l 1
 300 318 l 2
 372 318 365 367 365 389 c 0
 365 419 333 439 284 439 c 0
 217 439 184 415 183 366 c 1
 48 366 l 1
 50 480 138 549 283 549 c 0
 420 549 505 480 505 369 c 0
 505 333 494 302 475 281 c 0
 471 277 465 274 461 271 c 1
 501 246 520 213 520 160 c 0
 520 107 496 57 456 25 c 128
 416 -7 359 -23 284 -23 c 0
 120 -23 33 39 29 157 c 1
 166 157 l 1
 172 128 178 117 193 106 c 0
 211 94 240 87 276 87 c 0
 341 87 380 107 380 140 c 0
 380 162 382 208 298 208 c 2
 206 208 l 1
EndSplineSet
EndChar
StartChar: uni04E8
Encoding: 1256 1256 581
Width: 778
Flags: W
HStem: -23 128<376 408> 321 79<200 584> 613 128<376 408>
VStem: 40 702<329 377>
Fore
390 741 m 0
 495 741 576 709 640 640 c 0
 705 570 742 468 742 354 c 0
 742 251 703 145 640 78 c 0
 577 10 495 -23 391 -23 c 128
 287 -23 205 10 142 78 c 0
 77 147 40 250 40 359 c 128
 40 468 77 570 142 640 c 0
 204 707 288 741 390 741 c 0
589.757 400 m 1
 576.183 531.746 501.873 613 391 613 c 0
 281.169 613 205.118 529.785 192.014 400 c 1
 589.757 400 l 1
590.538 321 m 1
 191.723 321 l 1
 203.951 189.499 280.325 105 391 105 c 0
 501.63 105 579.113 190.843 590.538 321 c 1
EndSplineSet
EndChar
StartChar: uni04E9
Encoding: 1257 1257 582
Width: 611
Flags: W
HStem: -23 113<291 307> 224 79<179 419> 436 113<291 307>
VStem: 35 534<233 281>
Fore
301 549 m 0
 470 549 569 442 569 259 c 0
 569 86 466 -23 302 -23 c 0
 136 -23 35 85 35 263 c 0
 35 440 136 549 301 549 c 0
426.16 303 m 1
 414.568 384.861 368.289 436 302 436 c 0
 236.309 436 189.296 383.702 177.75 303 c 1
 426.16 303 l 1
426.53 224 m 1
 177.609 224 l 1
 188.908 142.73 236.038 90 302 90 c 0
 367.448 90 415.382 143.305 426.53 224 c 1
EndSplineSet
EndChar
StartChar: afii57799
Encoding: 1456 1456 597
Width: 82
Flags: W
VStem: 0 82<-254 -173 -142 -61>
Fore
0 -172 m 1
 82 -172 l 1
 82 -254 l 1
 0 -254 l 1
 0 -172 l 1
0 -60 m 1
 82 -60 l 1
 82 -142 l 1
 0 -142 l 1
 0 -60 l 1
EndSplineSet
EndChar
StartChar: afii57801
Encoding: 1457 1457 598
Width: 347
Flags: W
HStem: -254 82<65 147 265 347> -142 82<0 81 129 212 265 347>
VStem: 265 82<-254 -173 -142 -61>
Fore
65 -172 m 1
 147 -172 l 1
 147 -254 l 1
 65 -254 l 1
 65 -172 l 1
0 -60 m 1
 82 -60 l 1
 82 -142 l 1
 0 -142 l 1
 0 -60 l 1
129 -60 m 1
 212 -60 l 1
 212 -142 l 1
 129 -142 l 1
 129 -60 l 1
265 -60 m 1
 347 -60 l 1
 347 -142 l 1
 265 -142 l 1
 265 -60 l 1
265 -172 m 1
 347 -172 l 1
 347 -254 l 1
 265 -254 l 1
 265 -172 l 1
EndSplineSet
EndChar
StartChar: afii57800
Encoding: 1458 1458 599
Width: 341
Flags: W
HStem: -254 82<259 341> -142 82<0 200 259 341>
VStem: 259 82<-254 -173 -142 -61>
Fore
0 -60 m 1
 200 -60 l 1
 200 -142 l 1
 0 -142 l 1
 0 -60 l 1
259 -60 m 1
 341 -60 l 1
 341 -142 l 1
 259 -142 l 1
 259 -60 l 1
259 -172 m 1
 341 -172 l 1
 341 -254 l 1
 259 -254 l 1
 259 -172 l 1
EndSplineSet
EndChar
StartChar: afii57802
Encoding: 1459 1459 600
Width: 341
Flags: W
HStem: -254 82<259 341> -142 82<0 59 141 200 259 341>
VStem: 59 82<-248 -142> 259 82<-254 -173 -142 -61>
Fore
259 -172 m 1
 341 -172 l 1
 341 -254 l 1
 259 -254 l 1
 259 -172 l 1
259 -60 m 1
 341 -60 l 1
 341 -142 l 1
 259 -142 l 1
 259 -60 l 1
141 -142 m 1
 141 -248 l 1
 59 -248 l 1
 59 -142 l 1
 0 -142 l 1
 0 -60 l 1
 200 -60 l 1
 200 -142 l 1
 141 -142 l 1
EndSplineSet
EndChar
StartChar: afii57793
Encoding: 1460 1460 601
Width: 82
Flags: W
Fore
0 -60 m 1
 82 -60 l 1
 82 -142 l 1
 0 -142 l 1
 0 -60 l 1
EndSplineSet
EndChar
StartChar: afii57794
Encoding: 1461 1461 602
Width: 211
Flags: W
HStem: -142 82<0 81 129 212>
Fore
0 -60 m 1
 82 -60 l 1
 82 -142 l 1
 0 -142 l 1
 0 -60 l 1
129 -60 m 1
 212 -60 l 1
 212 -142 l 1
 129 -142 l 1
 129 -60 l 1
EndSplineSet
EndChar
StartChar: afii57795
Encoding: 1462 1462 603
Width: 211
Flags: W
HStem: -254 82<65 147> -142 82<0 81 129 212>
Fore
65 -172 m 1
 147 -172 l 1
 147 -254 l 1
 65 -254 l 1
 65 -172 l 1
0 -60 m 1
 82 -60 l 1
 82 -142 l 1
 0 -142 l 1
 0 -60 l 1
129 -60 m 1
 212 -60 l 1
 212 -142 l 1
 129 -142 l 1
 129 -60 l 1
EndSplineSet
EndChar
StartChar: afii57798
Encoding: 1463 1463 604
Width: 200
Flags: W
HStem: -142 82<0 200>
Fore
0 -60 m 1
 200 -60 l 1
 200 -142 l 1
 0 -142 l 1
 0 -60 l 1
EndSplineSet
EndChar
StartChar: afii57797
Encoding: 1464 1464 605
Width: 200
Flags: W
HStem: -142 82<0 59 141 200>
VStem: 59 82<-248 -142>
Fore
141 -142 m 1
 141 -248 l 1
 59 -248 l 1
 59 -142 l 1
 0 -142 l 1
 0 -60 l 1
 200 -60 l 1
 200 -142 l 1
 141 -142 l 1
EndSplineSet
EndChar
StartChar: afii57806
Encoding: 1465 1465 606
Width: 82
Flags: W
HStem: 722 20G<0 82>
Fore
0 742 m 1
 82 742 l 1
 82 660 l 1
 0 660 l 1
 0 742 l 1
EndSplineSet
EndChar
StartChar: afii57796
Encoding: 1467 1467 607
Width: 341
Flags: W
HStem: -254 82<259 341> -195 82<129 212>
Fore
259 -172 m 1
 341 -172 l 1
 341 -254 l 1
 259 -254 l 1
 259 -172 l 1
129 -113 m 1
 212 -113 l 1
 212 -195 l 1
 129 -195 l 1
 129 -113 l 1
0 -60 m 1
 82 -60 l 1
 82 -142 l 1
 0 -142 l 1
 0 -60 l 1
EndSplineSet
EndChar
StartChar: afii57807
Encoding: 1468 1468 608
Width: 82
Flags: W
Fore
0 339 m 1
 82 339 l 1
 82 257 l 1
 0 257 l 1
 0 339 l 1
EndSplineSet
EndChar
StartChar: afii57839
Encoding: 1469 1469 609
Width: 82
Flags: W
VStem: 0 82<-248 -60>
Fore
82 -60 m 1
 82 -248 l 1
 0 -248 l 1
 0 -60 l 1
 82 -60 l 1
EndSplineSet
EndChar
StartChar: afii57645
Encoding: 1470 1470 610
Width: 516
Flags: W
HStem: 485 115<63 444>
Fore
63 485 m 1
 63 600 l 1
 444 600 l 1
 444 485 l 1
 63 485 l 1
EndSplineSet
EndChar
StartChar: afii57841
Encoding: 1471 1471 611
Width: 200
Flags: W
HStem: 660 82<0 200>
Fore
0 742 m 1
 200 742 l 1
 200 660 l 1
 0 660 l 1
 0 742 l 1
EndSplineSet
EndChar
StartChar: afii57842
Encoding: 1472 1472 612
Width: 297
Flags: W
HStem: 680 20G<79 218>
VStem: 79 139<-100 700>
Fore
79 -100 m 1
 79 700 l 1
 218 700 l 1
 218 -100 l 1
 79 -100 l 1
EndSplineSet
EndChar
StartChar: afii57804
Encoding: 1473 1473 613
Width: 1038
Flags: W
HStem: 701 20G<650 732>
Fore
650 721 m 1
 732 721 l 1
 732 639 l 1
 650 639 l 1
 650 721 l 1
EndSplineSet
EndChar
StartChar: afii57803
Encoding: 1474 1474 614
Width: 1038
Flags: W
HStem: 701 20G<101 183>
Fore
101 721 m 1
 183 721 l 1
 183 639 l 1
 101 639 l 1
 101 721 l 1
EndSplineSet
EndChar
StartChar: uni05C4
Encoding: 1476 1476 616
Width: 82
Flags: W
HStem: 722 20G<0 82>
Fore
0 742 m 1
 82 742 l 1
 82 660 l 1
 0 660 l 1
 0 742 l 1
EndSplineSet
EndChar
StartChar: afii57664
Encoding: 1488 1488 617
Width: 714
Flags: W
HStem: 0 21G<89 228 487 650>
VStem: 89 139<0 148> 482 139<443 600>
Fore
286 285 m 1
 247 237 241 207 228 148 c 1
 228 0 l 1
 89 0 l 1
 89 158 l 1
 103 236 116 282 170 349 c 0
 183 365 198 378 212 388 c 1
 61 600 l 1
 222 600 l 1
 425 315 l 1
 463 362 469 389 482 444 c 1
 482 600 l 1
 621 600 l 1
 621 433 l 1
 607 357 591 314 540 250 c 0
 527 235 512 222 498 212 c 1
 650 0 l 1
 487 0 l 1
 286 285 l 1
EndSplineSet
EndChar
StartChar: afii57665
Encoding: 1489 1489 618
Width: 651
Flags: W
HStem: 0 115<77 380 518 610> 485 115<77 247>
VStem: 380 139<115 365>
Fore
380 115 m 1
 380 365 l 1
 372 400 371 415 350 444 c 0
 340 457 346 451 333 459 c 0
 301 477 284 478 247 485 c 1
 77 485 l 1
 77 600 l 1
 259 600 l 1
 320 593 357 584 409 556 c 0
 434 544 458 522 470 502 c 1
 503 456 511 425 519 374 c 1
 519 115 l 1
 610 115 l 1
 610 0 l 1
 77 0 l 1
 77 115 l 1
 380 115 l 1
EndSplineSet
EndChar
StartChar: afii57666
Encoding: 1490 1490 619
Width: 557
Flags: W
HStem: 0 21G<47 220 363 503>
Fore
347 138 m 1
 220 0 l 1
 47 0 l 1
 224 194 l 1
 341 194 l 1
 322 361 l 1
 312 401 311 416 292 444 c 1
 281 457 288 451 274 459 c 0
 242 477 225 478 188 485 c 1
 115 485 l 1
 115 600 l 1
 200 600 l 1
 262 593 298 584 350 556 c 0
 375 544 399 522 412 502 c 0
 445 455 449 422 460 378 c 1
 503 0 l 1
 363 0 l 1
 347 138 l 1
EndSplineSet
EndChar
StartChar: afii57667
Encoding: 1491 1491 620
Width: 638
Flags: W
HStem: 0 21G<344 483> 485 115<63 344 483 566>
VStem: 344 139<0 485>
Fore
344 485 m 1
 63 485 l 1
 63 600 l 1
 566 600 l 1
 566 485 l 1
 483 485 l 1
 483 0 l 1
 344 0 l 1
 344 485 l 1
EndSplineSet
EndChar
StartChar: afii57668
Encoding: 1492 1492 621
Width: 682
Flags: W
HStem: 0.40625 21G<79 218 473 612> 485.406 115<79 340>
VStem: 79 139<15 337> 473 139<15 365>
Fore
612 374 m 2
 612 374.406 l 1
 612 0.40625 l 1
 473 0.40625 l 1
 473 365.406 l 1
 465 400.406 464 415.406 443 444.406 c 0
 433 457.406 440 451.406 426 459.406 c 0
 394 477.406 377 478.406 340 485.406 c 1
 79 485.406 l 1
 79 600.406 l 1
 352 600.406 l 1
 413 593.406 450 584.406 502 556.406 c 0
 527 544.406 551 522.406 564 502.406 c 0
 596 456.406 604 425.406 612 374 c 2
79 0.40625 m 1
 79 349.406 l 1
 218 349.406 l 1
 218 0.40625 l 1
 79 0.40625 l 1
EndSplineSet
EndChar
StartChar: afii57669
Encoding: 1493 1493 622
Width: 297
Flags: W
HStem: 0 21G<79 218>
VStem: 79 139<0 600>
Fore
79 0 m 1
 79 600 l 1
 218 600 l 1
 218 0 l 1
 79 0 l 1
EndSplineSet
EndChar
StartChar: afii57670
Encoding: 1494 1494 623
Width: 443
Flags: W
HStem: 0 21G<149 288> 485 115<63 149 288 371>
VStem: 149 139<0 485>
Fore
149 485 m 1
 63 485 l 1
 63 600 l 1
 371 600 l 1
 371 485 l 1
 288 485 l 1
 288 0 l 1
 149 0 l 1
 149 485 l 1
EndSplineSet
EndChar
StartChar: afii57671
Encoding: 1495 1495 624
Width: 682
Flags: W
HStem: 0 21G<79 218 473 612> 485 115<218 340>
VStem: 79 139<0 485> 473 139<0 365>
Fore
612 374 m 1
 612 0 l 1
 473 0 l 1
 473 365 l 1
 465 400 464 415 443 444 c 0
 433 457 440 451 426 459 c 0
 394 477 377 478 340 485 c 1
 218 485 l 1
 218 0 l 1
 79 0 l 1
 79 600 l 1
 352 600 l 1
 414 597 450 584 502 556 c 0
 527 544 551 522 564 502 c 0
 596 456 604 425 612 374 c 1
EndSplineSet
EndChar
StartChar: afii57672
Encoding: 1496 1496 625
Width: 670
Flags: W
HStem: 485 115<331 348>
VStem: 76.1875 139.001<234 600>
Fore
340 485 m 2
 340.188 485 l 2
 313.188 485 294.188 473 294.188 473 c 1
 294.188 595 l 1
 307.188 597 311.188 600 345.188 600 c 0
 406.188 600 456.188 580 499.188 556 c 1
 524.188 544 547.188 522 560.188 502 c 0
 592.188 456 601.188 425 609.188 374 c 1
 609.188 226 l 1
 601.188 175 592.188 144 560.188 98 c 0
 547.188 78 524.188 56 499.188 44 c 1
 458.188 21 407.188 0 342.188 0 c 0
 278.188 0 227.188 21 186.188 44 c 1
 161.188 56 138.188 78 125.188 98 c 0
 93.1875 144 84.1875 175 76.1875 226 c 1
 76.1875 600 l 1
 215.188 600 l 1
 215.188 235 l 1
 223.188 200 224.188 185 245.188 156 c 1
 256.188 143 249.188 149 262.188 141 c 0
 306.188 118 307.188 116 342.188 115 c 1
 378.188 116 379.188 118 422.188 141 c 0
 436.188 149 429.188 143 440.188 156 c 1
 461.188 185 462.188 200 470.188 235 c 1
 470.188 365 l 1
 462.188 400 461.188 415 440.188 444 c 1
 429.188 457 436.188 451 422.188 459 c 0
 381.188 480 379.188 485 340 485 c 2
EndSplineSet
EndChar
StartChar: afii57673
Encoding: 1497 1497 626
Width: 284
Flags: W
VStem: 73 139<332 600>
Fore
212 333 m 1
 73 276 l 1
 73 600 l 1
 212 600 l 1
 212 333 l 1
EndSplineSet
EndChar
StartChar: afii57674
Encoding: 1498 1498 627
Width: 590
Flags: W
HStem: 485 115<62 248>
VStem: 381 139<-200 365>
Fore
381 -200 m 1
 381 365 l 1
 373 400 372 415 351 444 c 1
 340 457 347 451 333 459 c 0
 302 477 285 478 248 485 c 1
 62 485 l 1
 62 600 l 1
 259 600 l 1
 321 593 357 584 410 556 c 0
 435 544 458 522 471 502 c 0
 503 456 512 425 520 374 c 1
 520 -200 l 1
 381 -200 l 1
EndSplineSet
EndChar
StartChar: afii57675
Encoding: 1499 1499 628
Width: 595
Flags: W
HStem: 0 115<90 261> 485 115<90 261>
Fore
273 0 m 2
 272.625 0 l 1
 75.625 0 l 1
 75.625 115 l 1
 261.625 115 l 1
 298.625 122 315.625 123 346.625 141 c 0
 360.625 149 353.625 143 364.625 156 c 1
 385.625 185 386.625 200 394.625 235 c 1
 394.625 365 l 1
 386.625 400 385.625 415 364.625 444 c 1
 353.625 457 360.625 451 346.625 459 c 0
 315.625 477 298.625 478 261.625 485 c 1
 75.625 485 l 1
 75.625 600 l 1
 272.625 600 l 1
 334.625 593 370.625 584 423.625 556 c 0
 448.625 544 471.625 522 484.625 502 c 0
 516.625 456 525.625 425 533.625 374 c 1
 533.625 226 l 1
 525.625 175 516.625 144 484.625 98 c 0
 471.625 78 448.625 56 423.625 44 c 0
 370.625 16 334.625 7 273 0 c 2
EndSplineSet
EndChar
StartChar: afii57676
Encoding: 1500 1500 629
Width: 667
Flags: W
HStem: 0 21G<271 410> 485 115<200 456> 730 20G<62 201>
VStem: 62 139<599 750>
Fore
410 101 m 2
 410 0 l 1
 271 0 l 1
 271 107 l 1
 277 154 275 188 307 233 c 0
 355 299 417 312 433 337 c 0
 452 365 450 380 456 419 c 1
 456 485 l 1
 62 485 l 1
 62 750 l 1
 201 750 l 1
 201 600 l 1
 595 600 l 1
 595 412 l 1
 592 372 590 333 559 287 c 0
 513 218 449 202 433 183 c 0
 412 157 410 141 410 101 c 2
EndSplineSet
EndChar
StartChar: afii57677
Encoding: 1501 1501 630
Width: 683
Flags: W
HStem: 0 115<219 474> 485 115<219 346>
VStem: 80 139<115 485> 474 139<115 369>
Fore
613 0 m 1
 80 0 l 1
 80 600 l 1
 346 600 l 2
 419 600 473 575 503 556 c 0
 556 523 613 454 613 369 c 2
 613 0 l 1
474 115 m 1
 474 369 l 1
 472 407 450 445 426 459 c 0
 400 475 374 484 346 485 c 2
 219 485 l 1
 219 115 l 1
 474 115 l 1
EndSplineSet
EndChar
StartChar: afii57678
Encoding: 1502 1502 631
Width: 704
Flags: W
HStem: 0 115<363 494> 485 115<67 158 297 388>
VStem: 494 139<115 385>
Fore
298 485 m 1
 226 0 l 1
 86 0 l 1
 158 485 l 1
 67 485 l 1
 67 600 l 1
 367 600 l 2
 397 600 443 597 490 575 c 0
 543 551 581 516 606 474 c 0
 631 434 633 395 633 369 c 2
 633 0 l 1
 363 0 l 1
 363 115 l 1
 494 115 l 1
 494 369 l 2
 494 390 492 404 482 420 c 0
 459 454 458 456 421 475 c 0
 405 483 387 485 367 485 c 2
 298 485 l 1
EndSplineSet
EndChar
StartChar: afii57679
Encoding: 1503 1503 632
Width: 297
Flags: W
VStem: 79 139<-200 600>
Fore
79 -200 m 1
 79 600 l 1
 218 600 l 1
 218 -200 l 1
 79 -200 l 1
EndSplineSet
EndChar
StartChar: afii57680
Encoding: 1504 1504 633
Width: 429
Flags: W
HStem: 0 115<73 220> 485 115<84.0626 100.532>
VStem: 220 139<115 365>
Fore
359 0 m 1
 73 0 l 1
 73 115 l 1
 220 115 l 1
 220 365 l 1
 212 400 211 415 190 444 c 0
 181 455 186 450 170 461 c 1
 146 475 113 485 84 485 c 1
 84 600 l 1
 153 600 215 576 251 555 c 0
 272 543 296 524 310 502 c 0
 342 456 356 425 359 374 c 1
 359 0 l 1
EndSplineSet
EndChar
StartChar: afii57681
Encoding: 1505 1505 634
Width: 670
Flags: W
HStem: 0 21G<341.516 342> 485 115<218 336>
VStem: 75.5156 139<234 485>
Fore
342 0 m 2
 341.516 0 l 2
 277.516 -1 226.516 21 185.516 44 c 1
 160.516 56 137.516 78 124.516 98 c 0
 92.5156 144 78.5156 175 75.5156 226 c 1
 75.5156 600 l 1
 347.516 600 l 1
 409.516 597 445.516 584 498.516 556 c 0
 523.516 544 546.516 522 559.516 502 c 0
 591.516 456 600.516 425 608.516 374 c 1
 608.516 226 l 1
 600.516 175 591.516 144 559.516 98 c 0
 546.516 78 523.516 56 498.516 44 c 1
 457.516 21 406.516 -1 342 0 c 2
341.516 115 m 1
 377.516 116 378.516 118 421.516 141 c 0
 435.516 149 428.516 143 439.516 156 c 1
 460.516 185 461.516 200 469.516 235 c 1
 469.516 365 l 1
 461.516 400 460.516 415 439.516 444 c 1
 428.516 457 435.516 451 421.516 459 c 0
 390.516 477 373.516 478 336.516 485 c 1
 214.516 485 l 1
 214.516 235 l 1
 222.516 200 223.516 185 244.516 156 c 1
 255.516 143 248.516 149 261.516 141 c 0
 305.516 118 306.516 116 341.516 115 c 1
EndSplineSet
EndChar
StartChar: afii57682
Encoding: 1506 1506 635
Width: 653
Flags: W
VStem: 440 139<261 600>
Fore
346 136 m 1
 376 148 389 153 405 171 c 0
 431 198 430 216 440 262 c 1
 440 600 l 1
 579 600 l 1
 579 252 l 1
 569 197 565 155 516 101 c 0
 472 53 429 41 377 21 c 1
 60 -55 l 1
 60 65 l 1
 212 101 l 1
 99 600 l 1
 241 600 l 1
 346 136 l 1
EndSplineSet
EndChar
StartChar: afii57683
Encoding: 1507 1507 636
Width: 661
Flags: W
HStem: 241 115<254 319> 486 115<211.062 297.221>
VStem: 72 139<391 486> 451 139<-200 368>
Fore
451 -200 m 1
 451 367 l 1
 447 399 449 407 439 421 c 0
 416 455 415 457 377 476 c 0
 358 486 258 486 211 486 c 1
 211 407 l 2
 211 385 212 371 222 364 c 0
 233 356 241 356 266 356 c 2
 319 356 l 1
 319 241 l 1
 254 241 l 1
 217 246 171 244 121 284 c 1
 72 328 72 370 72 398 c 2
 72 601 l 1
 328 601 l 2
 364 600 399 598 447 576 c 0
 500 552 538 517 563 475 c 0
 589 433 586 404 590 373 c 1
 590 -200 l 1
 451 -200 l 1
EndSplineSet
EndChar
StartChar: afii57684
Encoding: 1508 1508 637
Width: 660
Flags: W
HStem: 0 115<94 327> 240 115<261 320> 485 115<218.312 304.48>
VStem: 79.2656 139<383 485>
Fore
335 0 m 2
 335.266 0 l 1
 79.2656 0 l 1
 79.2656 115 l 1
 327.266 115 l 1
 363.266 119 370.266 117 384.266 125 c 0
 421.266 144 423.266 146 446.266 180 c 0
 456.266 194 454.266 201 458.266 234 c 1
 458.266 366 l 1
 454.266 399 456.266 406 446.266 420 c 0
 423.266 454 422.266 456 384.266 475 c 0
 365.266 485 265.266 485 218.266 485 c 1
 218.266 406 l 2
 218.266 384 219.266 371 229.266 364 c 0
 240.266 355 248.266 355 273.266 355 c 2
 326.266 355 l 1
 326.266 240 l 1
 261.266 240 l 1
 224.266 245 178.266 243 128.266 283 c 1
 79.2656 328 79.2656 369 79.2656 397 c 2
 79.2656 600 l 1
 335.266 600 l 2
 371.266 599 406.266 598 454.266 575 c 0
 507.266 551 545.266 516 570.266 474 c 0
 596.266 432 593.266 403 597.266 372 c 1
 597.266 228 l 1
 593.266 197 596.266 168 570.266 126 c 0
 545.266 84 507.266 49 454.266 25 c 0
 406.266 2 371.266 3 335 0 c 2
EndSplineSet
EndChar
StartChar: afii57685
Encoding: 1509 1509 638
Width: 616
Flags: W
VStem: 228 139<-200 249> 405 139<443 600>
Fore
337 362 m 1
 349 363 359 365 362 368 c 0
 369 372 375 378 379 382 c 0
 396 400 401 420 405 444 c 1
 405 600 l 1
 544 600 l 1
 544 433 l 1
 535 384 522 359 494 321 c 0
 484 306 463 281 430 267 c 0
 408 258 386 252 367 249 c 1
 367 -200 l 1
 228 -200 l 1
 228 286 l 1
 27 600 l 1
 185 600 l 1
 337 362 l 1
EndSplineSet
EndChar
StartChar: afii57686
Encoding: 1510 1510 639
Width: 671
Flags: W
HStem: 0 115<86 373>
VStem: 440 139<443 600>
Fore
373 362 m 1
 384 363 394 365 397 368 c 0
 404 372 397 365 411 382 c 0
 431 408 433 421 440 444 c 1
 440 600 l 1
 579 600 l 1
 579 433 l 1
 570 384 557 359 529 321 c 0
 510 293 482 271 440 258 c 1
 606 0 l 1
 86 0 l 1
 86 115 l 1
 374 115 l 1
 61 600 l 1
 219 600 l 1
 373 362 l 1
EndSplineSet
EndChar
StartChar: afii57687
Encoding: 1511 1511 640
Width: 672
Flags: W
HStem: 485.141 115<95 449>
VStem: 80.3594 139<-185 361> 460.359 139<284 485>
Fore
489 94 m 2
 489.359 94.1406 l 2
 437.359 65.1406 403.359 51.1406 335.359 49.1406 c 1
 335.359 165.141 l 1
 341.359 164.141 l 1
 378.359 171.141 381.359 168.141 412.359 190.141 c 0
 425.359 200.141 419.359 193.141 430.359 206.141 c 1
 451.359 235.141 452.359 250.141 460.359 285.141 c 1
 460.359 485.141 l 1
 80.3594 485.141 l 1
 80.3594 600.141 l 1
 599.359 600.141 l 1
 599.359 276.141 l 1
 592.359 226.141 582.359 194.141 550.359 148.141 c 0
 537.359 128.141 513.359 107.141 489 94 c 2
219.359 371.141 m 1
 219.359 -199.859 l 1
 80.3594 -199.859 l 1
 80.3594 371.141 l 1
 219.359 371.141 l 1
EndSplineSet
EndChar
StartChar: afii57688
Encoding: 1512 1512 641
Width: 600
Flags: W
HStem: 0.40625 21G<391 530> 485.406 115<63 258>
VStem: 391 139<15 365>
Fore
530 374 m 2
 530 374.406 l 1
 530 0.40625 l 1
 391 0.40625 l 1
 391 365.406 l 1
 383 400.406 382 415.406 361 444.406 c 0
 351 457.406 358 451.406 344 459.406 c 0
 312 477.406 295 478.406 258 485.406 c 1
 63 485.406 l 1
 63 600.406 l 1
 270 600.406 l 1
 331 593.406 368 584.406 420 556.406 c 0
 445 544.406 469 522.406 482 502.406 c 0
 514 456.406 522 425.406 530 374 c 2
EndSplineSet
EndChar
StartChar: afii57689
Encoding: 1513 1513 642
Width: 840
Flags: W
HStem: 0 115<363 477>
VStem: 76 139<323 600> 351 139<383 600> 627 139<255 600>
Fore
215 323 m 1
 283 323 l 2
 305 323 320 329 331 340 c 0
 345 352 351 368 351 387 c 2
 351 600 l 1
 490 600 l 1
 490 387 l 2
 490 345 476 296 432 260 c 1
 397 226 338 205 283 208 c 1
 230 208 l 1
 236 198 l 1
 263 160 268 156 310 133 c 1
 345 117 363 115 382 115 c 2
 461 115 l 2
 478 115 499 117 532 133 c 0
 575 156 580 160 606 198 c 1
 625 229 627 248 627 265 c 2
 627 600 l 1
 766 600 l 1
 766 265 l 1
 767 221 755 181 728 142 c 1
 699 97 661 61 605 34 c 1
 562 11 512 0 461 0 c 2
 382 0 l 2
 330 0 279 12 237 34 c 1
 181 61 143 97 114 142 c 1
 87 181 76 223 76 265 c 2
 76 600 l 1
 215 600 l 1
 215 323 l 1
EndSplineSet
EndChar
StartChar: afii57690
Encoding: 1514 1514 643
Width: 756
Flags: W
HStem: 0 21G<546 685> 485 115<123 189 327 413>
VStem: 189 139<232 485> 546 139<0 366>
Fore
328 485 m 1
 328 229 l 1
 324 192 333 156 301 102 c 1
 288 76 259 55 237 44 c 0
 185 17 152 4 90 0 c 0
 79 -1 62 5 62 5 c 1
 62 121 l 1
 62 121 79 115 90 115 c 0
 114 115 115 113 148 129 c 0
 161 135 170 144 176 153 c 0
 190 174 185 186 189 233 c 1
 189 485 l 1
 123 485 l 1
 123 600 l 1
 425 600 l 1
 486 593 523 584 575 557 c 0
 600 544 624 523 637 503 c 0
 669 457 677 426 685 374 c 1
 685 0 l 1
 546 0 l 1
 546 366 l 1
 538 400 537 416 516 445 c 0
 506 458 513 452 499 460 c 0
 467 478 450 478 413 485 c 1
 328 485 l 1
EndSplineSet
EndChar
StartChar: afii57716
Encoding: 1520 1520 644
Width: 554
Flags: W
HStem: 0 21G<79 218 336 475>
VStem: 79 139<0 600> 336 139<0 600>
Fore
79 0 m 1
 79 600 l 1
 218 600 l 1
 218 0 l 1
 79 0 l 1
336 0 m 1
 336 600 l 1
 475 600 l 1
 475 0 l 1
 336 0 l 1
EndSplineSet
EndChar
StartChar: afii57717
Encoding: 1521 1521 645
Width: 550
Flags: W
HStem: 0 21G<332 471>
VStem: 73 139<332 600> 332 139<0 600>
Fore
212 333 m 1
 73 276 l 1
 73 600 l 1
 212 600 l 1
 212 333 l 1
332 0 m 1
 332 600 l 1
 471 600 l 1
 471 0 l 1
 332 0 l 1
EndSplineSet
EndChar
